<?xml version="1.0" encoding="utf-8"?>
<!-- Generator: Adobe Illustrator 16.0.3, SVG Export Plug-In . SVG Version: 6.00 Build 0)  -->
<!DOCTYPE svg PUBLIC "-//W3C//DTD SVG 1.1//EN" "http://www.w3.org/Graphics/SVG/1.1/DTD/svg11.dtd">
<svg version="1.1" id="Capa_1" xmlns="http://www.w3.org/2000/svg" xmlns:xlink="http://www.w3.org/1999/xlink" x="0px" y="0px"
	 width="1200px" height="16383px" viewBox="0 0 1200 16383" enable-background="new 0 0 1200 16383" xml:space="preserve">
<g>
	<path fill="#22A9BB" d="M679.537,0H789.79c-18.279,18.492-36.799,36.742-55.099,55.215C716.365,36.762,697.912,18.414,679.537,0z"
		/>
</g>
<g>
	<path fill="#34AC90" d="M789.79,0h189.176c2.368,4.063,5.757,7.229,9.386,10.117c2.494,3.967,6.69,6.266,9.474,9.973
		c2.089,2.656,5.196,4.293,7.17,7.074c2.032,3.109,5.757,4.496,7.739,7.643c2.003,3.119,5.555,4.719,7.652,7.76
		c1.887,2.887,5.246,4.281,7.268,7.055c1.731,2.465,3.928,4.523,6.296,6.383l-0.327,0.318
		c-49.582,49.764-99.416,99.27-148.921,149.084l-0.106-0.096c-50.072-49.92-100.021-99.965-150.018-149.971l0.115-0.125
		C752.991,36.742,771.511,18.492,789.79,0z"/>
</g>
<g>
	<path fill="#6ABF68" d="M978.966,0h111.104c-18.78,18.598-37.341,37.406-56.119,56.004c-2.368-1.859-4.563-3.918-6.296-6.383
		c-2.021-2.771-5.381-4.168-7.268-7.055c-2.099-3.043-5.65-4.641-7.652-7.76c-1.982-3.146-5.707-4.533-7.739-7.643
		c-1.974-2.781-5.081-4.418-7.17-7.074c-2.782-3.707-6.979-6.008-9.474-9.973C984.723,7.229,981.334,4.063,978.966,0z"/>
</g>
<g>
	<path fill="#3D9D2A" d="M1090.068,0h109.599v190.188c-5.582,4.891-10.781,10.223-15.796,15.68
		c5.112,5.438,10.521,10.598,15.796,15.883v269.014c-4.871,4.957-9.885,9.779-14.718,14.766l-0.098,0.096
		c-50.015-50.17-100.194-100.166-150.22-150.316c-0.097-0.096-0.279-0.279-0.375-0.377c14.861-14.178,29.089-29.041,43.759-43.439
		c35.049-35.25,70.422-70.191,105.346-105.566c-1.867-3.158-5.017-5.236-7.471-7.883c-42.537-42.508-85.055-85.045-127.59-127.553
		c-4.938-4.678-9.299-9.99-14.68-14.168l0.327-0.318C1052.729,37.406,1071.288,18.598,1090.068,0z"/>
</g>
<g>
	<path fill="#216058" d="M1033.622,56.322c5.381,4.178,9.741,9.49,14.68,14.168c42.535,42.508,85.054,85.045,127.59,127.553
		c2.454,2.646,5.604,4.725,7.471,7.883c-34.923,35.375-70.298,70.316-105.346,105.566c-14.67,14.398-28.896,29.262-43.759,43.439
		c-49.91-49.773-99.732-99.654-149.557-149.525C934.206,155.592,984.04,106.086,1033.622,56.322z"/>
</g>
<g>
	<path fill="#7FC422" d="M1183.871,205.867c5.015-5.457,10.214-10.789,15.796-15.68v31.563
		C1194.392,216.465,1188.983,211.307,1183.871,205.867z"/>
</g>
<g>
	<path fill="#7FC422" d="M1183.871,914.016c5.015-5.459,10.214-10.791,15.796-15.682v31.564
		C1194.392,924.613,1188.983,919.453,1183.871,914.016z"/>
</g>
<g>
	<path fill="#F47C99" d="M734.461,655.441l-0.288-0.309c49.611-49.283,98.888-98.904,148.42-148.246
		c0.741-0.627,1.829-1.936,0.685-2.754c-44.761-44.73-89.491-89.49-134.251-134.23c-4.736-4.844-9.665-9.5-14.285-14.449
		c-0.125-0.135-0.386-0.414-0.521-0.549c1.84-0.645,3.063-2.203,4.39-3.533c48.64-48.705,97.385-97.316,145.984-146.063l0.106,0.098
		c49.822,49.871,99.646,99.752,149.557,149.525c0.096,0.098,0.278,0.279,0.375,0.377c-6.219,5.121-11.513,11.262-17.327,16.826
		c-41.217,41.217-82.443,82.426-123.644,123.643c-3.002,3.205-6.468,5.988-9.067,9.549c6.759,7.133,14.055,13.766,20.726,20.994
		c15.344,15.141,30.563,30.389,45.723,45.713c12.119,11.646,23.718,23.832,35.673,35.654c16.027,15.969,31.948,32.053,48.11,47.879
		l-0.442,0.441c-14.823,14.959-29.754,29.813-44.663,44.703c-2.369,2.553-5.257,4.697-7.027,7.75l-192.901-0.283"/>
</g>
<g>
	<path fill="#9449A0" d="M584.693,505.49c50.024-50.006,100.03-100.031,150.047-150.037c4.62,4.947,9.549,9.605,14.285,14.447
		c44.76,44.74,89.49,89.502,134.251,134.232c1.146,0.818,0.058,2.127-0.685,2.752c-49.533,49.344-98.521,99.271-148.132,148.557
		C684.733,605.465,634.439,555.457,584.693,505.49z"/>
</g>
<g>
	<path fill="#F9D360" d="M1017.306,372.135c5.814-5.564,11.108-11.705,17.327-16.826c50.024,50.15,100.205,100.146,150.221,150.316
		c-50.063,49.93-99.974,100.002-150.027,149.941c-16.162-15.826-32.083-31.91-48.11-47.879
		c-11.955-11.822-23.554-24.008-35.673-35.654c-15.16-15.324-30.379-30.572-45.723-45.713c-6.671-7.23-13.967-13.861-20.726-20.994
		c2.601-3.561,6.065-6.344,9.067-9.549C934.861,454.561,976.089,413.352,1017.306,372.135z"/>
</g>
<g>
	<path fill="#3F370C" d="M1184.949,505.529c4.833-4.986,9.847-9.809,14.718-14.766v29.475
		C1194.604,515.502,1189.724,510.555,1184.949,505.529z"/>
</g>
<g>
	<path fill="#F89113" d="M1034.383,656.01l0.442-0.443c50.055-49.939,99.964-100.012,150.026-149.941l0.098-0.096
		c4.773,5.023,9.655,9.973,14.718,14.709v188.223h-112.352"/>
</g>
<g>
	<polygon fill="#FFFFFF" points="681.816,708.461 734.619,655.441 585.317,505.492 734.664,355.453 585.288,205.193 734.616,55.215 
		679.719,0 -0.194,0 0.534,708.461 	"/>
	<polygon fill="#FFFFFF" points="685.334,1416.637 738.422,1363.617 588.313,1213.668 738.467,1063.629 588.283,913.371 
		738.419,763.391 683.225,708.176 -0.364,708.176 0.369,1416.637 	"/>
	<polygon fill="#FFFFFF" points="683.568,2124.955 736.521,2071.936 586.797,1921.984 736.564,1771.947 586.768,1621.688 
		736.518,1471.707 681.465,1416.494 -0.365,1416.494 0.365,2124.955 	"/>
	<polygon fill="#FFFFFF" points="687.098,2833.131 740.323,2780.111 589.827,2630.162 740.368,2480.123 589.797,2329.863 
		740.32,2179.885 684.983,2124.67 -0.365,2124.67 0.369,2833.131 	"/>
	<polygon fill="#FFFFFF" points="683.566,3540.332 736.518,3487.314 586.795,3337.363 736.563,3187.324 586.766,3037.066 
		736.514,2887.086 681.463,2831.873 -0.363,2831.873 0.367,3540.332 	"/>
	<polygon fill="#FFFFFF" points="687.096,4248.508 740.32,4195.49 589.824,4045.539 740.365,3895.502 589.795,3745.242 
		740.316,3595.262 684.98,3540.049 -0.364,3540.049 0.37,4248.508 	"/>
	<polygon fill="#FFFFFF" points="685.33,4956.826 738.418,4903.809 588.31,4753.857 738.463,4603.818 588.28,4453.561 
		738.416,4303.58 683.221,4248.365 -0.364,4248.365 0.368,4956.826 	"/>
	<polygon fill="#FFFFFF" points="688.859,5665.002 742.221,5611.982 591.339,5462.033 742.266,5311.996 591.31,5161.736 
		742.218,5011.756 686.739,4956.543 -0.364,4956.543 0.372,5665.002 	"/>
	<polygon fill="#FFFFFF" points="685.332,6372.346 738.42,6319.326 588.311,6169.377 738.465,6019.338 588.282,5869.08 
		738.418,5719.1 683.223,5663.885 -0.364,5663.885 0.368,6372.346 	"/>
	<polygon fill="#FFFFFF" points="688.861,7080.521 742.223,7027.502 591.341,6877.553 742.268,6727.516 591.313,6577.256 
		742.221,6427.275 686.741,6372.063 -0.364,6372.063 0.372,7080.521 	"/>
	<polygon fill="#FFFFFF" points="687.098,7788.84 740.322,7735.82 589.826,7585.871 740.367,7435.832 589.797,7285.574 
		740.318,7135.594 684.982,7080.379 -0.364,7080.379 0.37,7788.84 	"/>
	<polygon fill="#FFFFFF" points="690.627,8497.016 744.124,8443.998 592.856,8294.047 744.17,8144.008 592.826,7993.75 
		744.12,7843.77 688.501,7788.557 -0.363,7788.557 0.374,8497.016 	"/>
	<polygon fill="#FFFFFF" points="687.094,9204.217 740.318,9151.199 589.823,9001.248 740.363,8851.211 589.794,8700.951 
		740.314,8550.971 684.979,8495.758 -0.364,8495.758 0.37,9204.217 	"/>
	<polygon fill="#FFFFFF" points="690.622,9912.395 744.121,9859.375 592.854,9709.424 744.166,9559.387 592.823,9409.127 
		744.116,9259.148 688.497,9203.934 -0.368,9203.934 0.37,9912.395 	"/>
	<polygon fill="#FFFFFF" points="688.857,10620.711 742.219,10567.693 591.338,10417.742 742.264,10267.705 591.309,10117.445 
		742.217,9967.465 686.737,9912.252 -0.364,9912.252 0.372,10620.711 	"/>
	<polygon fill="#FFFFFF" points="692.387,11328.889 746.021,11275.869 594.368,11125.918 746.066,10975.881 594.338,10825.621 
		746.02,10675.641 690.256,10620.428 -0.364,10620.428 0.375,11328.889 	"/>
	<polygon fill="#FFFFFF" points="694.154,12034.195 747.926,11981.176 595.886,11831.227 747.972,11681.188 595.856,11530.928 
		747.924,11380.949 692.019,11325.734 -0.365,11325.734 0.377,12034.195 	"/>
	<polygon fill="#FFFFFF" points="692.391,12742.512 746.025,12689.492 594.371,12539.543 746.071,12389.504 594.341,12239.246 
		746.021,12089.266 690.261,12034.051 -0.364,12034.051 0.375,12742.512 	"/>
	<polygon fill="#FFFFFF" points="695.92,13450.688 749.828,13397.67 597.401,13247.719 749.874,13097.68 597.371,12947.422 
		749.824,12797.441 693.779,12742.227 -0.365,12742.227 0.379,13450.688 	"/>
	<polygon fill="#FFFFFF" points="692.388,14157.889 746.021,14104.871 594.368,13954.92 746.067,13804.883 594.338,13654.623 
		746.018,13504.643 690.257,13449.43 -0.364,13449.43 0.375,14157.889 	"/>
	<polygon fill="#FFFFFF" points="695.917,14866.066 749.824,14813.047 597.398,14663.096 749.87,14513.059 597.368,14362.799 
		749.82,14212.818 693.775,14157.605 -0.363,14157.605 0.38,14866.066 	"/>
	<polygon fill="#FFFFFF" points="694.151,15574.383 747.922,15521.365 595.883,15371.414 747.968,15221.377 595.854,15071.117 
		747.92,14921.137 692.015,14865.924 -0.364,14865.924 0.377,15574.383 	"/>
	<polygon fill="#FFFFFF" points="734.369,16383 751.725,16229.541 598.986,16079.59 751.771,15929.553 598.957,15779.293 
		751.723,15629.313 695.561,15574.1 0,15574.1 0,16383 	"/>
</g>
<g>
	<path fill="#FF5252" d="M789.79,708.176l-108.146,0.285c1.888-2.291,3.919-4.467,6.056-6.525
		c15.661-15.422,30.956-31.246,46.762-46.494"/>
	<g>
		<path fill="#FF5252" d="M734.692,763.391c-12.39-13.08-26.152-27.703-38.752-40.582c-4.774-4.891-10.165-9.211-14.383-14.631
			H789.79"/>
	</g>
</g>
<g>
	<g>
		<path fill="#61BC79" d="M1087.314,708.461l-106.742,1.236c1.771-3.051,6.777-6.434,9.146-8.984
			c14.909-14.891,30.461-30.432,45.284-45.391"/>
	</g>
	<g>
		<path fill="#61BC79" d="M978.966,708.176l108.351,0.285c-1.771,3.051-4.659,5.197-7.028,7.748
			c-14.909,14.893-31.515,33.014-46.338,47.971"/>
	</g>
</g>
<g>
	<path fill="#3D9D2A" d="M1087.314,708.461l112.353-0.285v190.188c-5.582,4.891-10.781,10.223-15.796,15.68
		c5.112,5.439,10.521,10.6,15.796,15.883v269.014c-4.871,4.957-9.885,9.779-14.718,14.766l-0.098,0.096
		c-50.015-50.17-100.194-100.166-150.22-150.316c-0.097-0.096-0.279-0.279-0.375-0.375c14.861-14.18,29.089-29.041,43.759-43.441
		c35.049-35.25,70.422-70.191,105.346-105.566c-1.867-3.158-5.017-5.236-7.471-7.883c-42.537-42.508-85.055-85.045-127.59-127.553
		c-4.938-4.678-9.299-9.992-14.68-14.168l0.327-0.318C1052.729,745.582,1068.535,727.059,1087.314,708.461z"/>
</g>
<path fill="#F8D834" d="M658.417,839.781c25.365-25.441,50.873-50.748,76.16-76.266c49.996,50.006,99.944,100.051,150.018,149.971
	c-48.601,48.744-97.346,97.355-145.984,146.061c-1.327,1.33-2.55,2.889-4.39,3.533c-49.774-49.977-99.801-99.713-149.557-149.711
	C609.402,888.998,633.805,864.279,658.417,839.781z"/>
<g>
	<path fill="#216058" d="M1033.622,764.498c5.381,4.178,9.741,9.49,14.68,14.168c42.535,42.508,85.054,85.045,127.59,127.553
		c2.454,2.646,5.604,4.727,7.471,7.883c-34.923,35.375-70.298,70.316-105.346,105.566c-14.67,14.4-28.896,29.262-43.759,43.441
		c-49.91-49.775-99.732-99.656-149.557-149.527C934.206,863.77,984.04,814.264,1033.622,764.498z"/>
</g>
<g>
	<path fill="#5F4997" d="M584.693,1213.666c50.024-50.006,100.03-100.031,150.047-150.037c4.62,4.947,9.549,9.605,14.285,14.447
		c44.76,44.742,89.49,89.502,134.251,134.232c1.146,0.818,0.058,2.127-0.685,2.754c-49.533,49.342-98.809,98.963-148.42,148.246
		C684.445,1313.332,634.439,1263.635,584.693,1213.666z"/>
</g>
<g>
	<path fill="#F9D360" d="M1017.306,1080.311c5.814-5.564,11.108-11.705,17.327-16.826c50.024,50.15,100.205,100.146,150.221,150.316
		c-50.063,49.93-99.974,100.004-150.027,149.941c-16.162-15.826-32.083-31.91-48.11-47.879
		c-11.955-11.82-23.554-24.006-35.673-35.654c-15.16-15.324-30.379-30.572-45.723-45.713c-6.671-7.229-13.967-13.861-20.726-20.992
		c2.601-3.563,6.065-6.344,9.067-9.549C934.861,1162.736,976.089,1121.529,1017.306,1080.311z"/>
</g>
<g>
	<path fill="#F89113" d="M1034.825,1363.742L1034.825,1363.742c50.055-49.938,99.964-100.012,150.026-149.941l0.098-0.096
		c4.773,5.025,9.654,9.973,14.718,14.709v188.223h-109.989"/>
</g>
<g>
	<path fill="#3F370C" d="M1184.854,1213.643c4.832-4.986,9.847-9.809,14.718-14.766v29.475
		C1194.508,1223.615,1189.627,1218.668,1184.854,1213.643z"/>
</g>
<g>
	<path fill="#81D0E1" d="M997.824,1436.727"/>
	<path fill="#81D0E1" d="M978.575,1416.637h111.493c-18.78,18.598-37.34,37.406-56.119,56.004c-2.368-1.859-4.563-3.918-6.296-6.383
		c-2.021-2.771-5.38-4.168-7.268-7.057c-2.099-3.041-5.649-4.639-7.653-7.758"/>
</g>
<g>
	<path fill="#3D9D2A" d="M1090.068,1416.637h109.599v190.188c-5.582,4.889-10.781,10.223-15.796,15.68
		c5.112,5.439,10.521,10.6,15.796,15.885V1907.4c-4.871,4.957-9.885,9.779-14.718,14.766l-0.098,0.096
		c-50.015-50.17-100.194-100.166-150.22-150.316c-0.097-0.096-0.279-0.279-0.375-0.375c14.861-14.18,29.089-29.041,43.759-43.441
		c35.049-35.25,70.422-70.191,105.346-105.566c-1.867-3.156-5.017-5.236-7.471-7.883c-42.537-42.508-85.055-85.045-127.59-127.553
		c-4.938-4.678-9.299-9.992-14.68-14.168l0.327-0.318C1052.729,1454.043,1071.288,1435.234,1090.068,1416.637z"/>
</g>
<path fill="#F8D834" d="M658.417,1548.24c25.365-25.441,50.873-50.746,76.16-76.264c49.996,50.006,99.944,100.051,150.018,149.969
	c-48.601,48.746-97.346,97.355-145.984,146.063c-1.327,1.328-2.55,2.889-4.39,3.533c-49.774-49.979-99.801-99.715-149.557-149.711
	C609.402,1597.457,633.805,1572.738,658.417,1548.24z"/>
<g>
	<path fill="#216058" d="M1033.622,1472.957c5.381,4.178,9.741,9.492,14.68,14.17c42.535,42.508,85.054,85.043,127.59,127.551
		c2.454,2.648,5.604,4.727,7.471,7.885c-34.923,35.375-70.298,70.314-105.346,105.564c-14.67,14.4-28.896,29.264-43.759,43.441
		c-49.91-49.775-99.732-99.656-149.557-149.527C934.206,1572.229,984.04,1522.723,1033.622,1472.957z"/>
</g>
<g>
	<path fill="#7FC422" d="M1183.871,1622.504c5.015-5.459,10.214-10.791,15.796-15.682v31.563
		C1194.392,1633.102,1188.983,1627.943,1183.871,1622.504z"/>
</g>
<g>
	<path fill="#7FC422" d="M1183.871,2330.65c5.015-5.457,10.214-10.791,15.796-15.68v31.563
		C1194.392,2341.248,1188.983,2336.09,1183.871,2330.65z"/>
</g>
<g>
	<path fill="#5562FF" d="M734.461,2072.078l-0.288-0.309c49.611-49.283,98.888-98.904,148.42-148.246
		c0.741-0.627,1.829-1.936,0.685-2.754c-44.761-44.73-89.491-89.49-134.251-134.232c-4.736-4.842-9.665-9.5-14.285-14.447
		c-0.125-0.135-0.386-0.414-0.521-0.549c1.84-0.645,3.063-2.205,4.39-3.533c48.64-48.707,97.385-97.316,145.984-146.063l0.106,0.096
		c49.822,49.871,99.646,99.752,149.557,149.527c0.096,0.096,0.278,0.279,0.375,0.377c-6.219,5.121-11.513,11.262-17.327,16.826
		c-41.217,41.217-82.443,82.426-123.644,123.643c-3.002,3.205-6.468,5.986-9.067,9.549c6.759,7.131,14.055,13.764,20.726,20.994
		c15.344,15.141,30.563,30.389,45.723,45.713c12.119,11.646,23.718,23.832,35.673,35.654c16.027,15.969,31.948,32.053,48.11,47.879
		l-0.442,0.443c-14.823,14.957-29.754,29.811-44.663,44.701c-2.369,2.553-5.257,4.697-7.027,7.75l-192.901-0.283"/>
</g>
<g>
	<path fill="#FF1010" d="M584.693,1922.127c50.024-50.006,100.03-100.031,150.047-150.039c4.62,4.949,9.549,9.607,14.285,14.449
		c44.76,44.74,89.49,89.5,134.251,134.232c1.146,0.816,0.058,2.127-0.685,2.752c-49.533,49.342-98.521,99.271-148.132,148.555
		C684.733,2022.102,634.439,1972.094,584.693,1922.127z"/>
</g>
<g>
	<path fill="#3F370C" d="M1184.949,1922.166c4.833-4.986,9.847-9.809,14.718-14.766v29.473
		C1194.604,1932.137,1189.724,1927.189,1184.949,1922.166z"/>
</g>
<g>
	<path fill="#F89113" d="M1034.383,2072.646l0.442-0.443c50.055-49.939,99.964-100.012,150.026-149.941l0.098-0.096
		c4.773,5.023,9.655,9.971,14.718,14.707v188.223h-112.352"/>
</g>
<path fill="#F8D834" d="M789.79,2124.813l-108.146,0.283c1.888-2.291,3.919-4.467,6.056-6.525
	c15.661-15.42,30.956-31.246,46.762-46.492"/>
<g>
	<path fill="#F8D834" d="M734.692,2180.027c-12.39-13.082-26.152-27.703-38.752-40.582c-4.774-4.891-10.165-9.213-14.383-14.633
		H789.79"/>
</g>
<g>
	<path fill="#60C2C2" d="M867.457,1938.467c5.814-5.564,11.107-11.705,17.327-16.826c50.023,50.15,100.205,100.146,150.22,150.316
		c-50.063,49.928-99.973,100.002-150.027,149.939c-16.161-15.824-32.082-31.908-48.109-47.877
		c-11.955-11.82-23.555-24.008-35.673-35.654c-15.16-15.324-30.379-30.572-45.724-45.713c-6.671-7.229-14.252-13.441-21.01-20.574
		c2.6-3.563,6.352-6.762,9.354-9.969C785.013,2020.893,826.24,1979.686,867.457,1938.467z"/>
</g>
<g>
	<path fill="#3D9D2A" d="M1087.314,2125.096l112.353-0.283V2315c-5.582,4.889-10.781,10.223-15.796,15.68
		c5.112,5.439,10.521,10.6,15.796,15.883v269.014c-4.871,4.957-9.885,9.779-14.718,14.766l-0.098,0.096
		c-50.015-50.168-100.194-100.166-150.22-150.316c-0.097-0.096-0.279-0.279-0.375-0.375c14.861-14.18,29.089-29.041,43.759-43.441
		c35.049-35.25,70.422-70.191,105.346-105.566c-1.867-3.158-5.017-5.236-7.471-7.883c-42.537-42.508-85.055-85.043-127.59-127.551
		c-4.938-4.68-9.299-9.992-14.68-14.17l0.327-0.318C1052.729,2162.219,1068.535,2143.693,1087.314,2125.096z"/>
</g>
<path fill="#F8D834" d="M658.417,2256.416c25.365-25.439,50.873-50.746,76.16-76.264c49.996,50.006,99.944,100.051,150.018,149.969
	c-48.601,48.746-97.346,97.357-145.984,146.063c-1.327,1.33-2.55,2.889-4.39,3.533c-49.774-49.979-99.801-99.715-149.557-149.711
	C609.402,2305.633,633.805,2280.914,658.417,2256.416z"/>
<g>
	<path fill="#216058" d="M1033.622,2181.133c5.381,4.18,9.741,9.492,14.68,14.17c42.535,42.508,85.054,85.043,127.59,127.553
		c2.454,2.646,5.604,4.725,7.471,7.883c-34.923,35.375-70.298,70.314-105.346,105.564c-14.67,14.4-28.896,29.264-43.759,43.441
		c-49.91-49.775-99.732-99.656-149.557-149.527C934.206,2280.404,984.04,2230.898,1033.622,2181.133z"/>
</g>
<g>
	<path fill="#9449A0" d="M584.693,2630.303c50.024-50.006,100.03-100.031,150.047-150.039c4.62,4.949,9.549,9.607,14.285,14.449
		c44.76,44.74,89.49,89.5,134.251,134.232c1.146,0.816,0.058,2.127-0.685,2.752c-49.533,49.342-98.809,98.963-148.42,148.248
		C684.445,2729.969,634.439,2680.271,584.693,2630.303z"/>
</g>
<g>
	<path fill="#F9D360" d="M1017.306,2496.947c5.814-5.564,11.108-11.705,17.327-16.826c50.024,50.15,100.205,100.146,150.221,150.316
		c-50.063,49.928-99.974,100.002-150.027,149.939c-16.162-15.824-32.083-31.908-48.11-47.877
		c-11.955-11.822-23.554-24.008-35.673-35.654c-15.16-15.324-30.379-30.572-45.723-45.713c-6.671-7.229-13.967-13.861-20.726-20.994
		c2.601-3.563,6.065-6.344,9.067-9.549C934.861,2579.373,976.089,2538.164,1017.306,2496.947z"/>
</g>
<g>
	<path fill="#F89113" d="M1184.854,2630.438l0.097-0.096c4.774,5.023,9.655,9.973,14.718,14.707v188.225h-112.352
		c-13.4-13.969-27.357-27.375-40.922-41.17c-4.031-3.734-7.448-8.162-12.012-11.281l0.442-0.443
		C1084.88,2730.439,1134.789,2680.367,1184.854,2630.438z"/>
</g>
<g>
	<path fill="#3F370C" d="M1184.854,2630.279c4.832-4.986,9.847-9.811,14.718-14.768v29.475
		C1194.508,2640.25,1189.627,2635.303,1184.854,2630.279z"/>
</g>
<path fill="#81D0E1" d="M1090.068,1416.637H978.575c22.964-21.553,36.176-34.219,56.25-52.895"/>
<g>
	<path fill="#7FC422" d="M1183.871,3037.639c5.015-5.457,10.214-10.791,15.796-15.68v31.564
		C1194.392,3048.238,1188.983,3043.078,1183.871,3037.639z"/>
</g>
<g>
	<g>
		<path fill="#61BC79" d="M1087.314,2832.086l-106.742,1.236c1.771-3.051,6.777-6.436,9.146-8.984
			c14.909-14.891,30.461-30.432,45.284-45.391"/>
	</g>
	<g>
		<path fill="#61BC79" d="M978.966,2831.801l108.351,0.285c-1.771,3.051-4.659,5.197-7.028,7.748
			c-14.909,14.893-31.515,33.012-46.338,47.971"/>
	</g>
</g>
<g>
	<path fill="#34AC90" d="M1033.949,2887.805l-0.327,0.318c-49.582,49.764-99.416,99.271-148.921,149.084l-0.106-0.096
		c-50.073-49.918-100.021-99.963-150.018-149.969l0.114-0.125c18.3-18.473,35.801-35.693,54.079-54.186l191.802,0.492"/>
	<path fill="#34AC90" d="M997.824,2851.891c2.089,2.656,5.197,4.293,7.17,7.074c2.031,3.109,5.757,4.496,7.738,7.645
		c2.004,3.117,5.556,4.717,7.653,7.758"/>
</g>
<path fill="#FF5252" d="M658.417,2963.406c25.365-25.441,50.873-50.748,76.16-76.266c49.996,50.006,99.944,100.051,150.018,149.971
	c-48.601,48.744-97.346,97.355-145.984,146.061c-1.327,1.33-2.55,2.889-4.39,3.533c-49.774-49.977-99.801-99.713-149.557-149.709
	C609.402,3012.623,633.805,2987.904,658.417,2963.406z"/>
<g>
	<path fill="#216058" d="M1033.622,2888.123c5.381,4.176,9.741,9.49,14.68,14.168c42.535,42.508,85.054,85.045,127.59,127.553
		c2.454,2.646,5.604,4.727,7.471,7.885c-34.923,35.375-70.298,70.314-105.346,105.564c-14.67,14.4-28.896,29.262-43.759,43.441
		c-49.91-49.775-99.732-99.656-149.557-149.527C934.206,2987.395,984.04,2937.887,1033.622,2888.123z"/>
</g>
<g>
	<path fill="#C66BB3" d="M978.575,3540.262H786.874c-4.217-5.42-9.606-9.74-14.382-14.631c-12.6-12.879-25.644-25.307-38.031-38.389
		l-0.288-0.309c49.611-49.283,98.888-98.904,148.42-148.246c0.741-0.627,1.829-1.936,0.685-2.754
		c-44.761-44.73-89.491-89.49-134.251-134.23c-4.736-4.842-9.665-9.5-14.285-14.449c-0.125-0.135-0.386-0.414-0.521-0.549
		c1.84-0.645,3.063-2.203,4.39-3.533c48.64-48.705,97.385-97.316,145.984-146.061l0.106,0.096
		c49.822,49.871,99.646,99.752,149.557,149.527c0.096,0.096,0.278,0.277,0.375,0.375c-6.219,5.121-11.513,11.262-17.327,16.824
		c-41.217,41.219-82.443,82.428-123.644,123.645c-3.002,3.205-6.468,5.986-9.067,9.549c6.759,7.131,14.055,13.764,20.726,20.992
		c15.344,15.143,30.563,30.389,45.723,45.713c12.119,11.646,23.718,23.834,35.673,35.654c16.027,15.969,31.948,32.055,48.11,47.879
		l-0.442,0.441"/>
</g>
<g>
	<path fill="#F9D360" d="M1017.306,3203.936c5.814-5.564,11.108-11.705,17.327-16.826c50.024,50.15,100.205,100.146,150.221,150.316
		c-50.063,49.93-99.974,100.002-150.027,149.941c-16.162-15.826-32.083-31.91-48.11-47.879
		c-11.955-11.82-23.554-24.006-35.673-35.654c-15.16-15.324-30.379-30.572-45.723-45.713c-6.671-7.229-13.967-13.861-20.726-20.992
		c2.601-3.563,6.065-6.344,9.067-9.549C934.861,3286.361,976.089,3245.154,1017.306,3203.936z"/>
</g>
<g>
	<path fill="#F89113" d="M1034.825,3487.367L1034.825,3487.367c50.055-49.938,99.964-100.012,150.026-149.941l0.098-0.096
		c4.773,5.025,9.654,9.973,14.718,14.709v188.223h-109.989"/>
</g>
<g>
	<path fill="#3F370C" d="M1184.854,3337.268c4.832-4.986,9.847-9.809,14.718-14.766v29.475
		C1194.508,3347.24,1189.627,3342.291,1184.854,3337.268z"/>
</g>
<g>
	<path fill="#22A9BB" d="M679.537,3540.262H789.79c-18.279,18.49-36.799,36.742-55.099,55.215
		C716.365,3577.023,697.912,3558.676,679.537,3540.262z"/>
</g>
<g>
	<path fill="#81D0E1" d="M997.824,3560.352"/>
	<path fill="#81D0E1" d="M978.575,3540.262h111.493c-18.78,18.598-37.34,37.406-56.119,56.002c-2.368-1.857-4.563-3.918-6.296-6.381
		c-2.021-2.771-5.38-4.168-7.268-7.057c-2.099-3.041-5.649-4.639-7.653-7.758"/>
</g>
<g>
	<path fill="#3D9D2A" d="M1090.068,3540.262h109.599v190.188c-5.582,4.889-10.781,10.223-15.796,15.68
		c5.112,5.439,10.521,10.598,15.796,15.883v269.014c-4.871,4.957-9.885,9.779-14.718,14.766l-0.098,0.098
		c-50.015-50.17-100.194-100.166-150.22-150.316c-0.097-0.098-0.279-0.279-0.375-0.377c14.861-14.178,29.089-29.041,43.759-43.441
		c35.049-35.25,70.422-70.189,105.346-105.564c-1.867-3.158-5.017-5.236-7.471-7.883c-42.537-42.51-85.055-85.045-127.59-127.553
		c-4.938-4.678-9.299-9.992-14.68-14.17l0.327-0.316C1052.729,3577.668,1071.288,3558.859,1090.068,3540.262z"/>
</g>
<path fill="#F8D834" d="M658.417,3671.865c25.365-25.441,50.873-50.748,76.16-76.266c49.996,50.006,99.944,100.051,150.018,149.971
	c-48.601,48.744-97.346,97.355-145.984,146.061c-1.327,1.33-2.55,2.889-4.39,3.533c-49.774-49.979-99.801-99.713-149.557-149.709
	C609.402,3721.082,633.805,3696.363,658.417,3671.865z"/>
<g>
	<path fill="#FF5252" d="M1033.622,3596.582c5.381,4.178,9.741,9.49,14.68,14.168c42.535,42.508,85.054,85.045,127.59,127.553
		c2.454,2.646,5.604,4.727,7.471,7.883c-34.923,35.375-70.298,70.316-105.346,105.566c-14.67,14.4-28.896,29.262-43.759,43.441
		c-49.91-49.775-99.732-99.656-149.557-149.527C934.206,3695.854,984.04,3646.348,1033.622,3596.582z"/>
</g>
<g>
	<path fill="#7FC422" d="M1183.871,3746.129c5.015-5.459,10.214-10.791,15.796-15.682v31.563
		C1194.392,3756.727,1188.983,3751.568,1183.871,3746.129z"/>
</g>
<g>
	<path fill="#7FC422" d="M1183.871,4454.275c5.015-5.457,10.214-10.791,15.796-15.682v31.564
		C1194.392,4464.873,1188.983,4459.713,1183.871,4454.275z"/>
</g>
<g>
	<path fill="#F47C99" d="M734.461,4195.703l-0.288-0.309c49.611-49.283,98.888-98.904,148.42-148.246
		c0.741-0.627,1.829-1.936,0.685-2.754c-44.761-44.73-89.491-89.49-134.251-134.232c-4.736-4.842-9.665-9.5-14.285-14.447
		c-0.125-0.135-0.386-0.414-0.521-0.549c1.84-0.645,3.063-2.205,4.39-3.533c48.64-48.705,97.385-97.314,145.984-146.061l0.106,0.096
		c49.822,49.871,99.646,99.752,149.557,149.527c0.096,0.096,0.278,0.279,0.375,0.375c-6.219,5.121-11.513,11.262-17.327,16.826
		c-41.217,41.219-82.443,82.426-123.644,123.643c-3.002,3.205-6.468,5.988-9.067,9.549c6.759,7.135,14.055,13.766,20.726,20.994
		c15.344,15.143,30.563,30.391,45.723,45.713c12.119,11.648,23.718,23.834,35.673,35.654c16.027,15.969,31.948,32.055,48.11,47.879
		l-0.442,0.441c-14.823,14.959-29.754,29.813-44.663,44.703c-2.369,2.551-5.257,4.697-7.027,7.748l-192.901-0.283"/>
</g>
<g>
	<path fill="#9449A0" d="M584.693,4045.752c50.024-50.006,100.03-100.031,150.047-150.039c4.62,4.949,9.549,9.607,14.285,14.449
		c44.76,44.74,89.49,89.5,134.251,134.23c1.146,0.818,0.058,2.127-0.685,2.754c-49.533,49.342-98.521,99.271-148.132,148.555
		C684.733,4145.727,634.439,4095.719,584.693,4045.752z"/>
</g>
<g>
	<path fill="#3F370C" d="M1184.949,4045.789c4.833-4.986,9.847-9.809,14.718-14.766v29.475
		C1194.604,4055.762,1189.724,4050.814,1184.949,4045.789z"/>
</g>
<g>
	<path fill="#F89113" d="M1034.383,4196.271l0.442-0.443c50.055-49.939,99.964-100.012,150.026-149.941l0.098-0.098
		c4.773,5.025,9.655,9.975,14.718,14.709v188.225h-112.352"/>
</g>
<path fill="#F8D834" d="M789.79,4248.438l-108.146,0.285c1.888-2.291,3.919-4.467,6.056-6.527
	c15.661-15.42,30.956-31.244,46.762-46.492"/>
<g>
	<path fill="#F8D834" d="M734.692,4303.65c-12.39-13.08-26.152-27.703-38.752-40.582c-4.774-4.891-10.165-9.211-14.383-14.631
		H789.79"/>
</g>
<g>
	<g>
		<path fill="#F62A1A" d="M1087.314,4248.723l-106.742,1.236c1.771-3.051,6.777-6.436,9.146-8.986
			c14.909-14.891,30.461-30.432,45.284-45.391"/>
	</g>
	<g>
		<path fill="#F62A1A" d="M978.966,4248.438l108.351,0.285c-1.771,3.051-4.659,5.197-7.028,7.748
			c-14.909,14.891-31.515,33.012-46.338,47.971"/>
	</g>
</g>
<g>
	<path fill="#60C2C2" d="M867.457,4062.092c5.814-5.564,11.107-11.705,17.327-16.826c50.023,50.15,100.205,100.146,150.22,150.316
		c-50.063,49.93-99.973,100.002-150.027,149.941c-16.161-15.824-32.082-31.91-48.109-47.879
		c-11.955-11.82-23.555-24.006-35.673-35.654c-15.16-15.324-30.379-30.57-45.724-45.713c-6.671-7.229-14.252-13.441-21.01-20.576
		c2.6-3.561,6.352-6.762,9.354-9.967C785.013,4144.518,826.24,4103.311,867.457,4062.092z"/>
</g>
<g>
	<path fill="#34AC90" d="M1033.949,4304.439l-0.327,0.318c-49.582,49.766-99.416,99.271-148.921,149.084l-0.106-0.096
		c-50.073-49.92-100.021-99.965-150.018-149.973l0.114-0.125c18.3-18.471,35.801-35.691,54.079-54.184l191.802,0.492"/>
	<path fill="#34AC90" d="M997.824,4268.527c2.089,2.654,5.197,4.293,7.17,7.074c2.031,3.107,5.757,4.496,7.738,7.643
		c2.004,3.119,5.556,4.717,7.653,7.758"/>
</g>
<g>
	<path fill="#3D9D2A" d="M1087.314,4248.723l112.353-0.285v190.188c-5.582,4.891-10.781,10.225-15.796,15.682
		c5.112,5.438,10.521,10.598,15.796,15.883v269.012c-4.871,4.959-9.885,9.781-14.718,14.768l-0.098,0.096
		c-50.015-50.168-100.194-100.166-150.22-150.314c-0.097-0.098-0.279-0.279-0.375-0.377c14.861-14.18,29.089-29.041,43.759-43.441
		c35.049-35.248,70.422-70.189,105.346-105.564c-1.867-3.158-5.017-5.236-7.471-7.883c-42.537-42.508-85.055-85.045-127.59-127.553
		c-4.938-4.678-9.299-9.992-14.68-14.17l0.327-0.316C1052.729,4285.844,1068.535,4267.318,1087.314,4248.723z"/>
</g>
<g>
	<path fill="#216058" d="M1033.622,4304.758c5.381,4.18,9.741,9.492,14.68,14.17c42.535,42.508,85.054,85.043,127.59,127.551
		c2.454,2.648,5.604,4.727,7.471,7.885c-34.923,35.375-70.298,70.316-105.346,105.564c-14.67,14.4-28.896,29.264-43.759,43.441
		c-49.91-49.773-99.732-99.654-149.557-149.527C934.206,4404.029,984.04,4354.523,1033.622,4304.758z"/>
</g>
<g>
	<path fill="#FF5252" d="M884.595,4453.746l0.106,0.098c49.822,49.871,99.646,99.752,149.557,149.525
		c0.096,0.098,0.278,0.279,0.375,0.377c-6.219,5.121-11.513,11.262-17.327,16.826c-41.217,41.217-82.443,82.426-123.644,123.645
		c-3.002,3.205-6.468,5.986-9.067,9.549c6.759,7.131,14.055,13.764,20.726,20.992c15.344,15.143,30.563,30.391,45.723,45.715
		c12.119,11.645,23.718,23.832,35.673,35.652c16.027,15.971,31.948,32.055,48.11,47.879l-0.442,0.441
		c-14.823,14.959-29.754,29.813-44.663,44.703c-2.369,2.551-5.257,4.697-7.027,7.748H786.874c-4.217-5.418-9.606-9.74-14.382-14.631
		c-12.6-12.879-25.644-25.307-38.031-38.389l-0.288-0.307c49.611-49.285,98.888-98.906,148.42-148.248
		c0.741-0.625,1.829-1.936,0.685-2.754c-44.761-44.73-89.491-89.49-134.251-134.23c-4.736-4.842-9.665-9.502-14.285-14.449
		c-0.125-0.135-0.386-0.414-0.521-0.549c1.84-0.645,3.063-2.203,4.39-3.533C787.249,4551.104,835.994,4502.492,884.595,4453.746z"/>
</g>
<g>
	<path fill="#FF1010" d="M584.693,4753.928c50.024-50.006,100.03-100.031,150.047-150.037c4.62,4.947,9.549,9.605,14.285,14.447
		c44.76,44.74,89.49,89.5,134.251,134.232c1.146,0.816,0.058,2.127-0.685,2.752c-49.533,49.344-98.809,98.965-148.42,148.248
		C684.445,4853.594,634.439,4803.896,584.693,4753.928z"/>
</g>
<g>
	<path fill="#F9D360" d="M1017.306,4620.572c5.814-5.564,11.108-11.705,17.327-16.826
		c50.024,50.148,100.205,100.146,150.221,150.314c-50.063,49.932-99.974,100.004-150.027,149.941
		c-16.162-15.824-32.083-31.908-48.11-47.879c-11.955-11.82-23.554-24.006-35.673-35.652c-15.16-15.324-30.379-30.572-45.723-45.715
		c-6.671-7.229-13.967-13.859-20.726-20.992c2.601-3.563,6.065-6.344,9.067-9.549
		C934.861,4702.998,976.089,4661.789,1017.306,4620.572z"/>
</g>
<g>
	<path fill="#F89113" d="M1184.854,4754.063l0.097-0.096c4.774,5.023,9.655,9.973,14.718,14.707v188.225h-112.352
		c-13.4-13.967-27.357-27.375-40.922-41.17c-4.031-3.734-7.448-8.162-12.012-11.281l0.442-0.443
		C1084.88,4854.064,1134.789,4803.992,1184.854,4754.063z"/>
</g>
<g>
	<path fill="#3F370C" d="M1184.854,4753.904c4.832-4.986,9.847-9.811,14.718-14.768v29.475
		C1194.508,4763.875,1189.627,4758.93,1184.854,4753.904z"/>
</g>
<g>
	<path fill="#22A9BB" d="M789.79,3540.262H679.537c18.279-18.49,36.799-36.742,55.098-55.213
		C752.962,3503.5,771.415,3521.848,789.79,3540.262z"/>
</g>
<g>
	<path fill="#7FC422" d="M1183.872,5161.266c5.014-5.459,10.213-10.791,15.795-15.682v31.563
		C1194.392,5171.861,1188.983,5166.703,1183.872,5161.266z"/>
</g>
<g>
	<g>
		<path fill="#61BC79" d="M1087.314,4955.709l-106.741,1.238c1.771-3.051,6.776-6.436,9.146-8.986
			c14.91-14.891,30.461-30.432,45.285-45.391"/>
	</g>
	<g>
		<path fill="#61BC79" d="M978.966,4955.426l108.351,0.285c-1.771,3.051-4.658,5.197-7.027,7.748
			c-14.91,14.893-31.516,33.014-46.338,47.973"/>
	</g>
</g>
<g>
	<path fill="#34AC90" d="M1033.95,5011.43l-0.328,0.316c-49.582,49.768-99.416,99.271-148.92,149.086l-0.107-0.098
		c-50.071-49.918-100.021-99.963-150.018-149.971l0.114-0.125c18.3-18.471,35.802-35.691,54.08-54.184l191.802,0.492"/>
	<path fill="#34AC90" d="M997.825,4975.516c2.088,2.658,5.196,4.293,7.17,7.076c2.031,3.107,5.756,4.494,7.737,7.643
		c2.005,3.119,5.556,4.717,7.654,7.758"/>
</g>
<g>
	<path fill="#FF1010" d="M1087.314,4955.709l112.353-0.283v190.188c-5.582,4.889-10.781,10.223-15.795,15.68
		c5.11,5.439,10.52,10.6,15.795,15.883v269.014c-4.871,4.957-9.885,9.779-14.717,14.766l-0.099,0.098
		c-50.014-50.17-100.194-100.166-150.219-150.316c-0.098-0.098-0.279-0.279-0.375-0.375c14.861-14.18,29.088-29.041,43.758-43.441
		c35.049-35.25,70.422-70.191,105.347-105.566c-1.867-3.156-5.017-5.234-7.472-7.883c-42.537-42.508-85.055-85.043-127.59-127.551
		c-4.938-4.678-9.299-9.992-14.68-14.17l0.328-0.316C1052.729,4992.832,1068.536,4974.309,1087.314,4955.709z"/>
</g>
<path fill="#F8D834" d="M658.417,5087.031c25.365-25.441,50.873-50.748,76.16-76.266c49.996,50.006,99.944,100.051,150.018,149.971
	c-48.6,48.746-97.346,97.355-145.983,146.061c-1.328,1.33-2.551,2.889-4.39,3.533c-49.774-49.977-99.801-99.713-149.557-149.709
	C609.403,5136.248,633.806,5111.527,658.417,5087.031z"/>
<g>
	<path fill="#5F4997" d="M584.694,5460.916c50.024-50.006,100.03-100.029,150.047-150.037c4.619,4.947,9.549,9.607,14.284,14.449
		c44.761,44.74,89.49,89.5,134.25,134.232c1.146,0.816,0.06,2.127-0.684,2.752c-49.533,49.342-98.809,98.963-148.42,148.248
		C684.446,5560.582,634.44,5510.883,584.694,5460.916z"/>
</g>
<g>
	<path fill="#F9D360" d="M1017.306,5327.561c5.814-5.564,11.109-11.705,17.328-16.826c50.023,50.15,100.205,100.146,150.22,150.316
		c-50.063,49.93-99.974,100.002-150.027,149.941c-16.162-15.826-32.082-31.91-48.109-47.879
		c-11.955-11.82-23.555-24.008-35.674-35.654c-15.16-15.324-30.379-30.572-45.723-45.713c-6.67-7.229-13.967-13.861-20.726-20.994
		c2.601-3.561,6.066-6.344,9.068-9.549C934.862,5409.986,976.089,5368.777,1017.306,5327.561z"/>
</g>
<g>
	<path fill="#F89113" d="M1034.825,5610.992L1034.825,5610.992c50.055-49.938,99.965-100.012,150.026-149.939l0.099-0.098
		c4.772,5.025,9.653,9.973,14.717,14.709v188.223h-109.988"/>
</g>
<g>
	<path fill="#3F370C" d="M1184.854,5460.893c4.834-4.986,9.848-9.809,14.719-14.766v29.475
		C1194.509,5470.865,1189.628,5465.916,1184.854,5460.893z"/>
</g>
<g>
	<path fill="#22A9BB" d="M679.538,5663.885H789.79c-18.279,18.492-36.799,36.742-55.099,55.215
		C716.366,5700.646,697.913,5682.299,679.538,5663.885z"/>
</g>
<g>
	<path fill="#FF5252" d="M1012.732,5698.693c2.005,3.119,5.556,4.717,7.654,7.758c1.887,2.889,5.246,4.285,7.267,7.057
		c1.731,2.463,3.928,4.523,6.297,6.381l-0.328,0.318c-49.582,49.766-99.416,99.271-148.92,149.086l-0.107-0.098
		c-50.071-49.92-100.021-99.963-150.018-149.971l0.114-0.125c18.3-18.473,36.818-36.723,55.099-55.213h189.176"/>
</g>
<g>
	<path fill="#81D0E1" d="M997.825,5683.977"/>
	<path fill="#81D0E1" d="M978.575,5663.885h111.494c-18.781,18.6-37.341,37.406-56.119,56.004c-2.369-1.857-4.564-3.918-6.297-6.383
		c-2.021-2.771-5.38-4.168-7.267-7.055c-2.1-3.043-5.649-4.641-7.654-7.758"/>
</g>
<g>
	<path fill="#3D9D2A" d="M1090.069,5663.885h109.598v190.188c-5.582,4.891-10.781,10.223-15.795,15.682
		c5.11,5.438,10.52,10.598,15.795,15.881v269.014c-4.871,4.959-9.885,9.779-14.717,14.766l-0.099,0.098
		c-50.014-50.17-100.194-100.166-150.219-150.316c-0.098-0.098-0.279-0.279-0.375-0.377c14.861-14.178,29.088-29.041,43.758-43.439
		c35.049-35.25,70.422-70.191,105.347-105.566c-1.867-3.158-5.017-5.236-7.472-7.883c-42.537-42.508-85.055-85.045-127.59-127.553
		c-4.938-4.678-9.299-9.992-14.68-14.168l0.328-0.318C1052.729,5701.293,1071.288,5682.484,1090.069,5663.885z"/>
</g>
<path fill="#3B2CFF" d="M658.417,5795.49c25.365-25.439,50.873-50.748,76.16-76.266c49.996,50.006,99.944,100.051,150.018,149.971
	c-48.6,48.746-97.346,97.355-145.983,146.063c-1.328,1.33-2.551,2.889-4.39,3.533c-49.774-49.979-99.801-99.713-149.557-149.709
	C609.403,5844.707,633.806,5819.988,658.417,5795.49z"/>
<g>
	<path fill="#216058" d="M1033.622,5720.207c5.381,4.178,9.742,9.49,14.68,14.168c42.535,42.508,85.054,85.045,127.59,127.553
		c2.455,2.646,5.604,4.727,7.472,7.883c-34.924,35.375-70.297,70.316-105.347,105.566c-14.67,14.398-28.896,29.262-43.758,43.439
		c-49.91-49.773-99.733-99.654-149.557-149.525C934.206,5819.479,984.04,5769.973,1033.622,5720.207z"/>
</g>
<g>
	<path fill="#7FC422" d="M1183.872,5869.754c5.014-5.459,10.213-10.791,15.795-15.682v31.563
		C1194.392,5880.352,1188.983,5875.191,1183.872,5869.754z"/>
</g>
<g>
	<path fill="#7FC422" d="M1183.872,6577.9c5.014-5.457,10.213-10.791,15.795-15.682v31.564
		C1194.392,6588.498,1188.983,6583.338,1183.872,6577.9z"/>
</g>
<g>
	<path fill="#F47C99" d="M734.462,6319.328l-0.289-0.309c49.611-49.283,98.888-98.904,148.42-148.248
		c0.742-0.625,1.83-1.936,0.685-2.752c-44.761-44.732-89.49-89.492-134.25-134.232c-4.736-4.842-9.666-9.5-14.285-14.449
		c-0.125-0.135-0.387-0.414-0.521-0.547c1.839-0.646,3.062-2.205,4.39-3.533c48.639-48.707,97.385-97.316,145.983-146.063
		l0.107,0.096c49.821,49.873,99.646,99.752,149.557,149.527c0.097,0.098,0.277,0.279,0.375,0.377
		c-6.219,5.121-11.514,11.262-17.328,16.826c-41.217,41.217-82.442,82.426-123.643,123.643c-3.002,3.205-6.469,5.988-9.068,9.549
		c6.759,7.133,14.056,13.766,20.726,20.994c15.344,15.143,30.563,30.391,45.723,45.713c12.119,11.648,23.719,23.834,35.674,35.654
		c16.027,15.969,31.947,32.055,48.109,47.879l-0.441,0.441c-14.824,14.959-29.754,29.813-44.664,44.703
		c-2.369,2.551-5.256,4.697-7.026,7.75l-192.902-0.285"/>
</g>
<g>
	<path fill="#9449A0" d="M584.694,6169.375c50.024-50.006,100.03-100.029,150.047-150.037c4.619,4.947,9.549,9.605,14.284,14.447
		c44.761,44.742,89.49,89.5,134.25,134.232c1.146,0.818,0.06,2.127-0.684,2.754c-49.533,49.342-98.52,99.27-148.131,148.555
		C684.733,6269.35,634.44,6219.344,584.694,6169.375z"/>
</g>
<g>
	<path fill="#3F370C" d="M1184.95,6169.414c4.832-4.984,9.846-9.809,14.717-14.766v29.475
		C1194.604,6179.387,1189.724,6174.439,1184.95,6169.414z"/>
</g>
<g>
	<path fill="#F89113" d="M1034.384,6319.895l0.441-0.441c50.055-49.939,99.965-100.012,150.026-149.941l0.099-0.096
		c4.772,5.023,9.654,9.973,14.717,14.707v188.225h-112.352"/>
</g>
<path fill="#F8D834" d="M789.79,6372.063l-108.146,0.285c1.888-2.291,3.918-4.467,6.056-6.527
	c15.66-15.42,30.955-31.246,46.762-46.492"/>
<g>
	<path fill="#F8D834" d="M734.692,6427.275c-12.39-13.08-26.152-27.703-38.752-40.582c-4.773-4.891-10.164-9.211-14.382-14.631
		h108.23"/>
</g>
<g>
	<g>
		<path fill="#F62A1A" d="M1087.314,6372.346l-106.741,1.236c1.771-3.051,6.776-6.434,9.146-8.984
			c14.91-14.893,30.461-30.434,45.285-45.393"/>
	</g>
	<g>
		<path fill="#F62A1A" d="M978.966,6372.063l108.351,0.285c-1.771,3.051-4.658,5.197-7.027,7.748
			c-14.91,14.891-31.516,33.012-46.338,47.971"/>
	</g>
</g>
<g>
	<path fill="#60C2C2" d="M867.458,6185.715c5.813-5.563,11.106-11.705,17.326-16.826c50.024,50.15,100.205,100.148,150.221,150.316
		c-50.063,49.93-99.973,100.004-150.026,149.941c-16.162-15.826-32.084-31.91-48.111-47.879
		c-11.955-11.82-23.553-24.006-35.672-35.652c-15.16-15.324-30.379-30.572-45.724-45.713c-6.672-7.23-14.252-13.443-21.01-20.576
		c2.601-3.563,6.351-6.762,9.353-9.967C785.013,6268.143,826.241,6226.934,867.458,6185.715z"/>
</g>
<g>
	<path fill="#34AC90" d="M1033.95,6428.064l-0.328,0.318c-49.582,49.766-99.416,99.271-148.92,149.084l-0.107-0.096
		c-50.071-49.92-100.021-99.965-150.018-149.971l0.114-0.125c18.3-18.473,35.802-35.691,54.08-54.184l191.802,0.49"/>
	<path fill="#34AC90" d="M997.825,6392.152c2.088,2.654,5.196,4.293,7.17,7.074c2.031,3.109,5.756,4.496,7.737,7.643
		c2.005,3.119,5.556,4.717,7.654,7.758"/>
</g>
<path fill="#F8D834" d="M658.417,6503.666c25.365-25.439,50.873-50.746,76.16-76.264c49.996,50.006,99.944,100.051,150.018,149.969
	c-48.6,48.746-97.346,97.355-145.983,146.063c-1.328,1.33-2.551,2.889-4.39,3.533c-49.774-49.979-99.801-99.713-149.557-149.711
	C609.403,6552.883,633.806,6528.164,658.417,6503.666z"/>
<g>
	<path fill="#216058" d="M1033.622,6428.383c5.381,4.178,9.742,9.49,14.68,14.168c42.535,42.508,85.054,85.045,127.59,127.553
		c2.455,2.646,5.604,4.727,7.472,7.883c-34.924,35.375-70.297,70.316-105.347,105.566c-14.67,14.398-28.896,29.262-43.758,43.439
		c-49.91-49.773-99.733-99.654-149.557-149.525C934.206,6527.654,984.04,6478.148,1033.622,6428.383z"/>
</g>
<g>
	<path fill="#F47C99" d="M884.595,6577.371l0.107,0.098c49.821,49.871,99.646,99.752,149.557,149.525
		c0.097,0.098,0.277,0.279,0.375,0.377c-6.219,5.121-11.514,11.262-17.328,16.826c-41.217,41.217-82.442,82.426-123.643,123.645
		c-3.002,3.205-6.469,5.986-9.068,9.549c6.759,7.131,14.056,13.764,20.726,20.994c15.344,15.141,30.563,30.389,45.723,45.713
		c12.119,11.646,23.719,23.832,35.674,35.652c16.027,15.971,31.947,32.055,48.109,47.879l-0.441,0.443
		c-14.824,14.957-29.754,29.811-44.664,44.703c-2.369,2.551-5.256,4.695-7.026,7.748h-195.82c-4.217-5.418-9.606-9.74-14.381-14.631
		c-12.601-12.879-25.644-25.307-38.031-38.389l-0.289-0.307c49.611-49.285,98.888-98.906,148.42-148.248
		c0.742-0.625,1.83-1.936,0.685-2.754c-44.76-44.73-89.49-89.49-134.25-134.232c-4.736-4.842-9.666-9.5-14.285-14.447
		c-0.125-0.135-0.387-0.414-0.521-0.549c1.839-0.645,3.062-2.205,4.39-3.533C787.249,6674.727,835.995,6626.117,884.595,6577.371z"
		/>
</g>
<g>
	<path fill="#9449A0" d="M584.694,6877.553c50.024-50.006,100.03-100.031,150.047-150.039c4.619,4.949,9.549,9.607,14.284,14.449
		c44.761,44.74,89.49,89.5,134.25,134.232c1.146,0.816,0.06,2.127-0.684,2.752c-49.533,49.342-98.809,98.963-148.42,148.248
		C684.446,6977.219,634.44,6927.52,584.694,6877.553z"/>
</g>
<g>
	<path fill="#F9D360" d="M1017.306,6744.197c5.814-5.564,11.109-11.705,17.328-16.826c50.023,50.148,100.205,100.146,150.22,150.314
		c-50.063,49.93-99.974,100.002-150.027,149.941c-16.162-15.824-32.082-31.908-48.109-47.877
		c-11.955-11.822-23.555-24.008-35.674-35.654c-15.16-15.324-30.379-30.572-45.723-45.713c-6.67-7.229-13.967-13.861-20.726-20.994
		c2.601-3.563,6.066-6.344,9.068-9.549C934.862,6826.623,976.089,6785.414,1017.306,6744.197z"/>
</g>
<g>
	<path fill="#F89113" d="M1184.854,6877.688l0.098-0.096c4.772,5.023,9.654,9.973,14.717,14.707v188.225h-112.352
		c-13.4-13.967-27.357-27.375-40.92-41.17c-4.033-3.734-7.449-8.162-12.013-11.281l0.441-0.443
		C1084.88,6977.689,1134.79,6927.617,1184.854,6877.688z"/>
</g>
<g>
	<path fill="#3F370C" d="M1184.854,6877.529c4.834-4.986,9.848-9.811,14.719-14.768v29.475
		C1194.509,6887.5,1189.628,6882.553,1184.854,6877.529z"/>
</g>
<path fill="#81D0E1" d="M1090.069,5663.885H978.575c22.965-21.551,36.176-34.219,56.25-52.893"/>
<g>
	<path fill="#22A9BB" d="M789.79,5663.885H679.538c18.279-18.49,36.799-36.742,55.098-55.213
		C752.962,5627.125,771.415,5645.473,789.79,5663.885z"/>
</g>
<g>
	<path fill="#7FC422" d="M1183.872,7284.889c5.014-5.457,10.213-10.789,15.795-15.68v31.563
		C1194.392,7295.486,1188.983,7290.328,1183.872,7284.889z"/>
</g>
<g>
	<path fill="#E68FC5" d="M789.79,7079.051l-108.146,0.283c1.888-2.291,3.918-4.467,6.056-6.525
		c15.66-15.42,30.955-31.246,46.762-46.492"/>
	<g>
		<path fill="#E68FC5" d="M734.692,7134.266c-12.39-13.082-26.152-27.703-38.752-40.582c-4.773-4.893-10.164-9.213-14.382-14.633
			h108.23"/>
	</g>
</g>
<g>
	<path fill="#34AC90" d="M1033.95,7135.055l-0.328,0.316c-49.582,49.766-99.416,99.271-148.92,149.084l-0.107-0.096
		c-50.071-49.918-100.021-99.963-150.018-149.971l0.114-0.125c18.3-18.471,35.802-35.691,54.08-54.184l191.802,0.49"/>
	<path fill="#34AC90" d="M997.825,7099.141c2.088,2.658,5.196,4.293,7.17,7.076c2.031,3.107,5.756,4.494,7.737,7.643
		c2.005,3.119,5.556,4.715,7.654,7.758"/>
</g>
<g>
	<path fill="#3D9D2A" d="M1087.314,7079.334l112.353-0.283v190.188c-5.582,4.889-10.781,10.223-15.795,15.68
		c5.11,5.438,10.52,10.598,15.795,15.883v269.014c-4.871,4.957-9.885,9.779-14.717,14.766l-0.099,0.096
		c-50.014-50.17-100.194-100.166-150.219-150.316c-0.098-0.096-0.279-0.277-0.375-0.375c14.861-14.18,29.088-29.041,43.758-43.441
		c35.049-35.25,70.422-70.191,105.347-105.566c-1.867-3.158-5.017-5.234-7.472-7.883c-42.537-42.508-85.055-85.043-127.59-127.551
		c-4.938-4.68-9.299-9.992-14.68-14.17l0.328-0.316C1052.729,7116.457,1068.536,7097.932,1087.314,7079.334z"/>
</g>
<g>
	<path fill="#216058" d="M1033.622,7135.371c5.381,4.178,9.742,9.492,14.68,14.17c42.535,42.508,85.054,85.043,127.59,127.551
		c2.455,2.648,5.604,4.727,7.472,7.883c-34.924,35.375-70.297,70.316-105.347,105.566c-14.67,14.4-28.896,29.264-43.758,43.441
		c-49.91-49.775-99.733-99.656-149.557-149.527C934.206,7234.643,984.04,7185.137,1033.622,7135.371z"/>
</g>
<g>
	<path fill="#FF5252" d="M978.575,7787.51H786.874c-4.217-5.418-9.606-9.74-14.381-14.631
		c-12.601-12.879-25.644-25.305-38.031-38.387l-0.289-0.309c49.611-49.285,98.888-98.904,148.42-148.248
		c0.742-0.625,1.83-1.934,0.685-2.752c-44.76-44.73-89.49-89.492-134.25-134.232c-4.736-4.84-9.666-9.5-14.285-14.447
		c-0.125-0.135-0.387-0.414-0.521-0.549c1.839-0.646,3.062-2.205,4.39-3.533c48.639-48.705,97.385-97.316,145.983-146.063
		l0.107,0.098c49.822,49.871,99.646,99.752,149.557,149.525c0.097,0.098,0.277,0.279,0.375,0.377
		c-6.219,5.119-11.514,11.262-17.328,16.826c-41.217,41.217-82.442,82.424-123.643,123.643c-3.002,3.207-6.469,5.986-9.068,9.549
		c6.759,7.133,14.056,13.766,20.726,20.994c15.344,15.143,30.563,30.389,45.723,45.713c12.119,11.646,23.719,23.834,35.674,35.654
		c16.027,15.969,31.947,32.055,48.109,47.877l-0.441,0.443"/>
</g>
<g>
	<path fill="#5F4997" d="M584.694,7584.541c50.024-50.006,100.03-100.029,150.047-150.037c4.619,4.947,9.549,9.605,14.284,14.447
		c44.761,44.742,89.49,89.502,134.25,134.232c1.146,0.818,0.06,2.127-0.684,2.754c-49.533,49.342-98.809,98.963-148.42,148.246
		C684.446,7684.207,634.44,7634.508,584.694,7584.541z"/>
</g>
<g>
	<path fill="#F89113" d="M1034.825,7734.617L1034.825,7734.617c50.055-49.938,99.965-100.012,150.026-149.941l0.099-0.096
		c4.772,5.023,9.653,9.973,14.717,14.707v188.225h-109.988"/>
</g>
<g>
	<path fill="#3F370C" d="M1184.854,7584.518c4.834-4.986,9.848-9.811,14.719-14.768v29.475
		C1194.509,7594.49,1189.628,7589.541,1184.854,7584.518z"/>
</g>
<g>
	<path fill="#22A9BB" d="M679.538,7787.51H789.79c-18.279,18.492-36.799,36.742-55.099,55.215
		C716.366,7824.271,697.913,7805.924,679.538,7787.51z"/>
</g>
<g>
	<path fill="#8DAA35" d="M1012.732,7822.318c2.005,3.119,5.556,4.715,7.654,7.758c1.887,2.887,5.246,4.283,7.267,7.055
		c1.731,2.465,3.928,4.525,6.297,6.383l-0.328,0.316c-49.582,49.766-99.416,99.271-148.92,149.086l-0.107-0.098
		c-50.071-49.92-100.021-99.965-150.018-149.971l0.114-0.125c18.3-18.473,36.818-36.723,55.099-55.213h189.176"/>
</g>
<g>
	<path fill="#81D0E1" d="M997.825,7807.6"/>
	<path fill="#81D0E1" d="M978.575,7787.51h111.494c-18.781,18.598-37.341,37.406-56.119,56.004
		c-2.369-1.857-4.564-3.918-6.297-6.383c-2.021-2.771-5.38-4.168-7.267-7.055c-2.1-3.043-5.649-4.641-7.654-7.758"/>
</g>
<path fill="#F8D834" d="M658.417,7919.115c25.365-25.439,50.873-50.748,76.16-76.266c49.996,50.006,99.944,100.051,150.018,149.971
	c-48.6,48.744-97.346,97.355-145.983,146.063c-1.328,1.328-2.551,2.889-4.39,3.533c-49.774-49.979-99.801-99.715-149.557-149.711
	C609.403,7968.332,633.806,7943.611,658.417,7919.115z"/>
<g>
	<path fill="#216058" d="M1033.622,7843.832c5.381,4.178,9.742,9.49,14.68,14.17c42.535,42.506,85.054,85.043,127.59,127.551
		c2.455,2.646,5.604,4.727,7.472,7.883c-34.924,35.375-70.297,70.316-105.347,105.566c-14.67,14.4-28.896,29.262-43.758,43.441
		c-49.91-49.775-99.733-99.656-149.557-149.527C934.206,7943.104,984.04,7893.598,1033.622,7843.832z"/>
</g>
<g>
	<path fill="#7FC422" d="M1183.872,7993.377c5.014-5.457,10.213-10.789,15.795-15.68v31.563
		C1194.392,8003.977,1188.983,7998.816,1183.872,7993.377z"/>
</g>
<g>
	<path fill="#7FC422" d="M1183.872,8701.525c5.014-5.457,10.213-10.791,15.795-15.68v31.564
		C1194.392,8712.123,1188.983,8706.963,1183.872,8701.525z"/>
</g>
<g>
	<path fill="#9449A0" d="M584.694,8293c50.024-50.006,100.03-100.031,150.047-150.037c4.619,4.947,9.549,9.605,14.284,14.447
		c44.761,44.742,89.49,89.502,134.25,134.232c1.146,0.818,0.06,2.127-0.684,2.754c-49.533,49.342-98.52,99.27-148.131,148.555
		C684.733,8392.975,634.44,8342.967,584.694,8293z"/>
</g>
<g>
	<path fill="#F9D360" d="M1017.306,8159.646c5.814-5.564,11.109-11.705,17.328-16.826c50.023,50.148,100.205,100.145,150.22,150.314
		c-50.063,49.93-99.974,100.002-150.027,149.941c-16.162-15.824-32.082-31.91-48.109-47.879
		c-11.955-11.82-23.555-24.006-35.674-35.654c-15.16-15.324-30.379-30.57-45.723-45.713c-6.67-7.229-13.967-13.861-20.726-20.994
		c2.601-3.561,6.066-6.344,9.068-9.549C934.862,8242.07,976.089,8200.861,1017.306,8159.646z"/>
</g>
<g>
	<path fill="#3F370C" d="M1184.95,8293.039c4.832-4.986,9.846-9.809,14.717-14.766v29.473
		C1194.604,8303.012,1189.724,8298.064,1184.95,8293.039z"/>
</g>
<g>
	<path fill="#F89113" d="M1034.384,8443.52l0.441-0.443c50.055-49.939,99.965-100.012,150.026-149.941l0.099-0.096
		c4.772,5.023,9.654,9.973,14.717,14.707v188.225h-112.352"/>
</g>
<path fill="#F8D834" d="M789.79,8495.686l-108.146,0.285c1.888-2.291,3.918-4.467,6.056-6.527
	c15.66-15.42,30.955-31.244,46.762-46.492"/>
<g>
	<path fill="#60C2C2" d="M867.458,8309.34c5.813-5.563,11.106-11.705,17.326-16.826c50.024,50.15,100.205,100.148,150.221,150.316
		c-50.063,49.93-99.973,100.004-150.026,149.941c-16.162-15.824-32.084-31.908-48.111-47.877
		c-11.955-11.822-23.553-24.008-35.672-35.654c-15.16-15.324-30.379-30.572-45.724-45.715c-6.672-7.229-14.252-13.441-21.01-20.574
		c2.601-3.563,6.351-6.762,9.353-9.967C785.013,8391.766,826.241,8350.559,867.458,8309.34z"/>
</g>
<g>
	<path fill="#34AC90" d="M1033.95,8551.689l-0.328,0.318c-49.582,49.764-99.416,99.273-148.92,149.084l-0.107-0.096
		c-50.071-49.92-100.021-99.965-150.018-149.971l0.114-0.125c18.3-18.473,35.802-35.693,54.08-54.184l191.802,0.49"/>
	<path fill="#34AC90" d="M997.825,8515.775c2.088,2.656,5.196,4.293,7.17,7.074c2.031,3.109,5.756,4.496,7.737,7.645
		c2.005,3.117,5.556,4.717,7.654,7.758"/>
</g>
<g>
	<path fill="#3B2CFF" d="M1087.314,8495.971l112.353-0.285v190.189c-5.582,4.889-10.781,10.223-15.795,15.68
		c5.11,5.439,10.52,10.598,15.795,15.883v269.012c-4.871,4.959-9.885,9.781-14.717,14.768l-0.099,0.096
		c-50.014-50.17-100.194-100.166-150.219-150.316c-0.098-0.098-0.279-0.279-0.375-0.377c14.861-14.178,29.088-29.041,43.758-43.441
		c35.049-35.248,70.422-70.189,105.347-105.564c-1.867-3.158-5.017-5.236-7.472-7.885c-42.537-42.508-85.055-85.045-127.59-127.553
		c-4.938-4.678-9.299-9.99-14.68-14.168l0.328-0.318C1052.729,8533.092,1068.536,8514.568,1087.314,8495.971z"/>
</g>
<path fill="#F8D834" d="M658.417,8627.293c25.365-25.443,50.873-50.75,76.16-76.268c49.996,50.006,99.944,100.051,150.018,149.971
	c-48.6,48.746-97.346,97.355-145.983,146.063c-1.328,1.328-2.551,2.887-4.39,3.535c-49.774-49.98-99.801-99.715-149.557-149.711
	C609.403,8676.508,633.806,8651.789,658.417,8627.293z"/>
<g>
	<path fill="#216058" d="M1033.622,8552.008c5.381,4.178,9.742,9.49,14.68,14.168c42.535,42.508,85.054,85.045,127.59,127.553
		c2.455,2.648,5.604,4.727,7.472,7.885c-34.924,35.375-70.297,70.316-105.347,105.564c-14.67,14.4-28.896,29.264-43.758,43.441
		c-49.91-49.773-99.733-99.654-149.557-149.527C934.206,8651.279,984.04,8601.771,1033.622,8552.008z"/>
</g>
<g>
	<path fill="#F02D94" d="M884.595,8700.996l0.107,0.096c49.821,49.873,99.646,99.754,149.557,149.527
		c0.097,0.098,0.277,0.279,0.375,0.377c-6.219,5.121-11.514,11.262-17.328,16.826c-41.217,41.217-82.442,82.426-123.643,123.643
		c-3.002,3.205-6.469,5.988-9.068,9.549c6.759,7.133,14.056,13.766,20.726,20.994c15.344,15.141,30.563,30.389,45.723,45.713
		c12.119,11.646,23.719,23.834,35.674,35.654c16.027,15.969,31.947,32.053,48.109,47.879l-0.441,0.441
		c-14.824,14.959-29.754,29.813-44.664,44.703c-2.369,2.551-5.256,4.697-7.026,7.748h-195.82c-4.217-5.418-9.606-9.74-14.381-14.631
		c-12.601-12.879-25.644-25.307-38.031-38.387l-0.289-0.309c49.611-49.283,98.888-98.904,148.42-148.248
		c0.742-0.625,1.83-1.934,0.685-2.752c-44.76-44.732-89.49-89.492-134.25-134.232c-4.736-4.842-9.666-9.5-14.285-14.447
		c-0.125-0.135-0.387-0.414-0.521-0.549c1.839-0.646,3.062-2.205,4.39-3.533C787.249,8798.352,835.995,8749.742,884.595,8700.996z"
		/>
</g>
<g>
	<path fill="#9449A0" d="M584.694,9001.178c50.024-50.006,100.03-100.031,150.047-150.037c4.619,4.947,9.549,9.605,14.284,14.447
		c44.761,44.74,89.49,89.5,134.25,134.232c1.146,0.818,0.06,2.127-0.684,2.752c-49.533,49.344-98.809,98.965-148.42,148.248
		C684.446,9100.844,634.44,9051.145,584.694,9001.178z"/>
</g>
<g>
	<path fill="#F9D360" d="M1017.306,8867.822c5.814-5.564,11.109-11.705,17.328-16.826c50.023,50.15,100.205,100.146,150.22,150.316
		c-50.063,49.93-99.974,100.002-150.027,149.941c-16.162-15.826-32.082-31.91-48.109-47.879
		c-11.955-11.82-23.555-24.008-35.674-35.654c-15.16-15.324-30.379-30.572-45.723-45.713c-6.67-7.229-13.967-13.861-20.726-20.994
		c2.601-3.561,6.066-6.344,9.068-9.549C934.862,8950.248,976.089,8909.039,1017.306,8867.822z"/>
</g>
<g>
	<path fill="#F89113" d="M1184.854,9001.313l0.098-0.096c4.772,5.023,9.654,9.971,14.717,14.707v188.223h-112.352
		c-13.4-13.967-27.357-27.375-40.92-41.168c-4.033-3.736-7.449-8.164-12.013-11.283l0.441-0.441
		C1084.88,9101.314,1134.79,9051.242,1184.854,9001.313z"/>
</g>
<g>
	<path fill="#3F370C" d="M1184.854,9001.154c4.834-4.986,9.848-9.809,14.719-14.768v29.475
		C1194.509,9011.125,1189.628,9006.178,1184.854,9001.154z"/>
</g>
<path fill="#81D0E1" d="M1090.069,7787.51H978.575c22.965-21.553,36.176-34.219,56.25-52.893"/>
<g>
	<path fill="#22A9BB" d="M789.79,7787.51H679.538c18.279-18.49,36.799-36.742,55.098-55.213
		C752.962,7750.75,771.415,7769.098,789.79,7787.51z"/>
</g>
<g>
	<path fill="#7FC422" d="M1183.87,9407.949c5.016-5.459,10.215-10.793,15.797-15.684v31.564
		C1194.392,9418.547,1188.983,9413.387,1183.87,9407.949z"/>
</g>
<g>
	<path fill="#E68FC5" d="M789.79,9202.109l-108.146,0.285c1.888-2.293,3.919-4.469,6.056-6.527
		c15.662-15.422,30.957-31.246,46.762-46.492"/>
	<g>
		<path fill="#E68FC5" d="M734.692,9257.324c-12.39-13.082-26.152-27.703-38.752-40.582c-4.775-4.891-10.166-9.215-14.384-14.633
			H789.79"/>
	</g>
</g>
<g>
	<g>
		<path fill="#61BC79" d="M1087.314,9202.395l-106.743,1.234c1.771-3.051,6.778-6.434,9.147-8.984
			c14.908-14.891,30.461-30.432,45.283-45.391"/>
	</g>
	<g>
		<path fill="#61BC79" d="M978.966,9202.109l108.351,0.285c-1.771,3.051-4.66,5.195-7.029,7.746
			c-14.908,14.893-31.514,33.014-46.338,47.973"/>
	</g>
</g>
<g>
	<path fill="#34AC90" d="M1033.948,9258.113l-0.326,0.316c-49.582,49.766-99.416,99.273-148.922,149.086l-0.105-0.098
		c-50.073-49.918-100.021-99.965-150.018-149.969l0.114-0.125c18.3-18.473,35.8-35.695,54.078-54.184l191.802,0.488"/>
	<path fill="#34AC90" d="M997.823,9222.199c2.09,2.656,5.196,4.293,7.17,7.074c2.033,3.109,5.758,4.496,7.739,7.645
		c2.003,3.117,5.556,4.715,7.652,7.758"/>
</g>
<g>
	<path fill="#3D9D2A" d="M1087.314,9202.395l112.353-0.285v190.188c-5.582,4.891-10.781,10.223-15.797,15.682
		c5.113,5.439,10.521,10.598,15.797,15.883v269.012c-4.871,4.959-9.885,9.779-14.719,14.768l-0.097,0.094
		c-50.016-50.168-100.194-100.164-150.221-150.316c-0.096-0.096-0.279-0.277-0.375-0.375c14.861-14.18,29.09-29.041,43.76-43.441
		c35.048-35.25,70.423-70.191,105.345-105.566c-1.867-3.156-5.017-5.236-7.47-7.883c-42.536-42.508-85.055-85.043-127.59-127.551
		c-4.938-4.68-9.299-9.992-14.68-14.17l0.326-0.318C1052.729,9239.516,1068.534,9220.992,1087.314,9202.395z"/>
</g>
<g>
	<path fill="#216058" d="M1033.622,9258.43c5.381,4.18,9.74,9.492,14.68,14.17c42.535,42.508,85.054,85.045,127.59,127.553
		c2.453,2.645,5.603,4.727,7.47,7.883c-34.922,35.375-70.297,70.316-105.345,105.566c-14.67,14.398-28.897,29.262-43.76,43.441
		c-49.91-49.775-99.731-99.656-149.557-149.527C934.206,9357.703,984.04,9308.195,1033.622,9258.43z"/>
</g>
<g>
	<path fill="#F9AC3D" d="M978.575,9910.57H786.874c-4.217-5.42-9.606-9.742-14.383-14.633
		c-12.601-12.879-25.644-25.305-38.031-38.387l-0.287-0.309c49.611-49.285,98.888-98.906,148.42-148.246
		c0.74-0.625,1.828-1.936,0.685-2.754c-44.76-44.73-89.492-89.492-134.252-134.23c-4.736-4.844-9.664-9.502-14.285-14.449
		c-0.125-0.137-0.385-0.414-0.521-0.549c1.841-0.646,3.063-2.205,4.39-3.533c48.641-48.707,97.385-97.316,145.985-146.063
		l0.105,0.098c49.823,49.871,99.646,99.752,149.557,149.527c0.096,0.096,0.279,0.277,0.375,0.375
		c-6.219,5.121-11.512,11.262-17.326,16.826c-41.217,41.217-82.444,82.424-123.645,123.643c-3.002,3.207-6.467,5.988-9.066,9.551
		c6.759,7.131,14.054,13.764,20.726,20.992c15.344,15.141,30.563,30.391,45.723,45.715c12.119,11.645,23.717,23.832,35.672,35.652
		c16.027,15.969,31.949,32.055,48.111,47.879l-0.443,0.441"/>
</g>
<g>
	<path fill="#5F4997" d="M584.692,9707.6c50.024-50.006,100.03-100.031,150.047-150.037c4.621,4.947,9.549,9.605,14.284,14.449
		c44.761,44.738,89.492,89.5,134.253,134.23c1.145,0.818,0.057,2.129-0.685,2.754c-49.533,49.34-98.809,98.961-148.42,148.246
		C684.444,9807.266,634.438,9757.566,584.692,9707.6z"/>
</g>
<g>
	<path fill="#F89113" d="M1034.825,9857.676L1034.825,9857.676c50.055-49.938,99.963-100.012,150.026-149.941l0.097-0.096
		c4.774,5.025,9.655,9.971,14.719,14.709v188.223h-109.99"/>
</g>
<g>
	<path fill="#3F370C" d="M1184.854,9707.574c4.832-4.984,9.846-9.809,14.717-14.766v29.477
		C1194.507,9717.547,1189.626,9712.602,1184.854,9707.574z"/>
</g>
<g>
	<path fill="#22A9BB" d="M679.536,9910.57H789.79c-18.279,18.49-36.799,36.742-55.099,55.213
		C716.364,9947.332,697.911,9928.984,679.536,9910.57z"/>
</g>
<g>
	<path fill="#8DAA35" d="M1012.732,9945.377c2.003,3.119,5.556,4.717,7.652,7.758c1.887,2.889,5.246,4.283,7.269,7.057
		c1.731,2.465,3.928,4.523,6.295,6.381l-0.326,0.318c-49.582,49.766-99.416,99.27-148.922,149.086l-0.105-0.098
		c-50.073-49.92-100.021-99.965-150.018-149.971l0.114-0.125c18.3-18.471,36.818-36.723,55.099-55.213h189.176"/>
</g>
<g>
	<path fill="#81D0E1" d="M997.823,9930.66"/>
	<path fill="#81D0E1" d="M978.575,9910.57h111.492c-18.779,18.598-37.341,37.406-56.119,56.002
		c-2.367-1.857-4.563-3.916-6.295-6.381c-2.021-2.773-5.382-4.168-7.269-7.057c-2.098-3.041-5.65-4.639-7.652-7.758"/>
</g>
<path fill="#F8D834" d="M658.417,10042.174c25.365-25.439,50.873-50.748,76.16-76.266c49.996,50.006,99.942,100.051,150.018,149.971
	c-48.602,48.746-97.346,97.355-145.985,146.063c-1.326,1.328-2.549,2.887-4.39,3.531c-49.774-49.977-99.801-99.715-149.557-149.711
	C609.401,10091.391,633.804,10066.672,658.417,10042.174z"/>
<g>
	<path fill="#F9AC3D" d="M1033.622,9966.891c5.381,4.176,9.74,9.492,14.68,14.168c42.535,42.508,85.054,85.045,127.59,127.553
		c2.453,2.646,5.603,4.725,7.47,7.885c-34.922,35.375-70.297,70.316-105.345,105.566c-14.67,14.398-28.897,29.262-43.76,43.439
		c-49.91-49.775-99.731-99.654-149.557-149.525C934.206,10066.16,984.04,10016.656,1033.622,9966.891z"/>
</g>
<g>
	<path fill="#7FC422" d="M1183.87,10116.438c5.016-5.457,10.215-10.791,15.797-15.68v31.563
		C1194.392,10127.035,1188.983,10121.875,1183.87,10116.438z"/>
</g>
<g>
	<path fill="#7FC422" d="M1183.87,10824.584c5.016-5.459,10.215-10.791,15.797-15.682v31.564
		C1194.392,10835.182,1188.983,10830.023,1183.87,10824.584z"/>
</g>
<g>
	<path fill="#9449A0" d="M584.692,10416.059c50.024-50.004,100.03-100.031,150.047-150.035c4.621,4.945,9.549,9.605,14.284,14.445
		c44.761,44.742,89.492,89.502,134.253,134.234c1.145,0.816,0.057,2.125-0.685,2.752c-49.533,49.342-98.521,99.271-148.133,148.557
		C684.733,10516.033,634.438,10466.027,584.692,10416.059z"/>
</g>
<g>
	<path fill="#F9D360" d="M1017.306,10282.703c5.814-5.563,11.107-11.703,17.326-16.824
		c50.025,50.148,100.205,100.145,150.222,150.316c-50.064,49.93-99.974,100-150.027,149.941
		c-16.162-15.826-32.084-31.91-48.111-47.879c-11.955-11.82-23.553-24.008-35.672-35.656c-15.16-15.324-30.379-30.57-45.723-45.711
		c-6.672-7.23-13.967-13.863-20.726-20.996c2.601-3.559,6.064-6.344,9.066-9.547
		C934.86,10365.129,976.089,10323.922,1017.306,10282.703z"/>
</g>
<g>
	<path fill="#3F370C" d="M1184.948,10416.098c4.834-4.984,9.848-9.809,14.719-14.766v29.473
		C1194.604,10426.07,1189.724,10421.121,1184.948,10416.098z"/>
</g>
<path fill="#F8D834" d="M789.79,10618.746l-108.146,0.283c1.888-2.291,3.919-4.467,6.056-6.525
	c15.662-15.422,30.957-31.246,46.762-46.492"/>
<g>
	<path fill="#F8D834" d="M734.692,10673.959c-12.39-13.08-26.152-27.701-38.752-40.582c-4.775-4.889-10.166-9.213-14.384-14.631
		H789.79"/>
</g>
<g>
	<g>
		<path fill="#F62A1A" d="M1087.314,10619.029l-106.743,1.236c1.771-3.051,6.778-6.434,9.147-8.984
			c14.908-14.891,30.461-30.434,45.283-45.391"/>
	</g>
	<g>
		<path fill="#F62A1A" d="M978.966,10618.746l108.351,0.283c-1.771,3.053-4.66,5.197-7.029,7.748
			c-14.908,14.891-31.514,33.012-46.338,47.973"/>
	</g>
</g>
<g>
	<path fill="#60C2C2" d="M867.456,10432.398c5.813-5.563,11.108-11.703,17.328-16.824
		c50.022,50.148,100.205,100.146,150.219,150.316c-50.063,49.93-99.973,100.004-150.027,149.941
		c-16.161-15.824-32.082-31.91-48.108-47.879c-11.955-11.82-23.555-24.008-35.674-35.654c-15.16-15.324-30.379-30.572-45.724-45.713
		c-6.67-7.23-14.252-13.441-21.01-20.574c2.6-3.564,6.352-6.762,9.354-9.969C785.013,10514.824,826.239,10473.617,867.456,10432.398
		z"/>
</g>
<g>
	<path fill="#34AC90" d="M1033.948,10674.75l-0.326,0.316c-49.582,49.766-99.416,99.271-148.922,149.086l-0.105-0.098
		c-50.073-49.918-100.021-99.965-150.018-149.969l0.114-0.127c18.3-18.471,35.8-35.693,54.078-54.184l191.802,0.49"/>
	<path fill="#34AC90" d="M997.823,10638.836c2.09,2.656,5.196,4.293,7.17,7.074c2.033,3.109,5.758,4.496,7.739,7.643
		c2.003,3.119,5.556,4.717,7.652,7.76"/>
</g>
<g>
	<path fill="#3D9D2A" d="M1087.314,10619.029l112.353-0.283v190.188c-5.582,4.891-10.781,10.223-15.797,15.68
		c5.113,5.439,10.521,10.598,15.797,15.883v269.014c-4.871,4.957-9.885,9.779-14.719,14.766l-0.097,0.096
		c-50.016-50.168-100.194-100.166-150.221-150.316c-0.096-0.096-0.279-0.279-0.375-0.375c14.861-14.18,29.09-29.041,43.76-43.441
		c35.048-35.25,70.423-70.191,105.345-105.566c-1.867-3.158-5.017-5.236-7.47-7.883c-42.536-42.508-85.055-85.045-127.59-127.553
		c-4.938-4.678-9.299-9.99-14.68-14.17l0.326-0.316C1052.729,10656.152,1068.534,10637.627,1087.314,10619.029z"/>
</g>
<path fill="#F8D834" d="M658.417,10750.35c25.365-25.439,50.873-50.748,76.16-76.264c49.996,50.004,99.942,100.051,150.018,149.969
	c-48.602,48.746-97.346,97.355-145.985,146.063c-1.326,1.328-2.549,2.887-4.39,3.531c-49.774-49.977-99.801-99.713-149.557-149.711
	C609.401,10799.566,633.804,10774.848,658.417,10750.35z"/>
<g>
	<path fill="#216058" d="M1033.622,10675.066c5.381,4.178,9.74,9.492,14.68,14.168c42.535,42.508,85.054,85.047,127.59,127.555
		c2.453,2.645,5.603,4.723,7.47,7.883c-34.922,35.375-70.297,70.316-105.345,105.566c-14.67,14.398-28.897,29.262-43.76,43.441
		c-49.91-49.777-99.731-99.656-149.557-149.527C934.206,10774.336,984.04,10724.832,1033.622,10675.066z"/>
</g>
<g>
	<path fill="#6CF711" d="M884.595,10824.055l0.105,0.098c49.823,49.871,99.646,99.75,149.557,149.527
		c0.096,0.094,0.279,0.277,0.375,0.375c-6.219,5.121-11.512,11.262-17.326,16.824c-41.217,41.219-82.444,82.426-123.645,123.645
		c-3.002,3.205-6.467,5.988-9.066,9.549c6.759,7.131,14.054,13.764,20.726,20.994c15.344,15.141,30.563,30.389,45.723,45.713
		c12.119,11.646,23.717,23.834,35.672,35.654c16.027,15.969,31.949,32.055,48.111,47.879l-0.443,0.441
		c-14.822,14.959-29.754,29.813-44.662,44.703c-2.369,2.551-5.258,4.697-7.029,7.75H786.874c-4.217-5.422-9.606-9.742-14.383-14.633
		c-12.601-12.879-25.644-25.305-38.031-38.387l-0.287-0.309c49.611-49.285,98.888-98.906,148.42-148.246
		c0.74-0.627,1.828-1.938,0.685-2.754c-44.76-44.73-89.492-89.492-134.252-134.232c-4.736-4.842-9.664-9.502-14.285-14.447
		c-0.125-0.137-0.385-0.414-0.521-0.551c1.841-0.645,3.063-2.203,4.39-3.531C787.249,10921.41,835.993,10872.801,884.595,10824.055z
		"/>
</g>
<g>
	<path fill="#F89113" d="M1184.854,11124.371l0.096-0.098c4.774,5.025,9.656,9.973,14.719,14.709v188.225h-112.352
		c-13.4-13.969-27.357-27.377-40.923-41.172c-4.03-3.734-7.448-8.16-12.012-11.281l0.443-0.441
		C1084.88,11224.373,1134.788,11174.301,1184.854,11124.371z"/>
</g>
<g>
	<path fill="#3F370C" d="M1184.854,11124.211c4.832-4.984,9.846-9.809,14.717-14.766v29.475
		C1194.507,11134.184,1189.626,11129.236,1184.854,11124.211z"/>
</g>
<path fill="#81D0E1" d="M1090.067,9910.57H978.575c22.963-21.555,36.176-34.219,56.25-52.895"/>
<g>
	<path fill="#22A9BB" d="M789.79,9910.57H679.536c18.279-18.492,36.799-36.742,55.098-55.215
		C752.962,9873.809,771.415,9892.156,789.79,9910.57z"/>
</g>
<g>
	<path fill="#7FC422" d="M1183.87,11531.572c5.016-5.459,10.215-10.791,15.797-15.682v31.564
		C1194.392,11542.17,1188.983,11537.012,1183.87,11531.572z"/>
</g>
<g>
	<path fill="#E68FC5" d="M789.79,11325.734l-108.146,0.285c1.888-2.293,3.919-4.469,6.056-6.527
		c15.662-15.422,30.957-31.246,46.762-46.492"/>
	<g>
		<path fill="#E68FC5" d="M734.692,11380.949c-12.39-13.082-26.152-27.703-38.752-40.582c-4.775-4.891-10.166-9.215-14.384-14.633
			H789.79"/>
	</g>
</g>
<g>
	<g>
		<path fill="#61BC79" d="M1087.314,11326.02l-106.743,1.234c1.771-3.051,6.778-6.434,9.147-8.984
			c14.908-14.891,30.461-30.434,45.283-45.391"/>
	</g>
	<g>
		<path fill="#61BC79" d="M978.966,11325.734l108.351,0.285c-1.771,3.051-4.66,5.195-7.029,7.746
			c-14.908,14.893-31.514,33.012-46.338,47.973"/>
	</g>
</g>
<g>
	<path fill="#34AC90" d="M1033.948,11381.738l-0.326,0.316c-49.582,49.766-99.416,99.273-148.922,149.086l-0.105-0.098
		c-50.073-49.918-100.021-99.965-150.018-149.969l0.114-0.125c18.3-18.473,35.8-35.695,54.078-54.186l191.802,0.49"/>
	<path fill="#34AC90" d="M997.823,11345.824c2.09,2.656,5.196,4.293,7.17,7.074c2.033,3.109,5.758,4.496,7.739,7.645
		c2.003,3.117,5.556,4.715,7.652,7.758"/>
</g>
<g>
	<path fill="#3D9D2A" d="M1087.314,11326.02l112.353-0.285v190.188c-5.582,4.891-10.781,10.223-15.797,15.68
		c5.113,5.438,10.521,10.598,15.797,15.883v269.012c-4.871,4.957-9.885,9.781-14.719,14.766l-0.097,0.098
		c-50.016-50.17-100.194-100.166-150.221-150.316c-0.096-0.098-0.279-0.279-0.375-0.375c14.861-14.18,29.09-29.043,43.76-43.441
		c35.048-35.25,70.423-70.191,105.345-105.566c-1.867-3.158-5.017-5.238-7.47-7.883c-42.536-42.508-85.055-85.045-127.59-127.553
		c-4.938-4.678-9.299-9.992-14.68-14.17l0.326-0.316C1052.729,11363.141,1068.534,11344.615,1087.314,11326.02z"/>
</g>
<path fill="#F8D834" d="M658.417,11457.34c25.365-25.441,50.873-50.75,76.16-76.266c49.996,50.004,99.942,100.051,150.018,149.969
	c-48.602,48.746-97.346,97.355-145.985,146.063c-1.326,1.328-2.549,2.887-4.39,3.533c-49.774-49.979-99.801-99.713-149.557-149.711
	C609.401,11506.555,633.804,11481.836,658.417,11457.34z"/>
<g>
	<path fill="#216058" d="M1033.622,11382.055c5.381,4.178,9.74,9.492,14.68,14.17c42.535,42.508,85.054,85.045,127.59,127.553
		c2.453,2.645,5.603,4.725,7.47,7.883c-34.922,35.375-70.297,70.316-105.345,105.566c-14.67,14.398-28.897,29.262-43.76,43.441
		c-49.91-49.777-99.731-99.656-149.557-149.527C934.206,11481.326,984.04,11431.82,1033.622,11382.055z"/>
</g>
<g>
	<path fill="#5F4997" d="M584.692,11831.225c50.024-50.006,100.03-100.031,150.047-150.037c4.621,4.947,9.549,9.605,14.284,14.447
		c44.761,44.74,89.492,89.502,134.253,134.232c1.145,0.818,0.057,2.127-0.685,2.754c-49.533,49.34-98.809,98.961-148.42,148.246
		C684.444,11930.891,634.438,11881.191,584.692,11831.225z"/>
</g>
<g>
	<path fill="#F9D360" d="M1017.306,11697.867c5.814-5.563,11.107-11.703,17.326-16.824
		c50.025,50.15,100.205,100.146,150.222,150.316c-50.064,49.93-99.974,100.004-150.027,149.941
		c-16.162-15.824-32.084-31.91-48.111-47.879c-11.955-11.82-23.553-24.008-35.672-35.654c-15.16-15.324-30.379-30.572-45.723-45.713
		c-6.672-7.229-13.967-13.861-20.726-20.992c2.601-3.564,6.064-6.344,9.066-9.551
		C934.86,11780.293,976.089,11739.086,1017.306,11697.867z"/>
</g>
<g>
	<path fill="#F89113" d="M1034.825,11981.301L1034.825,11981.301c50.055-49.939,99.963-100.012,150.026-149.941l0.097-0.098
		c4.774,5.027,9.655,9.973,14.719,14.711v188.223h-109.99"/>
</g>
<g>
	<path fill="#3F370C" d="M1184.854,11831.199c4.832-4.984,9.846-9.809,14.717-14.766v29.477
		C1194.507,11841.172,1189.626,11836.225,1184.854,11831.199z"/>
</g>
<g>
	<path fill="#22A9BB" d="M679.536,12034.195H789.79c-18.279,18.49-36.799,36.742-55.099,55.213
		C716.364,12070.955,697.911,12052.609,679.536,12034.195z"/>
</g>
<g>
	<path fill="#8DAA35" d="M1012.732,12069c2.003,3.121,5.556,4.719,7.652,7.76c1.887,2.889,5.246,4.283,7.269,7.057
		c1.731,2.463,3.928,4.523,6.295,6.381l-0.326,0.318c-49.582,49.766-99.416,99.27-148.922,149.084l-0.105-0.096
		c-50.073-49.92-100.021-99.965-150.018-149.971l0.114-0.125c18.3-18.471,36.818-36.723,55.099-55.213h189.176"/>
</g>
<g>
	<path fill="#81D0E1" d="M997.823,12054.283"/>
	<path fill="#81D0E1" d="M978.575,12034.195h111.492c-18.779,18.598-37.341,37.406-56.119,56.002
		c-2.367-1.857-4.563-3.918-6.295-6.381c-2.021-2.773-5.382-4.168-7.269-7.057c-2.098-3.041-5.65-4.639-7.652-7.76"/>
</g>
<path fill="#F8D834" d="M658.417,12165.799c25.365-25.441,50.873-50.748,76.16-76.266c49.996,50.006,99.942,100.051,150.018,149.971
	c-48.602,48.746-97.346,97.355-145.985,146.063c-1.326,1.328-2.549,2.887-4.39,3.533c-49.774-49.979-99.801-99.715-149.557-149.711
	C609.401,12215.016,633.804,12190.297,658.417,12165.799z"/>
<g>
	<path fill="#F9AC3D" d="M1033.622,12090.516c5.381,4.176,9.74,9.49,14.68,14.168c42.535,42.508,85.054,85.045,127.59,127.553
		c2.453,2.646,5.603,4.725,7.47,7.883c-34.922,35.375-70.297,70.316-105.345,105.566c-14.67,14.4-28.897,29.264-43.76,43.441
		c-49.91-49.775-99.731-99.654-149.557-149.527C934.206,12189.785,984.04,12140.281,1033.622,12090.516z"/>
</g>
<g>
	<path fill="#7FC422" d="M1183.87,12240.063c5.016-5.457,10.215-10.791,15.797-15.682v31.564
		C1194.392,12250.66,1188.983,12245.5,1183.87,12240.063z"/>
</g>
<g>
	<path fill="#7FC422" d="M1183.87,12948.207c5.016-5.457,10.215-10.789,15.797-15.68v31.564
		C1194.392,12958.807,1188.983,12953.648,1183.87,12948.207z"/>
</g>
<g>
	<path fill="#F47C99" d="M734.46,12689.637l-0.287-0.309c49.611-49.285,98.888-98.906,148.42-148.248
		c0.74-0.627,1.828-1.936,0.685-2.752c-44.76-44.732-89.492-89.492-134.252-134.234c-4.736-4.84-9.664-9.5-14.285-14.447
		c-0.125-0.135-0.385-0.414-0.521-0.549c1.841-0.645,3.063-2.203,4.39-3.531c48.641-48.707,97.385-97.316,145.985-146.064
		l0.105,0.096c49.823,49.873,99.646,99.754,149.557,149.527c0.096,0.098,0.279,0.281,0.375,0.377
		c-6.219,5.119-11.512,11.262-17.326,16.826c-41.217,41.217-82.444,82.426-123.645,123.643c-3.002,3.205-6.467,5.986-9.066,9.549
		c6.759,7.133,14.054,13.766,20.726,20.994c15.344,15.143,30.563,30.389,45.723,45.713c12.119,11.648,23.717,23.832,35.672,35.654
		c16.027,15.969,31.949,32.053,48.111,47.879l-0.443,0.443c-14.822,14.957-29.754,29.811-44.662,44.701
		c-2.369,2.551-5.258,4.697-7.029,7.748l-192.899-0.283"/>
</g>
<g>
	<path fill="#3F370C" d="M1184.948,12539.723c4.834-4.986,9.848-9.809,14.719-14.766v29.473
		C1194.604,12549.695,1189.724,12544.746,1184.948,12539.723z"/>
</g>
<g>
	<path fill="#F89113" d="M1034.382,12690.203l0.443-0.441c50.055-49.941,99.963-100.014,150.026-149.941l0.097-0.098
		c4.774,5.023,9.655,9.973,14.719,14.707v188.225h-112.353"/>
</g>
<path fill="#F8D834" d="M789.79,12742.371l-108.146,0.283c1.888-2.291,3.919-4.467,6.056-6.525
	c15.662-15.422,30.957-31.246,46.762-46.492"/>
<g>
	<path fill="#F8D834" d="M734.692,12797.584c-12.39-13.08-26.152-27.703-38.752-40.582c-4.775-4.889-10.166-9.213-14.384-14.631
		H789.79"/>
</g>
<g>
	<g>
		<path fill="#F62A1A" d="M1087.314,12742.654l-106.743,1.236c1.771-3.051,6.778-6.434,9.147-8.984
			c14.908-14.891,30.461-30.434,45.283-45.391"/>
	</g>
	<g>
		<path fill="#F62A1A" d="M978.966,12742.371l108.351,0.283c-1.771,3.053-4.66,5.197-7.029,7.748
			c-14.908,14.891-31.514,33.012-46.338,47.971"/>
	</g>
</g>
<g>
	<path fill="#60C2C2" d="M867.456,12556.023c5.813-5.563,11.108-11.703,17.328-16.824
		c50.022,50.148,100.205,100.146,150.219,150.316c-50.063,49.93-99.973,100.002-150.027,149.941
		c-16.161-15.824-32.082-31.91-48.108-47.879c-11.955-11.82-23.555-24.008-35.674-35.654c-15.16-15.324-30.379-30.572-45.724-45.713
		c-6.67-7.23-14.252-13.443-21.01-20.574c2.6-3.564,6.352-6.764,9.354-9.969C785.013,12638.449,826.239,12597.242,867.456,12556.023
		z"/>
</g>
<g>
	<path fill="#6CF711" d="M1033.948,12798.373l-0.326,0.318c-49.582,49.766-99.416,99.271-148.922,149.084l-0.105-0.096
		c-50.073-49.92-100.021-99.965-150.018-149.971l0.114-0.125c18.3-18.471,35.8-35.693,54.078-54.184l191.802,0.49"/>
	<path fill="#6CF711" d="M997.823,12762.461c2.09,2.656,5.196,4.293,7.17,7.074c2.033,3.109,5.758,4.496,7.739,7.643
		c2.003,3.119,5.556,4.717,7.652,7.758"/>
</g>
<path fill="#F8D834" d="M658.417,12873.975c25.365-25.441,50.873-50.748,76.16-76.266c49.996,50.006,99.942,100.051,150.018,149.971
	c-48.602,48.746-97.346,97.355-145.985,146.063c-1.326,1.328-2.549,2.887-4.39,3.531c-49.774-49.977-99.801-99.713-149.557-149.711
	C609.401,12923.191,633.804,12898.473,658.417,12873.975z"/>
<g>
	<path fill="#216058" d="M1033.622,12798.691c5.381,4.178,9.74,9.492,14.68,14.168c42.535,42.508,85.054,85.045,127.59,127.553
		c2.453,2.646,5.603,4.725,7.47,7.885c-34.922,35.375-70.297,70.316-105.345,105.564c-14.67,14.4-28.897,29.264-43.76,43.441
		c-49.91-49.775-99.731-99.654-149.557-149.527C934.206,12897.961,984.04,12848.457,1033.622,12798.691z"/>
</g>
<g>
	<path fill="#3B2CFF" d="M884.595,12947.68l0.105,0.096c49.823,49.873,99.646,99.752,149.557,149.527
		c0.096,0.096,0.279,0.279,0.375,0.377c-6.219,5.121-11.512,11.262-17.326,16.824c-41.217,41.219-82.444,82.426-123.645,123.645
		c-3.002,3.205-6.467,5.988-9.066,9.549c6.759,7.131,14.054,13.764,20.726,20.994c15.344,15.141,30.563,30.389,45.723,45.713
		c12.119,11.646,23.717,23.834,35.672,35.654c16.027,15.969,31.949,32.053,48.111,47.879l-0.443,0.441
		c-14.822,14.959-29.754,29.813-44.662,44.703c-2.369,2.551-5.258,4.697-7.029,7.748H786.874c-4.217-5.42-9.606-9.74-14.383-14.631
		c-12.601-12.879-25.644-25.307-38.031-38.387l-0.287-0.309c49.611-49.285,98.888-98.906,148.42-148.248
		c0.74-0.625,1.828-1.936,0.685-2.752c-44.76-44.732-89.492-89.492-134.252-134.232c-4.736-4.842-9.664-9.502-14.285-14.447
		c-0.125-0.137-0.385-0.414-0.521-0.551c1.841-0.645,3.063-2.203,4.39-3.531C787.249,13045.035,835.993,12996.426,884.595,12947.68z
		"/>
</g>
<g>
	<path fill="#F9D360" d="M1017.306,13114.504c5.814-5.563,11.107-11.703,17.326-16.824
		c50.025,50.148,100.205,100.146,150.222,150.316c-50.064,49.93-99.974,100.002-150.027,149.941
		c-16.162-15.826-32.084-31.91-48.111-47.879c-11.955-11.82-23.553-24.008-35.672-35.654c-15.16-15.324-30.379-30.572-45.723-45.713
		c-6.672-7.23-13.967-13.863-20.726-20.994c2.601-3.561,6.064-6.344,9.066-9.549
		C934.86,13196.93,976.089,13155.723,1017.306,13114.504z"/>
</g>
<g>
	<path fill="#F89113" d="M1184.854,13247.996l0.096-0.098c4.774,5.025,9.656,9.973,14.719,14.709v188.223h-112.352
		c-13.4-13.967-27.357-27.375-40.923-41.17c-4.03-3.734-7.448-8.162-12.012-11.281l0.443-0.441
		C1084.88,13347.998,1134.788,13297.926,1184.854,13247.996z"/>
</g>
<g>
	<path fill="#3F370C" d="M1184.854,13247.836c4.832-4.984,9.846-9.809,14.717-14.766v29.475
		C1194.507,13257.809,1189.626,13252.861,1184.854,13247.836z"/>
</g>
<path fill="#81D0E1" d="M1090.067,12034.195H978.575c22.963-21.555,36.176-34.221,56.25-52.895"/>
<g>
	<path fill="#22A9BB" d="M789.79,12034.195H679.536c18.279-18.492,36.799-36.742,55.098-55.215
		C752.962,11997.434,771.415,12015.781,789.79,12034.195z"/>
</g>
<g>
	<path fill="#7FC422" d="M1183.872,13655.197c5.014-5.459,10.213-10.791,15.795-15.682v31.564
		C1194.392,13665.795,1188.983,13660.637,1183.872,13655.197z"/>
</g>
<g>
	<path fill="#E68FC5" d="M789.79,13449.359l-108.146,0.283c1.888-2.291,3.918-4.467,6.056-6.525
		c15.66-15.422,30.955-31.246,46.762-46.492"/>
	<g>
		<path fill="#E68FC5" d="M734.692,13504.572c-12.39-13.08-26.152-27.701-38.752-40.582c-4.773-4.889-10.164-9.213-14.382-14.631
			h108.23"/>
	</g>
</g>
<g>
	<g>
		<path fill="#61BC79" d="M1087.314,13449.643l-106.741,1.236c1.771-3.051,6.776-6.434,9.146-8.984
			c14.91-14.891,30.461-30.434,45.285-45.391"/>
	</g>
	<g>
		<path fill="#61BC79" d="M978.966,13449.359l108.351,0.283c-1.771,3.053-4.658,5.197-7.027,7.748
			c-14.91,14.893-31.516,33.012-46.338,47.973"/>
	</g>
</g>
<g>
	<path fill="#34AC90" d="M1033.95,13505.363l-0.328,0.316c-49.582,49.766-99.416,99.271-148.92,149.086l-0.107-0.098
		c-50.071-49.918-100.021-99.965-150.018-149.969l0.114-0.127c18.3-18.471,35.802-35.693,54.08-54.184l191.802,0.49"/>
	<path fill="#34AC90" d="M997.825,13469.449c2.088,2.656,5.196,4.293,7.17,7.074c2.031,3.109,5.756,4.496,7.737,7.643
		c2.005,3.119,5.556,4.717,7.654,7.76"/>
</g>
<g>
	<path fill="#3D9D2A" d="M1087.314,13449.643l112.353-0.283v190.188c-5.582,4.889-10.781,10.223-15.795,15.68
		c5.11,5.438,10.52,10.598,15.795,15.883v269.012c-4.871,4.959-9.885,9.781-14.717,14.768l-0.099,0.096
		c-50.014-50.17-100.194-100.166-150.219-150.316c-0.098-0.098-0.279-0.279-0.375-0.375c14.861-14.18,29.088-29.043,43.758-43.441
		c35.049-35.25,70.422-70.191,105.347-105.566c-1.867-3.158-5.017-5.238-7.472-7.885c-42.537-42.508-85.055-85.043-127.59-127.551
		c-4.938-4.678-9.299-9.992-14.68-14.17l0.328-0.316C1052.729,13486.766,1068.536,13468.24,1087.314,13449.643z"/>
</g>
<path fill="#F8D834" d="M658.417,13580.963c25.365-25.439,50.873-50.748,76.16-76.264c49.996,50.004,99.944,100.051,150.018,149.969
	c-48.6,48.746-97.346,97.355-145.983,146.063c-1.328,1.328-2.551,2.887-4.39,3.535c-49.774-49.98-99.801-99.715-149.557-149.711
	C609.403,13630.18,633.806,13605.461,658.417,13580.963z"/>
<g>
	<path fill="#216058" d="M1033.622,13505.68c5.381,4.178,9.742,9.492,14.68,14.17c42.535,42.508,85.054,85.043,127.59,127.551
		c2.455,2.646,5.604,4.727,7.472,7.885c-34.924,35.375-70.297,70.316-105.347,105.566c-14.67,14.398-28.896,29.262-43.758,43.441
		c-49.91-49.775-99.733-99.656-149.557-149.527C934.206,13604.951,984.04,13555.445,1033.622,13505.68z"/>
</g>
<g>
	<path fill="#5F4997" d="M584.694,13954.85c50.024-50.006,100.03-100.031,150.047-150.037c4.619,4.947,9.549,9.605,14.284,14.447
		c44.761,44.74,89.49,89.5,134.25,134.232c1.146,0.818,0.06,2.127-0.684,2.752c-49.533,49.342-98.809,98.963-148.42,148.248
		C684.446,14054.516,634.44,14004.816,584.694,13954.85z"/>
</g>
<g>
	<path fill="#F9D360" d="M1017.306,13821.494c5.814-5.564,11.109-11.705,17.328-16.826c50.023,50.15,100.205,100.146,150.22,150.316
		c-50.063,49.93-99.974,100.002-150.027,149.941c-16.162-15.826-32.082-31.91-48.109-47.879
		c-11.955-11.82-23.555-24.008-35.674-35.654c-15.16-15.324-30.379-30.572-45.723-45.713c-6.67-7.229-13.967-13.861-20.726-20.994
		c2.601-3.561,6.066-6.344,9.068-9.549C934.862,13903.918,976.089,13862.711,1017.306,13821.494z"/>
</g>
<g>
	<path fill="#F89113" d="M1034.825,14104.926L1034.825,14104.926c50.055-49.939,99.965-100.012,150.026-149.941l0.099-0.096
		c4.772,5.023,9.653,9.971,14.717,14.707v188.223h-109.988"/>
</g>
<g>
	<path fill="#3F370C" d="M1184.854,13954.824c4.834-4.984,9.848-9.809,14.719-14.766v29.475
		C1194.509,13964.797,1189.628,13959.85,1184.854,13954.824z"/>
</g>
<g>
	<path fill="#22A9BB" d="M679.538,14157.818H789.79c-18.279,18.492-36.799,36.742-55.099,55.215
		C716.366,14194.58,697.913,14176.232,679.538,14157.818z"/>
</g>
<g>
	<path fill="#81D0E1" d="M997.825,14177.908"/>
	<path fill="#81D0E1" d="M978.575,14157.818h111.494c-18.781,18.598-37.341,37.406-56.119,56.004
		c-2.369-1.857-4.564-3.918-6.297-6.383c-2.021-2.771-5.38-4.168-7.267-7.055c-2.1-3.041-5.649-4.641-7.654-7.758"/>
</g>
<g>
	<path fill="#3B2CFF" d="M1090.069,14157.818h109.598v190.189c-5.582,4.891-10.781,10.223-15.795,15.68
		c5.11,5.438,10.52,10.598,15.795,15.883v269.012c-4.871,4.957-9.885,9.781-14.717,14.766l-0.099,0.098
		c-50.014-50.17-100.194-100.168-150.219-150.316c-0.098-0.098-0.279-0.281-0.375-0.375c14.861-14.18,29.088-29.043,43.758-43.441
		c35.049-35.25,70.422-70.191,105.347-105.566c-1.867-3.158-5.017-5.238-7.472-7.883c-42.537-42.508-85.055-85.047-127.59-127.555
		c-4.938-4.676-9.299-9.99-14.68-14.168l0.328-0.316C1052.729,14195.225,1071.288,14176.416,1090.069,14157.818z"/>
</g>
<path fill="#F8D834" d="M658.417,14289.424c25.365-25.441,50.873-50.748,76.16-76.266c49.996,50.006,99.944,100.051,150.018,149.971
	c-48.6,48.744-97.346,97.355-145.983,146.061c-1.328,1.33-2.551,2.889-4.39,3.533c-49.774-49.977-99.801-99.715-149.557-149.711
	C609.403,14338.641,633.806,14313.922,658.417,14289.424z"/>
<g>
	<path fill="#216058" d="M1033.622,14214.141c5.381,4.176,9.742,9.49,14.68,14.168c42.535,42.508,85.054,85.045,127.59,127.553
		c2.455,2.646,5.604,4.725,7.472,7.883c-34.924,35.375-70.297,70.316-105.347,105.566c-14.67,14.4-28.896,29.262-43.758,43.441
		c-49.91-49.775-99.733-99.656-149.557-149.527C934.206,14313.41,984.04,14263.906,1033.622,14214.141z"/>
</g>
<g>
	<path fill="#7FC422" d="M1183.872,14363.688c5.014-5.459,10.213-10.791,15.795-15.682v31.564
		C1194.392,14374.285,1188.983,14369.125,1183.872,14363.688z"/>
</g>
<g>
	<path fill="#7FC422" d="M1183.872,15071.834c5.014-5.459,10.213-10.791,15.795-15.682v31.563
		C1194.392,15082.432,1188.983,15077.273,1183.872,15071.834z"/>
</g>
<g>
	<path fill="#F47C99" d="M734.462,14813.26l-0.289-0.307c49.611-49.285,98.888-98.906,148.42-148.248
		c0.742-0.627,1.83-1.936,0.685-2.754c-44.761-44.73-89.49-89.49-134.25-134.232c-4.736-4.84-9.666-9.5-14.285-14.447
		c-0.125-0.135-0.387-0.414-0.521-0.549c1.839-0.645,3.062-2.203,4.39-3.533c48.639-48.705,97.385-97.316,145.983-146.061
		l0.107,0.096c49.821,49.871,99.646,99.752,149.557,149.527c0.097,0.096,0.277,0.279,0.375,0.375
		c-6.219,5.121-11.514,11.262-17.328,16.826c-41.217,41.219-82.442,82.426-123.643,123.645c-3.002,3.203-6.469,5.986-9.068,9.547
		c6.759,7.133,14.056,13.766,20.726,20.994c15.344,15.143,30.563,30.389,45.723,45.713c12.119,11.648,23.719,23.834,35.674,35.654
		c16.027,15.971,31.947,32.055,48.109,47.879l-0.441,0.443c-14.824,14.957-29.754,29.811-44.664,44.703
		c-2.369,2.551-5.256,4.695-7.026,7.748l-192.902-0.283"/>
</g>
<g>
	<path fill="#F9D360" d="M1017.306,14529.953c5.814-5.564,11.109-11.705,17.328-16.826c50.023,50.15,100.205,100.146,150.22,150.316
		c-50.063,49.93-99.974,100.002-150.027,149.941c-16.162-15.824-32.082-31.908-48.109-47.879
		c-11.955-11.82-23.555-24.006-35.674-35.654c-15.16-15.324-30.379-30.57-45.723-45.713c-6.67-7.229-13.967-13.861-20.726-20.994
		c2.601-3.561,6.066-6.344,9.068-9.547C934.862,14612.379,976.089,14571.172,1017.306,14529.953z"/>
</g>
<g>
	<path fill="#3F370C" d="M1184.95,14663.348c4.832-4.986,9.846-9.809,14.717-14.766v29.473
		C1194.604,14673.32,1189.724,14668.371,1184.95,14663.348z"/>
</g>
<g>
	<path fill="#F89113" d="M1034.384,14813.828l0.441-0.443c50.055-49.939,99.965-100.012,150.026-149.941l0.099-0.096
		c4.772,5.023,9.654,9.973,14.717,14.707v188.225h-112.352"/>
</g>
<path fill="#F8D834" d="M789.79,14865.996l-108.146,0.283c1.888-2.291,3.918-4.467,6.056-6.525
	c15.66-15.422,30.955-31.246,46.762-46.494"/>
<g>
	<path fill="#60C2C2" d="M867.458,14679.648c5.813-5.563,11.106-11.705,17.326-16.824
		c50.024,50.148,100.205,100.146,150.221,150.316c-50.063,49.928-99.973,100.002-150.026,149.941
		c-16.162-15.826-32.084-31.91-48.111-47.879c-11.955-11.82-23.553-24.008-35.672-35.654c-15.16-15.324-30.379-30.572-45.724-45.713
		c-6.672-7.23-14.252-13.443-21.01-20.576c2.601-3.561,6.351-6.762,9.353-9.967
		C785.013,14762.074,826.241,14720.867,867.458,14679.648z"/>
</g>
<path fill="#F8D834" d="M658.417,14997.6c25.365-25.441,50.873-50.748,76.16-76.266c49.996,50.006,99.944,100.051,150.018,149.971
	c-48.6,48.744-97.346,97.355-145.983,146.063c-1.328,1.328-2.551,2.887-4.39,3.531c-49.774-49.977-99.801-99.713-149.557-149.711
	C609.403,15046.816,633.806,15022.098,658.417,14997.6z"/>
<g>
	<path fill="#216058" d="M1033.622,14922.316c5.381,4.178,9.742,9.49,14.68,14.168c42.535,42.508,85.054,85.045,127.59,127.553
		c2.455,2.646,5.604,4.725,7.472,7.883c-34.924,35.375-70.297,70.316-105.347,105.566c-14.67,14.4-28.896,29.264-43.758,43.441
		c-49.91-49.775-99.733-99.656-149.557-149.527C934.206,15021.586,984.04,14972.082,1033.622,14922.316z"/>
</g>
<g>
	<path fill="#FC7800" d="M884.595,15071.305l0.107,0.096c49.821,49.871,99.646,99.752,149.557,149.527
		c0.097,0.096,0.277,0.279,0.375,0.377c-6.219,5.119-11.514,11.262-17.328,16.824c-41.217,41.219-82.442,82.426-123.643,123.645
		c-3.002,3.205-6.469,5.986-9.068,9.549c6.759,7.131,14.056,13.764,20.726,20.994c15.344,15.141,30.563,30.389,45.723,45.713
		c12.119,11.646,23.719,23.832,35.674,35.654c16.027,15.969,31.947,32.053,48.109,47.877l-0.441,0.443
		c-14.824,14.959-29.754,29.813-44.664,44.703c-2.369,2.551-5.256,4.697-7.026,7.748h-195.82c-4.217-5.42-9.606-9.74-14.381-14.631
		c-12.601-12.879-25.644-25.307-38.031-38.389l-0.289-0.307c49.611-49.285,98.888-98.906,148.42-148.248
		c0.742-0.625,1.83-1.936,0.685-2.752c-44.76-44.732-89.49-89.492-134.25-134.232c-4.736-4.842-9.666-9.502-14.285-14.449
		c-0.125-0.135-0.387-0.414-0.521-0.549c1.839-0.645,3.062-2.203,4.39-3.531C787.249,15168.66,835.995,15120.049,884.595,15071.305z
		"/>
</g>
<g>
	<path fill="#F9D360" d="M1017.402,15237.725c5.813-5.564,11.108-11.705,17.328-16.826
		c50.022,50.152,100.204,100.148,150.219,150.316c-50.063,49.93-99.974,100.004-150.027,149.941
		c-16.162-15.824-32.082-31.908-48.109-47.879c-11.955-11.82-23.555-24.006-35.674-35.652
		c-15.16-15.324-30.379-30.572-45.723-45.715c-6.67-7.227-13.967-13.859-20.725-20.992c2.6-3.563,6.065-6.344,9.067-9.549
		C934.959,15320.15,976.186,15278.943,1017.402,15237.725z"/>
</g>
<g>
	<path fill="#3F370C" d="M1184.949,15371.057c4.834-4.986,9.848-9.809,14.719-14.766v29.475
		C1194.605,15381.029,1189.725,15376.082,1184.949,15371.057z"/>
</g>
<path fill="#81D0E1" d="M1090.069,14157.818H978.575c22.965-21.553,36.176-34.219,56.25-52.893"/>
<g>
	<path fill="#22A9BB" d="M789.79,14157.818H679.538c18.279-18.49,36.799-36.74,55.098-55.213
		C752.962,14121.059,771.415,14139.404,789.79,14157.818z"/>
</g>
<g>
	<path fill="#7FC422" d="M1183.969,15778.418c5.015-5.457,10.213-10.791,15.795-15.68v31.563
		C1194.488,15789.016,1189.08,15783.855,1183.969,15778.418z"/>
</g>
<g>
	<path fill="#E68FC5" d="M789.887,15572.58l-108.145,0.283c1.887-2.291,3.918-4.467,6.055-6.525
		c15.66-15.422,30.955-31.246,46.762-46.494"/>
	<g>
		<path fill="#E68FC5" d="M734.789,15627.793c-12.389-13.082-26.152-27.703-38.752-40.582c-4.773-4.891-10.164-9.213-14.381-14.631
			h108.229"/>
	</g>
</g>
<g>
	<g>
		<path fill="#61BC79" d="M1087.412,15572.863l-106.742,1.236c1.771-3.051,6.777-6.434,9.146-8.984
			c14.909-14.893,30.461-30.432,45.284-45.391"/>
	</g>
	<g>
		<path fill="#61BC79" d="M979.063,15572.58l108.351,0.283c-1.771,3.051-4.658,5.197-7.027,7.748
			c-14.91,14.893-31.516,33.014-46.338,47.971"/>
	</g>
</g>
<g>
	<path fill="#3D9D2A" d="M1087.412,15572.863l112.352-0.283v190.186c-5.582,4.891-10.78,10.223-15.795,15.682
		c5.111,5.439,10.521,10.598,15.795,15.883v269.012c-4.871,4.959-9.885,9.779-14.717,14.768l-0.098,0.096
		c-50.015-50.17-100.195-100.166-150.219-150.316c-0.099-0.098-0.279-0.279-0.375-0.377c14.86-14.178,29.088-29.041,43.758-43.441
		c35.049-35.25,70.422-70.191,105.346-105.566c-1.867-3.156-5.016-5.234-7.471-7.883c-42.537-42.508-85.056-85.043-127.59-127.551
		c-4.938-4.68-9.299-9.992-14.681-14.17l0.328-0.318C1052.826,15609.986,1068.633,15591.461,1087.412,15572.863z"/>
</g>
<path fill="#F8D834" d="M658.514,15704.184c25.365-25.441,50.873-50.746,76.16-76.266c49.996,50.006,99.945,100.051,150.018,149.971
	c-48.6,48.746-97.346,97.355-145.983,146.064c-1.328,1.328-2.551,2.887-4.389,3.531c-49.775-49.977-99.802-99.715-149.558-149.711
	C609.5,15753.4,633.902,15728.682,658.514,15704.184z"/>
<g>
	<path fill="#216058" d="M1033.719,15628.9c5.381,4.178,9.742,9.49,14.681,14.17c42.534,42.508,85.053,85.043,127.59,127.551
		c2.455,2.648,5.604,4.727,7.471,7.883c-34.924,35.375-70.297,70.316-105.346,105.566c-14.67,14.4-28.896,29.264-43.759,43.441
		c-49.909-49.773-99.733-99.656-149.557-149.527C934.303,15728.172,984.137,15678.666,1033.719,15628.9z"/>
</g>
<g>
	<g>
		<path fill="#FFFFFF" d="M679.537,1416.637H789.79c-18.279,18.49-36.799,36.742-55.099,55.215
			C716.365,1453.398,697.912,1435.051,679.537,1416.637z"/>
	</g>
	<g>
		<g>
			<path fill="#FFFFFF" d="M1087.314,2125.096l-106.742,1.238c1.771-3.053,6.777-6.436,9.146-8.986
				c14.909-14.891,30.461-30.432,45.284-45.391"/>
		</g>
		<g>
			<path fill="#FFFFFF" d="M978.966,2124.813l108.351,0.283c-1.771,3.053-4.659,5.199-7.028,7.75
				c-14.909,14.891-31.515,33.012-46.338,47.971"/>
		</g>
	</g>
	<g>
		<path fill="#FFFFFF" d="M789.79,2831.801l-108.146,0.285c1.888-2.291,3.919-4.467,6.056-6.525
			c15.661-15.422,30.956-31.246,46.762-46.494"/>
		<g>
			<path fill="#FFFFFF" d="M734.692,2887.014c-12.39-13.08-26.152-27.701-38.752-40.582c-4.774-4.889-10.165-9.211-14.383-14.631
				H789.79"/>
		</g>
	</g>
	<path fill="#FFFFFF" d="M1090.068,3540.262H978.575c22.964-21.553,36.176-34.219,56.25-52.895"/>
	<g>
		<g>
			<g>
				<path fill="#FFFFFF" d="M1017.306,1788.771c5.814-5.564,11.108-11.705,17.327-16.826
					c50.024,50.15,100.205,100.146,150.221,150.314c-50.063,49.93-99.974,100.004-150.027,149.941
					c-16.162-15.824-32.083-31.91-48.11-47.879c-11.955-11.82-23.554-24.006-35.673-35.654
					c-15.16-15.324-30.379-30.572-45.723-45.713c-6.671-7.229-13.967-13.861-20.726-20.994c2.601-3.561,6.065-6.344,9.067-9.549
					C934.861,1871.197,976.089,1829.988,1017.306,1788.771z"/>
			</g>
			<g>
				<path fill="#FFFFFF" d="M884.595,2330.121l0.106,0.096c49.822,49.873,99.646,99.752,149.557,149.527
					c0.096,0.098,0.278,0.279,0.375,0.377c-6.219,5.121-11.513,11.262-17.327,16.826c-41.217,41.217-82.443,82.426-123.644,123.643
					c-3.002,3.205-6.468,5.988-9.067,9.551c6.759,7.131,14.055,13.764,20.726,20.992c15.344,15.143,30.563,30.391,45.723,45.713
					c12.119,11.648,23.718,23.834,35.673,35.654c16.027,15.969,31.948,32.055,48.11,47.879l-0.442,0.443
					c-14.823,14.957-29.754,29.811-44.663,44.703c-2.369,2.551-5.257,4.695-7.027,7.748H786.874
					c-4.217-5.418-9.606-9.74-14.382-14.631c-12.6-12.879-25.644-25.307-38.031-38.389l-0.288-0.307
					c49.611-49.285,98.888-98.906,148.42-148.248c0.741-0.625,1.829-1.936,0.685-2.754c-44.761-44.73-89.491-89.49-134.251-134.232
					c-4.736-4.842-9.665-9.5-14.285-14.447c-0.125-0.135-0.386-0.414-0.521-0.549c1.84-0.645,3.063-2.205,4.39-3.533
					C787.249,2427.479,835.994,2378.867,884.595,2330.121z"/>
			</g>
			<g>
				<path fill="#FFFFFF" d="M1087.314,2832.086l112.353-0.285v190.188c-5.582,4.891-10.781,10.223-15.796,15.68
					c5.112,5.439,10.521,10.598,15.796,15.883v269.014c-4.871,4.957-9.885,9.779-14.718,14.766l-0.098,0.096
					c-50.015-50.17-100.194-100.166-150.22-150.316c-0.097-0.096-0.279-0.279-0.375-0.375
					c14.861-14.178,29.089-29.041,43.759-43.441c35.049-35.25,70.422-70.189,105.346-105.564c-1.867-3.158-5.017-5.236-7.471-7.885
					c-42.537-42.508-85.055-85.043-127.59-127.553c-4.938-4.678-9.299-9.99-14.68-14.168l0.327-0.318
					C1052.729,2869.207,1068.535,2850.682,1087.314,2832.086z"/>
			</g>
			<g>
				<path fill="#FFFFFF" d="M1012.732,3575.068c2.004,3.119,5.556,4.717,7.653,7.758c1.888,2.889,5.246,4.285,7.268,7.057
					c1.731,2.465,3.928,4.523,6.296,6.383l-0.327,0.316c-49.582,49.768-99.416,99.271-148.921,149.086l-0.106-0.096
					c-50.073-49.92-100.021-99.965-150.018-149.971l0.114-0.125c18.3-18.471,36.818-36.721,55.099-55.213h189.176"/>
			</g>
			<g>
				<path fill="#FFFFFF" d="M1017.306,3912.396c5.814-5.564,11.108-11.705,17.327-16.826
					c50.024,50.15,100.205,100.146,150.221,150.316c-50.063,49.93-99.974,100.002-150.027,149.941
					c-16.162-15.826-32.083-31.91-48.11-47.879c-11.955-11.82-23.554-24.006-35.673-35.652
					c-15.16-15.324-30.379-30.572-45.723-45.713c-6.671-7.23-13.967-13.861-20.726-20.994c2.601-3.563,6.065-6.344,9.067-9.549
					C934.861,3994.82,976.089,3953.613,1017.306,3912.396z"/>
			</g>
			<path fill="#FFFFFF" d="M658.417,4380.041c25.365-25.439,50.873-50.746,76.16-76.266
				c49.996,50.006,99.944,100.051,150.018,149.971c-48.601,48.746-97.346,97.355-145.984,146.063c-1.327,1.33-2.55,2.889-4.39,3.533
				c-49.774-49.979-99.801-99.713-149.557-149.711C609.402,4429.258,633.805,4404.539,658.417,4380.041z"/>
			<g>
				<path fill="#FFFFFF" d="M789.79,4955.426l-108.146,0.285c1.888-2.291,3.918-4.467,6.056-6.525
					c15.66-15.422,30.955-31.246,46.762-46.494"/>
				<g>
					<path fill="#FFFFFF" d="M734.692,5010.641c-12.39-13.082-26.152-27.703-38.752-40.582c-4.773-4.891-10.164-9.213-14.382-14.631
						h108.23"/>
				</g>
			</g>
			<g>
				<path fill="#FFFFFF" d="M1033.622,5011.746c5.381,4.18,9.742,9.492,14.68,14.17c42.535,42.508,85.054,85.043,127.59,127.551
					c2.455,2.648,5.604,4.727,7.472,7.883c-34.924,35.375-70.297,70.318-105.347,105.566c-14.67,14.4-28.896,29.262-43.758,43.441
					c-49.91-49.775-99.733-99.656-149.557-149.527C934.206,5111.02,984.04,5061.514,1033.622,5011.746z"/>
			</g>
			<g>
				<path fill="#FFFFFF" d="M978.575,5663.885H786.874c-4.217-5.418-9.606-9.74-14.381-14.631
					c-12.601-12.879-25.644-25.307-38.031-38.387l-0.289-0.309c49.611-49.285,98.888-98.904,148.42-148.248
					c0.742-0.625,1.83-1.936,0.685-2.754c-44.76-44.73-89.49-89.49-134.25-134.23c-4.736-4.842-9.666-9.5-14.285-14.449
					c-0.125-0.135-0.387-0.414-0.521-0.549c1.839-0.646,3.062-2.203,4.39-3.533c48.639-48.705,97.385-97.316,145.983-146.063
					l0.107,0.098c49.822,49.871,99.646,99.752,149.557,149.527c0.097,0.096,0.277,0.279,0.375,0.375
					c-6.219,5.121-11.514,11.262-17.328,16.826c-41.217,41.217-82.442,82.424-123.643,123.643c-3.002,3.207-6.469,5.986-9.068,9.549
					c6.759,7.133,14.056,13.766,20.726,20.994c15.344,15.141,30.563,30.389,45.723,45.713
					c12.119,11.646,23.719,23.832,35.674,35.652c16.027,15.971,31.947,32.055,48.109,47.879l-0.441,0.443"/>
			</g>
			<g>
				<path fill="#FFFFFF" d="M1017.306,6036.021c5.814-5.564,11.109-11.705,17.328-16.826
					c50.023,50.148,100.205,100.146,150.22,150.314c-50.063,49.93-99.974,100.002-150.027,149.941
					c-16.162-15.824-32.082-31.91-48.109-47.879c-11.955-11.82-23.555-24.006-35.674-35.654
					c-15.16-15.324-30.379-30.57-45.723-45.713c-6.67-7.229-13.967-13.859-20.726-20.994c2.601-3.561,6.066-6.344,9.068-9.549
					C934.862,6118.445,976.089,6077.238,1017.306,6036.021z"/>
			</g>
			<g>
				<path fill="#FFFFFF" d="M1087.314,6372.346l112.353-0.283v190.186c-5.582,4.891-10.781,10.225-15.795,15.682
					c5.11,5.438,10.52,10.598,15.795,15.883v269.012c-4.871,4.959-9.885,9.781-14.717,14.768l-0.099,0.096
					c-50.014-50.17-100.194-100.166-150.219-150.316c-0.098-0.098-0.279-0.279-0.375-0.375
					c14.861-14.18,29.088-29.041,43.758-43.441c35.049-35.25,70.422-70.191,105.347-105.566c-1.867-3.158-5.017-5.236-7.472-7.883
					c-42.537-42.508-85.055-85.043-127.59-127.553c-4.938-4.678-9.299-9.99-14.68-14.168l0.328-0.318
					C1052.729,6409.467,1068.536,6390.943,1087.314,6372.346z"/>
			</g>
			<g>
				<g>
					<path fill="#FFFFFF" d="M1087.314,7079.334l-106.741,1.236c1.771-3.051,6.776-6.436,9.146-8.984
						c14.91-14.891,30.461-30.432,45.285-45.391"/>
				</g>
				<g>
					<path fill="#FFFFFF" d="M978.966,7079.051l108.351,0.283c-1.771,3.051-4.658,5.197-7.027,7.748
						c-14.91,14.893-31.516,33.014-46.338,47.973"/>
				</g>
			</g>
			<path fill="#FFFFFF" d="M658.417,7210.656c25.365-25.441,50.873-50.748,76.16-76.268
				c49.996,50.006,99.944,100.051,150.018,149.971c-48.6,48.746-97.346,97.355-145.983,146.063c-1.328,1.328-2.551,2.889-4.39,3.533
				c-49.774-49.979-99.801-99.715-149.557-149.711C609.403,7259.873,633.806,7235.152,658.417,7210.656z"/>
			<g>
				<path fill="#FFFFFF" d="M1017.306,7451.186c5.814-5.564,11.109-11.705,17.328-16.826
					c50.023,50.15,100.205,100.146,150.22,150.316c-50.063,49.93-99.974,100.002-150.027,149.941
					c-16.162-15.826-32.082-31.91-48.109-47.879c-11.955-11.82-23.555-24.006-35.674-35.654
					c-15.16-15.324-30.379-30.57-45.723-45.713c-6.67-7.229-13.967-13.859-20.726-20.994c2.601-3.561,6.066-6.344,9.068-9.549
					C934.862,7533.611,976.089,7492.402,1017.306,7451.186z"/>
			</g>
			<g>
				<path fill="#FFFFFF" d="M1090.069,7787.51h109.598v190.188c-5.582,4.891-10.781,10.223-15.795,15.68
					c5.11,5.439,10.52,10.6,15.795,15.883v269.014c-4.871,4.957-9.885,9.779-14.717,14.766l-0.099,0.096
					c-50.014-50.17-100.194-100.166-150.219-150.314c-0.098-0.098-0.279-0.279-0.375-0.375
					c14.861-14.182,29.088-29.041,43.758-43.441c35.049-35.25,70.422-70.191,105.347-105.566c-1.867-3.158-5.017-5.236-7.472-7.883
					c-42.537-42.508-85.055-85.045-127.59-127.553c-4.938-4.678-9.299-9.992-14.68-14.17l0.328-0.316
					C1052.729,7824.916,1071.288,7806.107,1090.069,7787.51z"/>
			</g>
			<g>
				<path fill="#FFFFFF" d="M734.462,8442.951l-0.289-0.309c49.611-49.283,98.888-98.904,148.42-148.246
					c0.742-0.627,1.83-1.936,0.685-2.754c-44.761-44.73-89.49-89.49-134.25-134.23c-4.736-4.842-9.666-9.5-14.285-14.447
					c-0.125-0.135-0.387-0.414-0.521-0.549c1.839-0.645,3.062-2.205,4.39-3.533c48.639-48.705,97.385-97.316,145.983-146.063
					l0.107,0.098c49.821,49.871,99.646,99.752,149.557,149.527c0.097,0.096,0.277,0.277,0.375,0.375
					c-6.219,5.121-11.514,11.262-17.328,16.826c-41.217,41.217-82.442,82.426-123.643,123.643c-3.002,3.205-6.469,5.988-9.068,9.549
					c6.759,7.133,14.056,13.766,20.726,20.994c15.344,15.143,30.563,30.389,45.723,45.713
					c12.119,11.648,23.719,23.834,35.674,35.654c16.027,15.969,31.947,32.055,48.109,47.879l-0.441,0.443
					c-14.824,14.957-29.754,29.811-44.664,44.701c-2.369,2.551-5.256,4.697-7.026,7.75l-192.902-0.285"/>
			</g>
			<g>
				<path fill="#FFFFFF" d="M734.692,8550.9c-12.39-13.082-26.152-27.703-38.752-40.582c-4.773-4.891-10.164-9.213-14.382-14.633
					h108.23"/>
			</g>
			<g>
				<g>
					<path fill="#FFFFFF" d="M1087.314,8495.971l-106.741,1.236c1.771-3.051,6.776-6.436,9.146-8.986
						c14.91-14.891,30.461-30.432,45.285-45.391"/>
				</g>
				<g>
					<path fill="#FFFFFF" d="M978.966,8495.686l108.351,0.285c-1.771,3.051-4.658,5.197-7.027,7.748
						c-14.91,14.891-31.516,33.012-46.338,47.971"/>
				</g>
			</g>
			<path fill="#FFFFFF" d="M658.417,9333.715c25.365-25.441,50.873-50.748,76.16-76.266
				c49.996,50.004,99.942,100.051,150.018,149.969c-48.602,48.746-97.346,97.355-145.985,146.063
				c-1.326,1.328-2.549,2.887-4.39,3.533c-49.774-49.979-99.801-99.713-149.557-149.709
				C609.401,9382.93,633.804,9358.211,658.417,9333.715z"/>
			<g>
				<path fill="#FFFFFF" d="M1017.306,9574.244c5.814-5.564,11.107-11.705,17.326-16.826
					c50.025,50.15,100.205,100.148,150.222,150.316c-50.064,49.93-99.974,100.004-150.027,149.941
					c-16.162-15.824-32.084-31.91-48.111-47.879c-11.955-11.82-23.553-24.008-35.672-35.652
					c-15.16-15.324-30.379-30.574-45.723-45.715c-6.672-7.229-13.967-13.861-20.726-20.992c2.601-3.564,6.064-6.344,9.066-9.551
					C934.86,9656.668,976.089,9615.461,1017.306,9574.244z"/>
			</g>
			<g>
				<path fill="#FFFFFF" d="M1090.067,9910.57h109.6v190.188c-5.582,4.891-10.781,10.223-15.797,15.68
					c5.113,5.439,10.521,10.598,15.797,15.883v269.012c-4.871,4.959-9.885,9.781-14.719,14.768l-0.097,0.096
					c-50.016-50.17-100.194-100.166-150.221-150.316c-0.096-0.098-0.279-0.279-0.375-0.375c14.861-14.18,29.09-29.043,43.76-43.441
					c35.048-35.25,70.423-70.191,105.345-105.566c-1.867-3.158-5.017-5.236-7.47-7.883c-42.536-42.508-85.055-85.045-127.59-127.553
					c-4.938-4.678-9.299-9.992-14.68-14.17l0.326-0.316C1052.729,9947.977,1071.288,9929.168,1090.067,9910.57z"/>
			</g>
		</g>
	</g>
</g>
<g>
	<path fill="#5F4997" d="M584.791,16078.07c50.025-50.008,100.031-100.031,150.047-150.039c4.619,4.949,9.549,9.607,14.285,14.449
		c44.76,44.74,89.49,89.5,134.25,134.232c1.146,0.818,0.059,2.127-0.684,2.752c-49.533,49.342-98.81,98.963-148.42,148.248
		C684.543,16177.736,634.537,16128.037,584.791,16078.07z"/>
</g>
<g>
	<path fill="#F9D360" d="M1017.402,15944.715c5.813-5.564,11.108-11.707,17.328-16.826
		c50.022,50.15,100.204,100.146,150.219,150.316c-50.063,49.928-99.974,100.002-150.027,149.939
		c-16.162-15.824-32.082-31.908-48.109-47.877c-11.955-11.822-23.555-24.008-35.674-35.654
		c-15.16-15.324-30.379-30.572-45.723-45.713c-6.67-7.229-13.967-13.861-20.725-20.994c2.6-3.563,6.065-6.344,9.067-9.549
		C934.959,16027.139,976.186,15985.932,1017.402,15944.715z"/>
</g>
<g>
	<path fill="#F89113" d="M1034.922,16228.145L1034.922,16228.145c50.055-49.938,99.965-100.012,150.027-149.939l0.098-0.096
		c4.773,5.023,9.654,9.971,14.717,14.707v188.223h-109.987"/>
</g>
<g>
	<path fill="#3F370C" d="M1184.949,16078.045c4.834-4.986,9.848-9.809,14.719-14.766v29.475
		C1194.605,16088.018,1189.725,16083.07,1184.949,16078.045z"/>
</g>
<g>
	<path fill="#22A9BB" d="M679.635,16281.039h110.252c-18.278,18.492-36.799,36.742-55.098,55.215
		C716.463,16317.801,698.01,16299.453,679.635,16281.039z"/>
</g>
<g>
	<path fill="#8DAA35" d="M1012.83,16315.848c2.004,3.117,5.555,4.715,7.654,7.758c1.887,2.887,5.246,4.283,7.266,7.055
		c1.732,2.465,3.928,4.525,6.297,6.383l-0.328,0.316c-46.326,45.641,3.178-4.176-46.326,45.641H781.273
		c-50.072-49.918,3.396,3.383-46.6-46.621l0.115-0.125c18.299-18.473,36.818-36.723,55.098-55.215h189.176"/>
</g>
<g>
	<path fill="#81D0E1" d="M997.922,16301.129"/>
	<path fill="#81D0E1" d="M978.672,16281.039h111.494c-18.781,18.598-37.34,37.406-56.119,56.004
		c-2.369-1.857-4.563-3.918-6.297-6.383c-2.02-2.771-5.379-4.168-7.266-7.055c-2.101-3.043-5.65-4.641-7.654-7.758"/>
</g>
<g>
	<path fill="#3D9D2A" d="M1199.764,16771.801c-4.871,4.957-9.885,9.781-14.717,14.766l-0.098,0.098"/>
	<path fill="#3D9D2A" d="M1079.883,16383c-27.333-9.23,11.051,11.035-31.483-31.471c-4.938-4.678-6.597-6.678-14.681-14.17
		l0.328-0.316c18.779-18.598,37.338-37.406,56.119-56.004h109.598L1200,16383"/>
</g>
<path fill="#F8D834" d="M688.152,16383c25.364-25.441,21.233-21.102,46.521-46.621c49.996,50.004-3.474-3.297,46.599,46.621"/>
<path fill="#F8D834" d="M688.152,16383"/>
<g>
	<path fill="#216058" d="M987.393,16383c49.504-49.816-3.256,4.125,46.326-45.641c5.381,4.178,9.742,9.492,14.681,14.17
		c42.534,42.506-11.054-11.037,31.483,31.471"/>
</g>
<g>
	<path fill="#7FC422" d="M2049.294,15094.449c5.014-5.457,10.213-10.789,15.795-15.68v31.563
		C2059.813,15105.047,2054.405,15099.887,2049.294,15094.449z"/>
</g>
<path fill="#81D0E1" d="M1090.166,16281.039H978.672c22.965-21.553,36.176-34.219,56.25-52.895"/>
<g>
	<path fill="#22A9BB" d="M789.887,16281.039H679.635c18.279-18.49,36.799-36.742,55.099-55.213
		C753.059,16244.279,771.512,16262.625,789.887,16281.039z"/>
</g>
</svg>
