<?xml version="1.0" encoding="utf-8"?>
<!-- Generator: Adobe Illustrator 16.0.3, SVG Export Plug-In . SVG Version: 6.00 Build 0)  -->
<!DOCTYPE svg PUBLIC "-//W3C//DTD SVG 1.1//EN" "http://www.w3.org/Graphics/SVG/1.1/DTD/svg11.dtd">
<svg version="1.1" id="Layer_1" xmlns="http://www.w3.org/2000/svg" xmlns:xlink="http://www.w3.org/1999/xlink" x="0px" y="0px"
	 width="1250px" height="736px" viewBox="0 0 1250 736" enable-background="new 0 0 1250 736" xml:space="preserve">
<rect fill="#FFFFFF" width="1250" height="736"/>
<g>
	<path fill="#1BC4C7" d="M709.65,0h114.54c-18.99,19.21-38.23,38.17-57.24,57.36C747.91,38.19,728.74,19.13,709.65,0z"/>
</g>
<g>
	<path fill="#36EDAA" d="M824.19,0h196.53c2.46,4.22,5.98,7.51,9.75,10.51c2.59,4.12,6.95,6.51,9.84,10.36
		c2.17,2.76,5.4,4.46,7.45,7.35c2.11,3.23,5.98,4.67,8.04,7.94c2.08,3.24,5.77,4.9,7.95,8.06c1.96,3,5.45,4.45,7.55,7.33
		c1.8,2.56,4.08,4.7,6.54,6.63l-0.34,0.33c-51.51,51.7-103.28,103.13-154.71,154.88l-0.11-0.1
		c-52.02-51.86-103.91-103.85-155.85-155.8l0.12-0.13C785.96,38.17,805.2,19.21,824.19,0z"/>
</g>
<g>
	<path fill="#6BFA7A" d="M1020.72,0h115.42c-19.51,19.32-38.79,38.86-58.3,58.18c-2.46-1.93-4.74-4.07-6.54-6.63
		c-2.1-2.88-5.59-4.33-7.55-7.33c-2.18-3.16-5.87-4.82-7.95-8.06c-2.06-3.27-5.93-4.71-8.04-7.94c-2.05-2.89-5.28-4.59-7.45-7.35
		c-2.89-3.85-7.25-6.24-9.84-10.36C1026.7,7.51,1023.18,4.22,1020.72,0z"/>
</g>
<g>
	<path fill="#3FA224" d="M1136.14,0H1250v197.58c-5.8,5.08-11.2,10.62-16.41,16.29c5.31,5.65,10.93,11.01,16.41,16.5v279.47
		c-5.06,5.15-10.27,10.16-15.29,15.34l-0.1,0.1c-51.96-52.12-104.09-104.06-156.06-156.16c-0.1-0.1-0.29-0.29-0.39-0.39
		c15.44-14.73,30.22-30.17,45.46-45.13c36.41-36.62,73.16-72.92,109.44-109.67c-1.94-3.28-5.21-5.44-7.76-8.19
		c-44.19-44.16-88.36-88.35-132.55-132.51c-5.13-4.86-9.66-10.38-15.25-14.72l0.34-0.33C1097.35,38.86,1116.63,19.32,1136.14,0z"/>
</g>
<g>
	<path fill="#FED837" d="M687.71,136.72c26.35-26.43,52.85-52.72,79.12-79.23c51.94,51.95,103.83,103.94,155.85,155.8
		c-50.49,50.64-101.13,101.14-151.66,151.74c-1.38,1.38-2.65,3-4.56,3.67c-51.71-51.92-103.68-103.59-155.37-155.53
		C636.79,187.85,662.14,162.17,687.71,136.72z"/>
	<path fill="#FED837" d="M766.71,680.92c12.87,13.59,26.42,26.5,39.51,39.88c4.96,5.08,10.56,9.57,14.94,15.2H711.84
		c1.96-2.38,4.07-4.64,6.29-6.78C734.4,713.2,750.29,696.76,766.71,680.92z"/>
</g>
<g>
	<path fill="#216058" d="M1077.5,58.51c5.59,4.34,10.12,9.86,15.25,14.72c44.19,44.16,88.36,88.35,132.55,132.51
		c2.55,2.75,5.82,4.91,7.76,8.19c-36.28,36.75-73.03,73.05-109.44,109.67c-15.24,14.96-30.02,30.4-45.46,45.13
		c-51.85-51.71-103.61-103.53-155.37-155.34C974.22,161.64,1025.99,110.21,1077.5,58.51z"/>
</g>
<g>
	<path fill="#80E20F" d="M1233.59,213.87c5.21-5.67,10.61-11.21,16.41-16.29v32.79C1244.52,224.88,1238.9,219.52,1233.59,213.87z"/>
</g>
<g>
	<path fill="#FF7D99" d="M922.68,213.29l0.11,0.1c51.76,51.81,103.52,103.63,155.37,155.34c0.1,0.1,0.29,0.29,0.39,0.39
		c-6.46,5.32-11.96,11.7-18,17.48c-42.82,42.82-85.65,85.63-128.45,128.45c-3.12,3.33-6.72,6.22-9.42,9.92
		c7.02,7.41,14.6,14.3,21.53,21.81c15.94,15.73,31.75,31.57,47.5,47.49c12.59,12.1,24.64,24.76,37.06,37.04
		c16.65,16.59,33.19,33.3,49.98,49.74l-0.46,0.46c-15.4,15.54-30.91,30.97-46.4,46.44c-2.46,2.65-5.46,4.88-7.3,8.05H821.16
		c-4.38-5.63-9.98-10.12-14.94-15.2c-13.09-13.38-26.64-26.29-39.51-39.88l-0.3-0.32c51.54-51.2,102.73-102.75,154.19-154.01
		c0.77-0.65,1.9-2.01,0.71-2.86c-46.5-46.47-92.97-92.97-139.47-139.45c-4.92-5.03-10.04-9.87-14.84-15.01
		c-0.13-0.14-0.4-0.43-0.54-0.57c1.91-0.67,3.18-2.29,4.56-3.67C821.55,314.43,872.19,263.93,922.68,213.29z"/>
</g>
<g>
	<path fill="#944ABD" d="M611.12,525.14C663.09,473.19,715.04,421.22,767,369.27c4.8,5.14,9.92,9.98,14.84,15.01
		c46.5,46.48,92.97,92.98,139.47,139.45c1.19,0.85,0.06,2.21-0.71,2.86C869.14,577.85,817.95,629.4,766.41,680.6
		C714.75,628.68,662.8,577.05,611.12,525.14z"/>
</g>
<g>
	<path fill="#FED360" d="M1060.55,386.6c6.04-5.78,11.54-12.16,18-17.48c51.97,52.1,104.1,104.04,156.06,156.16
		c-52.01,51.87-103.86,103.89-155.86,155.77c-16.79-16.44-33.33-33.15-49.98-49.74c-12.42-12.28-24.47-24.94-37.06-37.04
		c-15.75-15.92-31.56-31.76-47.5-47.49c-6.93-7.51-14.51-14.4-21.53-21.81c2.7-3.7,6.3-6.59,9.42-9.92
		C974.9,472.23,1017.73,429.42,1060.55,386.6z"/>
</g>
<g>
	<path fill="#3F3709" d="M1234.71,525.18c5.02-5.18,10.23-10.19,15.29-15.34v30.62C1244.74,535.54,1239.67,530.4,1234.71,525.18z"/>
</g>
<g>
	<path fill="#FF910D" d="M1234.61,525.28l0.1-0.1c4.96,5.22,10.03,10.36,15.29,15.28V736h-116.72
		c-13.92-14.51-28.42-28.44-42.51-42.77c-4.19-3.88-7.74-8.48-12.48-11.72l0.46-0.46C1130.75,629.17,1182.6,577.15,1234.61,525.28z"
		/>
</g>
<g>
	<path fill="#FF2C1B" d="M1031.89,727.95c15.49-15.47,31-30.9,46.4-46.44c4.74,3.24,8.29,7.84,12.48,11.72
		c14.09,14.33,28.59,28.26,42.51,42.77h-108.69C1026.43,732.83,1029.43,730.6,1031.89,727.95z"/>
</g>
</svg>
