<?xml version="1.0" encoding="utf-8"?>
<!-- Generator: Adobe Illustrator 16.0.3, SVG Export Plug-In . SVG Version: 6.00 Build 0)  -->
<!DOCTYPE svg PUBLIC "-//W3C//DTD SVG 1.1//EN" "http://www.w3.org/Graphics/SVG/1.1/DTD/svg11.dtd">
<svg version="1.1" id="Layer_1" xmlns="http://www.w3.org/2000/svg" xmlns:xlink="http://www.w3.org/1999/xlink" x="0px" y="0px"
	 width="372px" height="320px" viewBox="0 0 372 320" enable-background="new 0 0 372 320" xml:space="preserve">
<g>
	<path fill="#FFFFFF" d="M123.15,199.87l0.12-1.2c0.24,4.44,0.29,8.89,0.34,13.34c-0.07-0.38-0.2-1.15-0.27-1.53
		C122.96,206.96,123.03,203.4,123.15,199.87z"/>
</g>
<g>
	<g>
		<path fill="#461860" d="M152.31,25.21c6.87-8.05,17.5-11.66,27.76-12.54c16.93-1.36,34.73,2.63,48.45,12.91
			c5.72,4.72,11.47,10.93,11.83,18.74c-2.4-0.25-4.78-0.65-7.15-1.06c3.71,6.04,5.79,12.96,6.6,19.97
			c0.98,7.39,0.19,14.89-1.25,22.17c2.56,1.1,5.79,2.07,6.68,5.07c0.03,3.07,0.14,6.15,0.36,9.22c-1.63,7.86-6.43,16.67-15.04,18.17
			c-2.06,7.3-5.45,14.37-10.78,19.86c-3.87,4.26-8.81,7.29-13.76,10.13c11.19,2.36,21.14,9.07,27.71,18.4
			c2.58,1.21,5.76,2.38,6.59,5.45c0.77,3.34-0.58,6.96,1.02,10.17c3.12,7.43,5.09,15.38,5.32,23.46
			c11.14,2.5,21.61,7.89,29.77,15.93c1.89,0.14,3.78,0.3,5.67,0.46c0.37,0.03,1.11,0.09,1.48,0.12c3.21-3.23,6.67-6.19,10.07-9.22
			c1.84-1.87,5.22-0.38,5.41,2.12c0.39,5.76-0.11,11.55,0.36,17.3c3.49,5.17,5.61,11.12,9.94,15.73c4.81-0.47,10.41,0.06,13.52,4.25
			c1.67,1.79,1.38,4.33,1.56,6.58c5.38,0.05,10.77-0.15,16.15,0.05c1.78-0.14,1.41,1.92,1.79,3.07c-6.44,0.39-12.9,0.2-19.34,0.23
			c-90.67,0.01-181.34,0.01-272,0.01c-4.53-0.03-9.1,0.36-13.58-0.49c-0.1-0.54-0.3-1.6-0.4-2.13l0.23,0.03
			c7.67,1.09,15.44,0.55,23.15,0.34l-0.46-0.75c-1.06-1.93-2.16-3.87-2.87-5.96c-1.58-12.12-2.46-24.32-4.35-36.4
			c1.31-2.49,3.78-3.19,6.45-3.02c-8.34-16.21-14.73-34.09-14-52.56c0.23-6.15,1.23-12.39,3.77-18.04c0.68-2.29,3.82-3.09,5.55-1.48
			c3.31,2.54,5.87,5.87,8.81,8.8c1.53-6.77,4.37-13.34,8.86-18.68c1.53-1.14,3.61-1.35,4.93,0.25c6.26,6.36,8.36,15.46,10.36,23.87
			c2.33-2.18,4.54-4.7,7.58-5.88c1.58-0.67,3.2,0.81,3.79,2.19c1.56,3.5,2.12,7.35,2.67,11.11c-0.86,5.89-0.97,11.87,0.1,17.74
			c-0.95,11.2-4.86,21.8-8.68,32.27c2.72,0.45,4.89,1.95,5.69,4.67l0.44,0.81c7.2,0.48,14.45,0.45,21.63-0.26
			c0.71,0.83,1.39,1.69,2.05,2.58c0.15,5.1-0.37,10.19-0.58,15.29c2.7-2.97,5.97-5.32,9.6-7.01c-0.05-4.92-4.96-6.47-7.94-9.38
			c-1.44-2.23-2.66-4.63-3.32-7.2c0.37-5.48,0.54-10.97-0.04-16.43c0.74-4.97,2.44-9.71,4.23-14.38c1.36-3.49-0.16-7.33,0.94-10.86
			c1.06-2.77,4.06-3.71,6.56-4.72c3.83-4.85,8.06-9.52,13.43-12.7c4.41-2.81,9.42-4.36,14.36-5.93
			c-12.12-5.66-21.28-16.82-24.47-29.82c-8.44-1.13-13.18-9.62-15.04-17.14c0.43-3.46,0.56-6.97,0.01-10.43
			c1.55-3.36,5.19-4.26,8.53-4.8c-0.6-3.5-1.42-6.96-1.92-10.47c-1.37-10.97,0.38-24.08,9.91-31.09
			c-4.69-2.16-9.78-5.09-11.53-10.29c-1.18-2.92,1.07-6.22,3.94-6.98c4.26-1.32,8.6,0.63,12.47,2.25c-1.44-3.25-1.65-8.28,1.97-10.1
			C148.16,17.41,150.92,21.85,152.31,25.21z M163.07,21.02c-3.63,2.29-7.9,4.82-9.16,9.21c-0.98,0.49-2,0.91-3.05,1.24
			c-1.44-2.91-2.35-6.05-3.81-8.95c-0.82-0.09-1.64-0.17-2.46-0.24c-0.9,3.8,1.21,7.33,3.19,10.39c0.27,1.05,0.04,3.81-1.69,2.55
			c-4.1-2.02-7.9-4.74-12.48-5.66l0.13-0.1c-1.6,0.29-3.19,0.57-4.79,0.86c-0.1,1.89,0.3,3.71,1.29,5.34c2.76,2.02,5.58,4,8.8,5.24
			c1.67,0.81,4.56,1.48,3.51,3.96C133.08,48.6,129.9,59.69,130.21,69c0.48,9.4,2.3,19.01,6.74,27.39c-0.08-0.43-0.25-1.29-0.33-1.73
			c0.84-0.85,1.63-1.75,2.38-2.69c6.12-10.13,6.77-22.2,8.15-33.64c0.65-0.12,1.95-0.36,2.6-0.48c2.27,4.1,4.26,8.66,8.69,10.9
			l0.1,0.39c1.53,0.32,3.06,0.64,4.6,0.97c-1.04-3.3-1.79-6.69-2.01-10.14c3.35-0.85,5.64,1.99,8.09,3.72
			c5.51,4.43,12.15,7.06,18.74,9.43c11.66,3.79,24.43,2.58,35.93-1.22c1.77-0.41,3.94-1.6,5.44,0.04c-0.51,3.33-5.23,2.34-6.44,5.05
			c0.32,7.33,1.79,14.8,5.63,21.16c3.21-1.62,3.87-5.47,5.07-8.52c4.81-14.47,4.69-31.49-3.52-44.72c-0.78-1.86-2.81-3.48-2.13-5.67
			c2.55-0.05,5.1,0.18,7.65,0.28c-2.92-6.27-8.18-11.31-14.25-14.51c-5.48-3.62-11.82-5.71-18.14-7.3
			C189.98,14.87,175.32,14.59,163.07,21.02z M149.74,65.89c-0.68,4.68-1.16,9.38-2.17,14c-0.86,3.88-2.61,7.47-3.61,11.31
			c-1.63,1.89-2.85,4.09-4.22,6.17c-2.71,2.95-1.46,7.06-1.74,10.65c-0.51,16.71,11.14,32.54,26.86,37.81
			c0.19,0.12,0.57,0.35,0.76,0.47c19.74,7.75,45.09,1.04,56.55-17.31c5.14-7.91,6.41-17.54,5.75-26.79
			c-1.77-1.99-3.37-4.12-4.85-6.33c-2.01-6.11-3.51-12.38-3.73-18.82c-1.01,0.26-2.01,0.51-2.99,0.82
			c-6.76,0.27-13.54,1.6-20.29,0.34c-11.21-1.04-21.38-6.36-30.58-12.51c0.98,2.92,4.15,5.44,3.66,8.6
			C161.6,75.54,154.62,71.29,149.74,65.89z M123.5,92.06c-1.24,5.29,0.71,10.73,3.33,15.29c1.57,3.25,4.48,5.84,7.93,6.94
			c-0.45-4.69-0.09-9.41-0.47-14.1c-1.16-3.8-2.92-7.39-4.25-11.13C127.61,89.12,124.42,89.32,123.5,92.06z M237.58,88.91
			c-1.28,3.7-2.79,7.32-4.82,10.67c-1.24,1.61-1.08,3.66-1.15,5.56c0.03,3.05-0.16,6.1-0.34,9.14c4.27-1.35,7-5.1,8.85-8.97
			c1.8-3.96,3.39-8.44,2.37-12.83C241.99,90.17,239.56,89.44,237.58,88.91z M74.24,133.95c-0.13,0.48-0.4,1.43-0.53,1.91
			c-5.56,6.4-7.26,15.05-8.65,23.18c-2.43,18.73,0.78,37.57,5.26,55.75c0.18-3.76,0.74-7.53,0.4-11.29
			c1.21-8.55,2.06-17.24,5.01-25.43l-0.1-0.39c1.66-4.72,3.72-9.26,5.94-13.73c1-1.52,1.99-3.05,2.96-4.59
			C82.86,150.41,80.97,140.61,74.24,133.95z M52.08,144.02c-0.24,1.3-0.48,2.59-0.72,3.89c-2.02,2.07-1.69,5.38-2.23,8.04
			c-2.64,19.93,4.72,39.39,13.51,56.9c1.15,0.38,2.3,0.77,3.45,1.2c-0.28-2.02-0.48-4.05-1-6.03c-2.17-8.88-3.14-17.98-4.09-27.05
			c-0.46-5.8,0.32-11.62-0.02-17.42c0.33-1.7,0.64-3.39,0.94-5.09c0.09-0.9,0.27-2.7,0.36-3.6
			C59.21,150.95,55.97,147.15,52.08,144.02z M200.44,150.39c-0.97,4.04-3.53,7.28-6.67,9.89c-1.42,0.28-2.76,0.82-4.14,1.23
			c-4.4-0.56-8.85-0.52-13.25,0.08c-3.88-1.02-7.11-3.65-9.36-6.9c-0.39-1.41-0.77-2.82-1.15-4.23
			c-11.65,1.03-22.95,6.95-29.76,16.56c3.47,1.31,7.23,0.92,10.86,0.96c27.34-0.24,54.69,0.2,82.04-0.28l-0.02-1.17
			c-0.05-0.24-0.16-0.72-0.21-0.95l-0.16,0.02C222.03,156.64,211.24,151.81,200.44,150.39z M169.19,151.22
			c2.03,5,7.15,7.56,12.28,8.03c6.02,0.18,13-1.7,15.29-7.95c-4.67,0.71-9.32,1.51-14.02,1.94
			C178.2,152.78,173.7,151.97,169.19,151.22z M87.53,161.49c-8.06,11.15-11.38,24.94-12.77,38.43c-0.25,4.53-0.14,9.07-0.23,13.61
			c4.74,0.16,9.47,0.29,14.21,0.2c8.34-18.82,13.96-40.67,7.06-60.82l-0.91,1.04C91.97,155.96,89.59,158.63,87.53,161.49z
			 M129.71,170.49c-2.4,3.5-0.51,7.74-0.47,11.58c2.03,15.56,3.52,31.19,5.71,46.71c0.52,0.05,1.57,0.16,2.1,0.21
			c6,0.08,11.76,2.05,17.72,2.46c6.65,2.03,13.55,3.13,20.29,4.87c5.15,1.61,10.19-1.11,15.25-1.79c12.57-2.38,25.18-5.3,38-5.62
			c0.66,0.16,1.99,0.48,2.65,0.64c1.51-15.69,3.57-31.33,5.46-46.98c0.32-4.21,2.07-9.12-1.19-12.6c-1.68-0.54-3.43-0.75-5.18-0.72
			c-32-0.44-64.02,0.07-96.02-0.22C132.45,169,130.79,169.22,129.71,170.49z M123.27,198.67l-0.12,1.2l-0.63-1.2
			c-0.42,3.87-1.56,8.34,0.82,11.81c0.07,0.38,0.2,1.15,0.27,1.53c0.84,2.68,2.36,5.12,4.42,7.02c0.75,0.66,1.55,1.26,2.34,1.88
			c-0.04-1.06-0.1-2.11-0.17-3.16c0.8-3.75,1.05-7.99-1.06-11.37c0.09,3.27,0.58,6.51,0.9,9.77c-0.94-4.92-1.26-9.91-1.86-14.86
			l-0.19-1.46l1.16,1c-0.23-4.48-0.64-9.09-2.39-13.26l-0.06-0.71C124.79,190.52,123.96,194.63,123.27,198.67z M239.47,186.79
			c-1.49,11.36-3.07,22.72-4.02,34.14c3.6-2.2,6.3-5.82,7.09-9.99C243.65,202.77,242.49,194.44,239.47,186.79z M245.97,208.2
			c0.1,0.49,0.3,1.49,0.39,1.99c-0.96,3.19-1.74,6.58-3.95,9.19c-1.88,2.63-4.87,4.01-7.38,5.91c-0.65,1.71-0.72,3.56-0.96,5.36
			c4.54,3.09,7.89,7.71,8.52,13.27c1.02-0.38,2.03-0.77,3.05-1.15c1.5-4.45,4.4-8.14,6.79-12.11c0.62-5.75,0.45-11.56,0.77-17.34
			c0.66-0.48,1.98-1.44,2.64-1.92C252.75,209.77,249.39,208.82,245.97,208.2z M256.45,213.82c-0.21,4.7-0.53,9.39-0.98,14.08
			c1.27-0.66,2.55-1.32,3.83-1.97l-0.02-0.25c1.38-0.71,2.75-1.43,4.13-2.15c0.89-0.25,1.79-0.49,2.69-0.73
			C263.06,219.62,259.92,216.53,256.45,213.82z M260.78,213.71c2.51,2.93,5.12,5.87,8.27,8.14c0.77-0.12,2.31-0.38,3.08-0.51
			C268.77,218.24,265.05,215.44,260.78,213.71z M295.29,215.37c-3.22,2.17-5.77,5.16-8.64,7.74c0.47,0.23,1.41,0.71,1.88,0.94
			c1.36,0.74,2.74,1.46,4.11,2.2l-0.01,0.32c1.41,0.94,2.82,1.89,4.23,2.84c-0.08-4.67,0.12-9.36-0.43-14
			C296.15,215.4,295.58,215.38,295.29,215.37z M56.45,216.85c0.2,1.31,0.4,2.63,0.6,3.95c2.58,0,5.16,0,7.74,0.01
			c8.89-0.05,17.79,0.03,26.68-0.05c1.27-1.33,2.58-2.63,3.91-3.91c-1.43-0.52-2.9-0.94-4.43-0.86c-9.65,0.04-19.29-0.02-28.93,0.1
			C60.14,216.07,58.28,216.42,56.45,216.85z M95,220.07l-0.19,1.13c-0.16,10.95,0.66,21.91,1.32,32.84
			c-0.16,1.95,1.21,3.36,2.51,4.61l-0.04,0.3c5.12-0.12,10.25,0.04,15.37-0.21c2.02-0.05,3.89-1.66,4-3.73
			c0.73-5.42,0.61-10.91,0.9-16.36c0.6-3.25,0.49-6.58,0.55-9.87c0.31-2.43,0.68-5.37-0.43-7.57l-0.02-0.91
			C110.98,220.22,102.99,220.28,95,220.07z M57.07,223.73c0.03,0.83,0.09,2.48,0.12,3.31c2.92,0.14,5.84,0.21,8.76,0.18
			c8.67-0.19,17.37,0.35,26.03-0.36c-0.27-1.04-0.56-2.07-0.87-3.09c-8.44-0.34-16.89,0.04-25.33-0.15
			C62.87,223.59,59.97,223.64,57.07,223.73z M249.22,241.83c3.18,0.45,6.54,0.85,9.26,2.73c4.33,2.74,7.68,8.06,6.05,13.29
			c3.86,0.02,7.72,0.04,11.58-0.11c9.29,0.57,18.65-0.37,27.93,0.46c3.73-2.37,3.78-8.16,0.97-11.27c-1.35-1.52-2.71-3.05-3.6-4.88
			c-0.53,0.38-1.58,1.15-2.11,1.53c-3.08,0.59-6.04-1.11-6.69-4.26c1.87,0.95,3.81,1.76,5.84,2.32c0.62-0.32,1.87-0.96,2.49-1.28
			c-5-11.17-17.69-17.7-29.7-16.19l-0.03-0.01C261.56,226.01,253.27,232.94,249.22,241.83z M57.98,229.88
			c0.82,7.25,1.43,14.53,2.47,21.76c0.46,3.53,3.8,6.63,7.46,6.33c5.41,0.02,10.82,0.14,16.23-0.04c2.06,0.07,3.59-1.47,5.21-2.5
			c1.99-3.47,1.79-7.56,2.43-11.39c0.72-4.69,0.12-9.43-0.07-14.14c-8.45-0.04-16.9-0.02-25.35-0.01
			C63.56,229.89,60.77,229.88,57.98,229.88z M123.47,242.57l-0.33,0.39c0.18,1.71,0.33,3.42,0.46,5.13
			c1.29,3.48,3.32,6.81,6.61,8.71c2.84-2.65,6.59-3.25,10.16-4.36l0.64,0.11c5-2.12,8.28-8.06,14.35-7.03
			c0.31-0.53,0.93-1.57,1.23-2.1c3.29-1.55,7.03-1.94,10.23-3.74c1.17,0.08,2.35,0.09,3.54,0.02c-1.09-1.57-3.07-1.7-4.76-2.14
			c-9.15-1.85-18.26-4.01-27.52-5.24C131.52,231.56,124.98,236.12,123.47,242.57z M164.04,244.52c-1.89,0.7-4.98,0.69-4.9,3.42
			c0.18,2.25,0.23,4.51,0.25,6.78c-0.02,1.28-0.02,2.57-0.02,3.86c22.49-0.16,44.99,0.16,67.47-0.13
			c9.27-0.62,15.16-11.82,10.56-19.88c-2.99-4.28-8.23-6.9-13.47-6.2C203.7,234.9,183.65,238.92,164.04,244.52z M247.07,245.37
			c-1.84,0.96-4.36,1.6-5.11,3.79c-0.97,2.62-2.2,5.13-3.77,7.46c0.15,0.41,0.45,1.23,0.6,1.64l-1.04,0.14
			c6.12,0.83,12.44,1,18.55-0.02l-0.96-0.12c0.24-1.86,0.51-3.72,0.81-5.56c0.64,1.72,1.27,3.45,1.64,5.26
			c2.21,0.03,4.78-1.28,4.08-3.93C260.33,247.73,253.26,243.97,247.07,245.37z M148.41,251.35c-2.43,2.4-5.6,3.79-8.8,4.81
			l-0.88-0.16c-1.83,0.42-3.8,0.87-5,2.46c7.39,0.28,14.79,0,22.18,0.16c-0.39-3.48,1.26-7.77-1.38-10.61
			C152.19,248.52,150.08,249.64,148.41,251.35z M310.21,250.36c-0.48,2.75-0.85,5.54-1.75,8.2c4.43-0.2,8.87-0.12,13.31-0.1
			c-0.07-1.2-0.13-2.39-0.21-3.57c-1.19-2.05-3.17-3.53-5.42-4.21C314.19,250.28,312.18,249.87,310.21,250.36z M121.74,252.95
			c-0.41,1.92-0.84,3.84-1.28,5.75c1.92-0.02,3.84-0.04,5.76-0.05C124.75,256.73,123.24,254.85,121.74,252.95z M91.52,258.78
			c0.51-0.03,1.53-0.07,2.04-0.09c0.09-0.35,0.26-1.05,0.34-1.4C93.29,254.93,90.18,257.2,91.52,258.78z"/>
	</g>
</g>
<g>
	<path fill="#DAA8B2" d="M163.07,21.02c12.25-6.43,26.91-6.15,40.13-3.31c6.32,1.59,12.66,3.68,18.14,7.3
		c-9.81-3.4-20.02-5.7-30.39-6.39c-3.46-0.58-6.03,2.22-9.16,3.06c-3.02,0.06-5.77-1.69-8.78-1.64c-2.92,0.32-5.68,1.46-8.31,2.7
		c-4.02,1.87-6.86,5.48-10.79,7.49C155.17,25.84,159.44,23.31,163.07,21.02z"/>
	<path fill="#DAA8B2" d="M128.95,30.32c1.6-0.29,3.19-0.57,4.79-0.86l-0.13,0.1c-0.96,0.79-1.92,1.58-2.88,2.38
		c-0.16,1.24-0.32,2.48-0.49,3.72C129.25,34.03,128.85,32.21,128.95,30.32z"/>
</g>
<g>
	<g>
		<path fill="#AD3D51" d="M181.79,21.68c3.13-0.84,5.7-3.64,9.16-3.06c10.37,0.69,20.58,2.99,30.39,6.39
			c6.07,3.2,11.33,8.24,14.25,14.51c-2.55-0.1-5.1-0.33-7.65-0.28c-0.68,2.19,1.35,3.81,2.13,5.67c0.45,5.74-0.53,12.15-4.95,16.24
			c-4.82,4.52-11.91,4.76-18.14,4.51c-11.78-0.77-23.31-3.72-34.56-7.18c-4.69-1.41-9.95-4.4-14.76-1.86
			c-2.25,3.75,0.18,8.2,0.78,12.13c-4.43-2.24-6.42-6.8-8.69-10.9c-1.46-1-3-1.9-4.68-2.47c-2.89,3.27-1.62,8.26-2.57,12.25
			c-1.43,7.04-2.62,14.79-7.79,20.2c-2.78-10.29-3.67-21.65,0.36-31.74c1.6-4.32,5.74-6.99,7.48-11.23
			c1.05-2.48-1.84-3.15-3.51-3.96c-3.22-1.24-6.04-3.22-8.8-5.24c0.17-1.24,0.33-2.48,0.49-3.72c0.96-0.8,1.92-1.59,2.88-2.38
			c4.58,0.92,8.38,3.64,12.48,5.66c1.73,1.26,1.96-1.5,1.69-2.55c-0.6-3.35-1.2-6.74-0.73-10.15c1.46,2.9,2.37,6.04,3.81,8.95
			c1.05-0.33,2.07-0.75,3.05-1.24c3.93-2.01,6.77-5.62,10.79-7.49c2.63-1.24,5.39-2.38,8.31-2.7
			C176.02,19.99,178.77,21.74,181.79,21.68z M197.93,53.18c-0.27,1.44-0.85,3.26,0.85,4.08c4.8,2.82,10.93,3.22,16.24,1.76
			c1.93-0.88,5-1.38,5.18-3.98c-0.46-1.44-1.62-2.43-3.19-2.26C210.66,52.4,204.25,52.36,197.93,53.18z"/>
	</g>
</g>
<g>
	<path fill="#DEACB5" d="M144.59,22.28c0.82,0.07,1.64,0.15,2.46,0.24c-0.47,3.41,0.13,6.8,0.73,10.15
		C145.8,29.61,143.69,26.08,144.59,22.28z"/>
	<path fill="#DEACB5" d="M130.21,69c-0.31-9.31,2.87-20.4,12.34-24.14c-1.74,4.24-5.88,6.91-7.48,11.23
		c-4.03,10.09-3.14,21.45-0.36,31.74c0.62,2.28,1.35,4.53,1.91,6.83c0.08,0.44,0.25,1.3,0.33,1.73
		C132.51,88.01,130.69,78.4,130.21,69z"/>
</g>
<g>
	<path fill="#8E3055" d="M230.07,44.91c8.21,13.23,8.33,30.25,3.52,44.72c-1.2,3.05-1.86,6.9-5.07,8.52
		c-3.84-6.36-5.31-13.83-5.63-21.16c1.21-2.71,5.93-1.72,6.44-5.05c-1.5-1.64-3.67-0.45-5.44-0.04c-11.5,3.8-24.27,5.01-35.93,1.22
		c-6.59-2.37-13.23-5-18.74-9.43c-2.45-1.73-4.74-4.57-8.09-3.72c0.22,3.45,0.97,6.84,2.01,10.14c-1.54-0.33-3.07-0.65-4.6-0.97
		l-0.1-0.39c-0.6-3.93-3.03-8.38-0.78-12.13c4.81-2.54,10.07,0.45,14.76,1.86c11.25,3.46,22.78,6.41,34.56,7.18
		c6.23,0.25,13.32,0.01,18.14-4.51C229.54,57.06,230.52,50.65,230.07,44.91z"/>
</g>
<g>
	<path fill="#BB6472" d="M197.93,53.18c6.32-0.82,12.73-0.78,19.08-0.4c1.57-0.17,2.73,0.82,3.19,2.26c-0.18,2.6-3.25,3.1-5.18,3.98
		c-5.31,1.46-11.44,1.06-16.24-1.76C197.08,56.44,197.66,54.62,197.93,53.18z"/>
</g>
<g>
	<path fill="#8D3256" d="M145.07,55.38c1.68,0.57,3.22,1.47,4.68,2.47c-0.65,0.12-1.95,0.36-2.6,0.48
		c-1.38,11.44-2.03,23.51-8.15,33.64c-0.75,0.94-1.54,1.84-2.38,2.69c-0.56-2.3-1.29-4.55-1.91-6.83c5.17-5.41,6.36-13.16,7.79-20.2
		C143.45,63.64,142.18,58.65,145.07,55.38z"/>
</g>
<g>
	<path fill="#02DBFF" d="M72.19,131.62c8.22-28.89,28.1-54.29,54.43-68.83c0.09,4.07-0.13,8.16,0.48,12.2
		c0.5,3.51,1.32,6.97,1.92,10.47c-3.34,0.54-6.98,1.44-8.53,4.8c-1.29,3.37-0.97,7.03-0.01,10.43c1.86,7.52,6.6,16.01,15.04,17.14
		c3.19,13,12.35,24.16,24.47,29.82c-4.94,1.57-9.95,3.12-14.36,5.93c-5.37,3.18-9.6,7.85-13.43,12.7c-2.5,1.01-5.5,1.95-6.56,4.72
		c-1.1,3.53,0.42,7.37-0.94,10.86c-1.79,4.67-3.49,9.41-4.23,14.38c-1.13,5.39-1.46,11.07,0.04,16.43c0.66,2.57,1.88,4.97,3.32,7.2
		c-0.27,0.27-0.81,0.82-1.08,1.1c-0.66-0.89-1.34-1.75-2.05-2.58c-7.29-1.15-14.72-0.26-22.07-0.55c-0.8-2.72-2.97-4.22-5.69-4.67
		c3.82-10.47,7.73-21.07,8.68-32.27c0.92-5.87,1.04-11.89-0.1-17.74c-0.55-3.76-1.11-7.61-2.67-11.11
		c-0.59-1.38-2.21-2.86-3.79-2.19c-3.04,1.18-5.25,3.7-7.58,5.88c-2-8.41-4.1-17.51-10.36-23.87
		C75.8,130.27,73.72,130.48,72.19,131.62z"/>
	<path fill="#02DBFF" d="M239.8,63.23c32.42,17.52,54.55,52.21,57.83,88.81c0.23,5.33,0.16,10.66,0.15,15.99
		c0.17,10.12-1.99,20.13-4.88,29.78c-2.76,8.3-6.03,16.54-10.81,23.91c-1.89-0.16-3.78-0.32-5.67-0.46
		c-8.16-8.04-18.63-13.43-29.77-15.93c-0.23-8.08-2.2-16.03-5.32-23.46c-1.6-3.21-0.25-6.83-1.02-10.17
		c-0.83-3.07-4.01-4.24-6.59-5.45c-6.57-9.33-16.52-16.04-27.71-18.4c4.95-2.84,9.89-5.87,13.76-10.13
		c5.33-5.49,8.72-12.56,10.78-19.86c8.61-1.5,13.41-10.31,15.04-18.17c0.79-3.04,1.05-6.31-0.36-9.22c-0.89-3-4.12-3.97-6.68-5.07
		C239.99,78.12,240.78,70.62,239.8,63.23z"/>
</g>
<g>
	<path fill="#C58983" d="M149.74,65.89c4.88,5.4,11.86,9.65,19.4,8.41c0.49-3.16-2.68-5.68-3.66-8.6
		c9.2,6.15,19.37,11.47,30.58,12.51c6.75,1.26,13.53-0.07,20.29-0.34c-13.03,4.92-28.04,3.86-40.52-2.19
		c-0.7,0.88-1.4,1.77-2.1,2.66c-6.91,0.46-13.3-2.15-19.7-4.22c-0.35,0.11-1.05,0.32-1.4,0.42c-1.7,3.58-2.19,7.62-4.1,11.11
		c-1.16,2.12-2.95,3.78-4.57,5.55c1-3.84,2.75-7.43,3.61-11.31C148.58,75.27,149.06,70.57,149.74,65.89z"/>
</g>
<g>
	<g>
		<path fill="#FEBC91" d="M152.63,74.54c0.35-0.1,1.05-0.31,1.4-0.42c6.4,2.07,12.79,4.68,19.7,4.22c0.7-0.89,1.4-1.78,2.1-2.66
			c12.48,6.05,27.49,7.11,40.52,2.19c0.98-0.31,1.98-0.56,2.99-0.82c0.22,6.44,1.72,12.71,3.73,18.82
			c-1.05,6.49-0.7,13.19-2.68,19.52c-3.59,12.25-13.21,22.3-24.99,27.05c-9.29,4.37-19.76,4.13-29.78,3.86
			c-0.19-0.12-0.57-0.35-0.76-0.47c-4.8-4.46-10.76-7.58-14.97-12.69c-4-4.77-6.73-10.52-8.49-16.46
			c-1.91-6.28-0.25-12.95-1.66-19.31c1.37-2.08,2.59-4.28,4.22-6.17c1.62-1.77,3.41-3.43,4.57-5.55
			C150.44,82.16,150.93,78.12,152.63,74.54z M152.18,101.44c5.88-1.88,12.32-1.98,18.15,0.15
			C167.17,94.18,155.58,94.23,152.18,101.44z M196.33,101.38c5.97-1.72,12.34-1.9,18.29,0.04c-1.92-2.94-4.91-5.55-8.64-5.38
			C201.97,95.62,198.35,98.07,196.33,101.38z M160.33,105.27c-4.85,3.44-4.28,12.8,1.76,14.56c5.74,0.89,8.42-6.8,6.29-11.19
			C167.46,105.38,163.3,103,160.33,105.27z M201.36,105.26c-4.73,3.26-4.3,12.78,1.62,14.55c5.7,1.01,8.52-6.7,6.38-11.06
			C208.55,105.41,204.37,102.97,201.36,105.26z M168.54,127.52c2.41,9.61,16.66,11.43,21.82,3.3c-4.63,1.12-9.58,2.38-14.28,0.92
			C173.49,130.47,171.23,128.61,168.54,127.52z"/>
	</g>
</g>
<g>
	<path fill="#EDECED" d="M123.5,92.06c0.92-2.74,4.11-2.94,6.54-3c-1.92,1.38-4.52,2.49-5.06,5.05c-1.23,4.47,0.75,8.95,1.85,13.24
		C124.21,102.79,122.26,97.35,123.5,92.06z"/>
	<path fill="#EDECED" d="M288.53,224.05c1.43-1.13,2.86-2.27,4.3-3.39c-0.06,1.86-0.12,3.72-0.19,5.59
		C291.27,225.51,289.89,224.79,288.53,224.05z"/>
	<path fill="#EDECED" d="M66.36,229.89c8.45-0.01,16.9-0.03,25.35,0.01c0.19,4.71,0.79,9.45,0.07,14.14
		c-0.64,3.83-0.44,7.92-2.43,11.39c-4.11-0.07-8.23,0.18-12.33-0.14c-4.11-0.15-7.98-3.31-8.64-7.42
		C67.23,241.94,66.76,235.9,66.36,229.89z"/>
</g>
<g>
	<path fill="#FBBB91" d="M237.58,88.91c1.98,0.53,4.41,1.26,4.91,3.57c1.02,4.39-0.57,8.87-2.37,12.83
		c-2.73,1.62-5.78,1.15-8.51-0.17c0.07-1.9-0.09-3.95,1.15-5.56C234.79,96.23,236.3,92.61,237.58,88.91z"/>
</g>
<g>
	<path fill="#FBBC91" d="M124.98,94.11c0.54-2.56,3.14-3.67,5.06-5.05c1.33,3.74,3.09,7.33,4.25,11.13
		c0.38,4.69,0.02,9.41,0.47,14.1c-3.45-1.1-6.36-3.69-7.93-6.94C125.73,103.06,123.75,98.58,124.98,94.11z"/>
</g>
<g>
	<path fill="#1A1F5A" d="M120.48,100.69c-0.96-3.4-1.28-7.06,0.01-10.43C121.04,93.72,120.91,97.23,120.48,100.69z"/>
</g>
<g>
	<path fill="#152B68" d="M245.23,90.47c1.41,2.91,1.15,6.18,0.36,9.22C245.37,96.62,245.26,93.54,245.23,90.47z"/>
</g>
<g>
	<path fill="#471F60" d="M152.18,101.44c3.4-7.21,14.99-7.26,18.15,0.15C164.5,99.46,158.06,99.56,152.18,101.44z"/>
</g>
<g>
	<path fill="#481F60" d="M196.33,101.38c2.02-3.31,5.64-5.76,9.65-5.34c3.73-0.17,6.72,2.44,8.64,5.38
		C208.67,99.48,202.3,99.66,196.33,101.38z"/>
</g>
<g>
	<path fill="#C68B84" d="M223.07,95.87c1.48,2.21,3.08,4.34,4.85,6.33c0.66,9.25-0.61,18.88-5.75,26.79
		c-11.46,18.35-36.81,25.06-56.55,17.31c10.02,0.27,20.49,0.51,29.78-3.86c11.78-4.75,21.4-14.8,24.99-27.05
		C222.37,109.06,222.02,102.36,223.07,95.87z"/>
</g>
<g>
	<path fill="#F3D4C9" d="M139.74,97.37c1.41,6.36-0.25,13.03,1.66,19.31c1.76,5.94,4.49,11.69,8.49,16.46
		c4.21,5.11,10.17,8.23,14.97,12.69c-15.72-5.27-27.37-21.1-26.86-37.81C138.28,104.43,137.03,100.32,139.74,97.37z"/>
</g>
<g>
	<g>
		<path fill="#441862" d="M160.33,105.27c2.97-2.27,7.13,0.11,8.05,3.37c2.13,4.39-0.55,12.08-6.29,11.19
			C156.05,118.07,155.48,108.71,160.33,105.27z M163.13,108.95c-0.87,1.93,0.28,3.73,1.88,4.78c0.67-1.45,2.26-3.15,1.14-4.79
			C165.83,107.36,163.14,107.28,163.13,108.95z"/>
	</g>
</g>
<g>
	<g>
		<path fill="#451860" d="M201.36,105.26c3.01-2.29,7.19,0.15,8,3.49c2.14,4.36-0.68,12.07-6.38,11.06
			C197.06,118.04,196.63,108.52,201.36,105.26z M202.96,113.34c2.15-1.66,1.58-4.31,0.09-6.18
			C200.36,108.05,199.93,112.8,202.96,113.34z"/>
	</g>
</g>
<g>
	<path fill="#C98A84" d="M231.61,105.14c2.73,1.32,5.78,1.79,8.51,0.17c-1.85,3.87-4.58,7.62-8.85,8.97
		C231.45,111.24,231.64,108.19,231.61,105.14z"/>
</g>
<g>
	<path fill="#FDF9FF" d="M163.13,108.95c0.01-1.67,2.7-1.59,3.02-0.01c1.12,1.64-0.47,3.34-1.14,4.79
		C163.41,112.68,162.26,110.88,163.13,108.95z"/>
</g>
<g>
	<path fill="#FFFCFF" d="M202.96,113.34c-3.03-0.54-2.6-5.29,0.09-6.18C204.54,109.03,205.11,111.68,202.96,113.34z"/>
</g>
<g>
	<path fill="#471C5C" d="M168.54,127.52c2.69,1.09,4.95,2.95,7.54,4.22c4.7,1.46,9.65,0.2,14.28-0.92
		C185.2,138.95,170.95,137.13,168.54,127.52z"/>
</g>
<g>
	<path fill="#72E9B6" d="M74.24,133.95c6.73,6.66,8.62,16.46,10.29,25.41c-0.97,1.54-1.96,3.07-2.96,4.59
		c0.94-6.07-0.36-12.24-2.71-17.84c-1.51-3.52-3.57-6.76-5.15-10.25C73.84,135.38,74.11,134.43,74.24,133.95z"/>
	<path fill="#72E9B6" d="M52.08,144.02c3.89,3.13,7.13,6.93,10.2,10.84c-0.09,0.9-0.27,2.7-0.36,3.6c-2.29-3.14-4.86-6.07-7.46-8.95
		c-0.72-0.82-1.44-1.64-2.15-2.45c-0.24,0.21-0.71,0.64-0.95,0.85C51.6,146.61,51.84,145.32,52.08,144.02z"/>
</g>
<g>
	<path fill="#2A9576" d="M65.06,159.04c1.39-8.13,3.09-16.78,8.65-23.18c1.58,3.49,3.64,6.73,5.15,10.25c-0.3,0.5-0.6,1-0.89,1.5
		c-0.92-1.62-1.92-3.19-2.99-4.7c-3.88,8.5-6.03,17.74-6.33,27.07c-0.18,11.2-0.32,22.51,2.07,33.52c0.34,3.76-0.22,7.53-0.4,11.29
		C65.84,196.61,62.63,177.77,65.06,159.04z"/>
</g>
<g>
	<path fill="#4BAE6C" d="M68.65,169.98c0.3-9.33,2.45-18.57,6.33-27.07c-0.64,6.35-0.24,12.74-0.33,19.12
		c0.07,5.22-0.65,10.58,0.98,15.65l0.1,0.39c-2.95,8.19-3.8,16.88-5.01,25.43C68.33,192.49,68.47,181.18,68.65,169.98z"/>
</g>
<g>
	<path fill="#4BEE76" d="M74.98,142.91c1.07,1.51,2.07,3.08,2.99,4.7c0.29-0.5,0.59-1,0.89-1.5c2.35,5.6,3.65,11.77,2.71,17.84
		c-2.22,4.47-4.28,9.01-5.94,13.73c-1.63-5.07-0.91-10.43-0.98-15.65C74.74,155.65,74.34,149.26,74.98,142.91z"/>
</g>
<g>
	<path fill="#299677" d="M51.36,147.91c0.24-0.21,0.71-0.64,0.95-0.85c0.71,0.81,1.43,1.63,2.15,2.45c-0.2,1.67-0.4,3.34-0.62,5.01
		c-3.73,19.99,3.82,39.69,11.09,57.97c-0.57,0.09-1.72,0.27-2.29,0.36c-8.79-17.51-16.15-36.97-13.51-56.9
		C49.67,153.29,49.34,149.98,51.36,147.91z"/>
</g>
<g>
	<path fill="#30C077" d="M54.46,149.51c2.6,2.88,5.17,5.81,7.46,8.95c-0.3,1.7-0.61,3.39-0.94,5.09l-0.09-0.93l-0.1-1.02
		c-0.78-3.47-3.42-6.12-5.7-8.71l-0.48,0.63l-0.77,1C54.06,152.85,54.26,151.18,54.46,149.51z"/>
</g>
<g>
	<path fill="#C19228" d="M200.44,150.39c10.8,1.42,21.59,6.25,28.18,15.21c-2.95,0.58-5.94,0.91-8.93,0.88
		c-2.79-4.28-7.35-8.01-12.72-7.75c-4.42,0.27-8.82,0.95-13.2,1.55C196.91,157.67,199.47,154.43,200.44,150.39z"/>
</g>
<g>
	<path fill="#FEBD93" d="M136.11,167.02c6.81-9.61,18.11-15.53,29.76-16.56c0.38,1.41,0.76,2.82,1.15,4.23
		c-0.65-0.87-1.3-1.75-1.94-2.63c-9.57,1.38-18.62,6.54-24.5,14.25c26.36,0.45,52.74,0.12,79.11,0.17c2.99,0.03,5.98-0.3,8.93-0.88
		l0.16-0.02c0.05,0.23,0.16,0.71,0.21,0.95C198.04,167.21,167.06,166.28,136.11,167.02z"/>
	<path fill="#FEBD93" d="M169.19,151.22c4.51,0.75,9.01,1.56,13.55,2.02c-0.39,2.01-0.82,4.01-1.27,6.01
		C176.34,158.78,171.22,156.22,169.19,151.22z"/>
</g>
<g>
	<path fill="#CF8C7F" d="M182.74,153.24c4.7-0.43,9.35-1.23,14.02-1.94c-2.29,6.25-9.27,8.13-15.29,7.95
		C181.92,157.25,182.35,155.25,182.74,153.24z"/>
</g>
<g>
	<path fill="#4FEF77" d="M55.09,152.89c2.28,2.59,4.92,5.24,5.7,8.71c-0.26,3.6-0.73,7.18-0.88,10.78
		c-1.92-6.24-3.57-12.56-5.3-18.86L55.09,152.89z"/>
</g>
<g>
	<path fill="#F8C612" d="M140.58,166.31c5.88-7.71,14.93-12.87,24.5-14.25c0.64,0.88,1.29,1.76,1.94,2.63
		c2.25,3.25,5.48,5.88,9.36,6.9c4.31,1.23,8.97,1.36,13.25-0.08c1.38-0.41,2.72-0.95,4.14-1.23c4.38-0.6,8.78-1.28,13.2-1.55
		c5.37-0.26,9.93,3.47,12.72,7.75C193.32,166.43,166.94,166.76,140.58,166.31z"/>
	<path fill="#F8C612" d="M128.03,219.03c-3.64-6.81-3.04-14.81-1.68-22.15c0.63,1.46,1.26,2.92,1.83,4.41
		c0.6,4.95,0.92,9.94,1.86,14.86c0.04,0.4,0.12,1.2,0.16,1.6c0.07,1.05,0.13,2.1,0.17,3.16
		C129.58,220.29,128.78,219.69,128.03,219.03z"/>
</g>
<g>
	<path fill="#4BAF6F" d="M53.84,154.52l0.77-1c1.73,6.3,3.38,12.62,5.3,18.86c0.05,4.25,0.16,8.49,0.57,12.72
		c0.32-7.49,0.67-14.99,0.41-22.48l0.09,0.93c0.34,5.8-0.44,11.62,0.02,17.42c0.95,9.07,1.92,18.17,4.09,27.05
		c0.52,1.98,0.72,4.01,1,6.03c-1.15-0.43-2.3-0.82-3.45-1.2c0.57-0.09,1.72-0.27,2.29-0.36C57.66,194.21,50.11,174.51,53.84,154.52z
		"/>
</g>
<g>
	<path fill="#2A9777" d="M87.53,161.49c2.06-2.86,4.44-5.53,7.36-7.54c0.12,3.07,0.41,6.13,0.39,9.2c-0.71-0.9-1.42-1.78-2.15-2.65
		c-5.72,6.06-9.21,13.81-12.18,21.5c-3.23,8.09-4.31,16.79-5.94,25.3c-0.07-2.47-0.23-4.92-0.25-7.38
		C76.15,186.43,79.47,172.64,87.53,161.49z"/>
</g>
<g>
	<path fill="#46D595" d="M94.89,153.95l0.91-1.04c6.9,20.15,1.28,42-7.06,60.82c-4.74,0.09-9.47-0.04-14.21-0.2
		c0.09-4.54-0.02-9.08,0.23-13.61c0.02,2.46,0.18,4.91,0.25,7.38c-0.03,2.03-0.06,4.06-0.1,6.1c1.61-0.07,3.21-0.14,4.82-0.22
		c2.57-0.18,5.19-0.24,7.71-0.88c2.72-6.13,4.65-12.65,6.55-19.08c1.33-9.95,1.56-20.04,1.29-30.07
		C95.3,160.08,95.01,157.02,94.89,153.95z"/>
</g>
<g>
	<path fill="#4BAD6F" d="M80.95,182c2.97-7.69,6.46-15.44,12.18-21.5c-1.12,7.54-3.64,14.76-5.44,22.15
		c-2.51,10.21-5.77,20.24-7.96,30.53c-1.61,0.08-3.21,0.15-4.82,0.22c0.04-2.04,0.07-4.07,0.1-6.1
		C76.64,198.79,77.72,190.09,80.95,182z"/>
</g>
<g>
	<path fill="#4CF074" d="M93.13,160.5c0.73,0.87,1.44,1.75,2.15,2.65c0.27,10.03,0.04,20.12-1.29,30.07
		c-1.9,6.43-3.83,12.95-6.55,19.08c-2.52,0.64-5.14,0.7-7.71,0.88c2.19-10.29,5.45-20.32,7.96-30.53
		C89.49,175.26,92.01,168.04,93.13,160.5z"/>
</g>
<g>
	<path fill="#42103A" d="M176.38,161.59c4.4-0.6,8.85-0.64,13.25-0.08C185.35,162.95,180.69,162.82,176.38,161.59z"/>
</g>
<g>
	<path fill="#62AD83" d="M59.91,172.38c0.15-3.6,0.62-7.18,0.88-10.78l0.1,1.02c0.26,7.49-0.09,14.99-0.41,22.48
		C60.07,180.87,59.96,176.63,59.91,172.38z"/>
</g>
<g>
	<path fill="#13245C" d="M101.62,180.9c-1.07-5.87-0.96-11.85-0.1-17.74C102.66,169.01,102.54,175.03,101.62,180.9z"/>
</g>
<g>
	<path fill="#31082B" d="M136.11,167.02c30.95-0.74,61.93,0.19,92.88-0.49l0.02,1.17c-27.35,0.48-54.7,0.04-82.04,0.28
		C143.34,167.94,139.58,168.33,136.11,167.02z"/>
</g>
<g>
	<path fill="#270B40" d="M129.71,170.49c1.08-1.27,2.74-1.49,4.32-1.46c32,0.29,64.02-0.22,96.02,0.22c1.75-0.03,3.5,0.18,5.18,0.72
		c-3.11,0.17-6.23,0.17-9.33,0.15c-27.98-0.04-55.95,0.01-83.92-0.02C137.89,170.1,133.77,169.94,129.71,170.49z"/>
</g>
<g>
	<path fill="#E1E5F0" d="M129.71,170.49c4.06-0.55,8.18-0.39,12.27-0.39c27.97,0.03,55.94-0.02,83.92,0.02
		c-0.11,0.58-0.32,1.73-0.42,2.3l-0.16,0.86c-28.44-0.22-56.88,0.08-85.33-0.19c-2.02,0.1-4.2-0.08-6.07,0.86
		c-2.17,1.28-2.66,4.05-2.42,6.37c1.93,16.21,3.99,32.42,5.55,48.67c-0.53-0.05-1.58-0.16-2.1-0.21
		c-2.19-15.52-3.68-31.15-5.71-46.71C129.2,178.23,127.31,173.99,129.71,170.49z"/>
</g>
<g>
	<path fill="#B1A8C6" d="M225.9,170.12c3.1,0.02,6.22,0.02,9.33-0.15c3.26,3.48,1.51,8.39,1.19,12.6
		c-1.89,15.65-3.95,31.29-5.46,46.98c-0.66-0.16-1.99-0.48-2.65-0.64c1.99-11.26,2.52-22.73,4.27-34.04
		c0.58-5.9,1.93-11.83,1.4-17.77c-0.57-4.12-5.4-3.99-8.5-4.68C225.58,171.85,225.79,170.7,225.9,170.12z"/>
</g>
<g>
	<g>
		<path fill="#B9C5D3" d="M133.92,173.95c1.87-0.94,4.05-0.76,6.07-0.86c28.45,0.27,56.89-0.03,85.33,0.19
			c-1.86,12.6-5.78,25.14-13.54,35.4c-5.81,7.45-13.56,13.39-22.38,16.82c-10.94,4.63-22.96,5.07-34.63,5.95
			c-5.96-0.41-11.72-2.38-17.72-2.46c-1.56-16.25-3.62-32.46-5.55-48.67C131.26,178,131.75,175.23,133.92,173.95z M180.35,197.45
			c-4.13,1.58-5.65,7.5-2.39,10.65c3.06,3.75,9.79,2.43,11.17-2.23C191.24,200.87,185.29,194.98,180.35,197.45z"/>
	</g>
</g>
<g>
	<path fill="#9690B2" d="M225.32,173.28l0.16-0.86c3.1,0.69,7.93,0.56,8.5,4.68c0.53,5.94-0.82,11.87-1.4,17.77
		c-1.75,11.31-2.28,22.78-4.27,34.04c-12.82,0.32-25.43,3.24-38,5.62c-5.06,0.68-10.1,3.4-15.25,1.79
		c-6.74-1.74-13.64-2.84-20.29-4.87c11.67-0.88,23.69-1.32,34.63-5.95c8.82-3.43,16.57-9.37,22.38-16.82
		C219.54,198.42,223.46,185.88,225.32,173.28z"/>
</g>
<g>
	<path fill="#E7C978" d="M123.27,198.67c0.69-4.04,1.52-8.15,3.43-11.81l0.06,0.71c0.27,4.1,0.57,8.2,1.23,12.26l0.19,1.46
		c-0.57-1.49-1.2-2.95-1.83-4.41c-1.36,7.34-1.96,15.34,1.68,22.15c-2.06-1.9-3.58-4.34-4.42-7.02
		C123.56,207.56,123.51,203.11,123.27,198.67z"/>
</g>
<g>
	<path fill="#C4922B" d="M239.47,186.79c3.02,7.65,4.18,15.98,3.07,24.15c-0.79,4.17-3.49,7.79-7.09,9.99
		C236.4,209.51,237.98,198.15,239.47,186.79z"/>
</g>
<g>
	<path fill="#421C3D" d="M126.76,187.57c1.75,4.17,2.16,8.78,2.39,13.26l-1.16-1C127.33,195.77,127.03,191.67,126.76,187.57z"/>
</g>
<g>
	<path fill="#1F1A58" d="M120.51,212.67c-1.5-5.36-1.17-11.04-0.04-16.43C121.05,201.7,120.88,207.19,120.51,212.67z"/>
</g>
<g>
	<path fill="#431661" d="M180.35,197.45c4.94-2.47,10.89,3.42,8.78,8.42c-1.38,4.66-8.11,5.98-11.17,2.23
		C174.7,204.95,176.22,199.03,180.35,197.45z"/>
</g>
<g>
	<path fill="#31173B" d="M122.52,198.67l0.63,1.2c-0.12,3.53-0.19,7.09,0.19,10.61C120.96,207.01,122.1,202.54,122.52,198.67z"/>
</g>
<g>
	<path fill="#421537" d="M129.14,206.38c2.11,3.38,1.86,7.62,1.06,11.37c-0.04-0.4-0.12-1.2-0.16-1.6
		C129.72,212.89,129.23,209.65,129.14,206.38z"/>
</g>
<g>
	<path fill="#887094" d="M245.97,208.2c3.42,0.62,6.78,1.57,9.87,3.2c-0.66,0.48-1.98,1.44-2.64,1.92
		c-2.31-0.97-4.65-1.91-6.84-3.13C246.27,209.69,246.07,208.69,245.97,208.2z"/>
</g>
<g>
	<path fill="#74647D" d="M246.36,210.19c2.19,1.22,4.53,2.16,6.84,3.13c-0.32,5.78-0.15,11.59-0.77,17.34
		c-2.39,3.97-5.29,7.66-6.79,12.11c-1.02,0.38-2.03,0.77-3.05,1.15c-0.63-5.56-3.98-10.18-8.52-13.27c0.24-1.8,0.31-3.65,0.96-5.36
		c2.51-1.9,5.5-3.28,7.38-5.91C244.62,216.77,245.4,213.38,246.36,210.19z"/>
</g>
<g>
	<path fill="#8C848E" d="M256.45,213.82c3.47,2.71,6.61,5.8,9.65,8.98c-0.9,0.24-1.8,0.48-2.69,0.73c-1.55-1.28-3.11-2.53-4.68-3.77
		c0.21,1.97,0.41,3.94,0.55,5.92l0.02,0.25c-1.28,0.65-2.56,1.31-3.83,1.97C255.92,223.21,256.24,218.52,256.45,213.82z"/>
</g>
<g>
	<path fill="#866A98" d="M260.78,213.71c4.27,1.73,7.99,4.53,11.35,7.63c-0.77,0.13-2.31,0.39-3.08,0.51
		C265.9,219.58,263.29,216.64,260.78,213.71z"/>
</g>
<g>
	<path fill="#88858F" d="M295.29,215.37c0.29,0.01,0.86,0.03,1.14,0.04c0.55,4.64,0.35,9.33,0.43,14c-1.41-0.95-2.82-1.9-4.23-2.84
		l0.01-0.32c0.07-1.87,0.13-3.73,0.19-5.59c-1.44,1.12-2.87,2.26-4.3,3.39c-0.47-0.23-1.41-0.71-1.88-0.94
		C289.52,220.53,292.07,217.54,295.29,215.37z"/>
</g>
<g>
	<path fill="#340C4B" d="M56.45,216.85c1.83-0.43,3.69-0.78,5.57-0.76c9.64-0.12,19.28-0.06,28.93-0.1c1.53-0.08,3,0.34,4.43,0.86
		c-10.2,0.53-20.43,0.1-30.64,0.25C61.97,217.11,59.21,217.03,56.45,216.85z"/>
</g>
<g>
	<path fill="#B9ADC6" d="M56.45,216.85c2.76,0.18,5.52,0.26,8.29,0.25c0.01,1.23,0.03,2.47,0.05,3.71
		c-2.58-0.01-5.16-0.01-7.74-0.01C56.85,219.48,56.65,218.16,56.45,216.85z"/>
</g>
<g>
	<path fill="#ECEDEE" d="M64.74,217.1c10.21-0.15,20.44,0.28,30.64-0.25c-1.33,1.28-2.64,2.58-3.91,3.91
		c-8.89,0.08-17.79,0-26.68,0.05C64.77,219.57,64.75,218.33,64.74,217.1z"/>
</g>
<g>
	<path fill="#162860" d="M98.63,217.84c7.35,0.29,14.78-0.6,22.07,0.55c-7.18,0.71-14.43,0.74-21.63,0.26L98.63,217.84z"/>
</g>
<g>
	<path fill="#280D4C" d="M95,220.07c7.99,0.21,15.98,0.15,23.97,0.23l0.02,0.91c-8.06-0.15-16.12-0.03-24.18-0.01L95,220.07z"/>
</g>
<g>
	<path fill="#04D8FC" d="M122.75,220.97c0.27-0.28,0.81-0.83,1.08-1.1c2.98,2.91,7.89,4.46,7.94,9.38c-3.63,1.69-6.9,4.04-9.6,7.01
		C122.38,231.16,122.9,226.07,122.75,220.97z"/>
</g>
<g>
	<path fill="#D8D4E0" d="M258.73,219.76c1.57,1.24,3.13,2.49,4.68,3.77c-1.38,0.72-2.75,1.44-4.13,2.15
		C259.14,223.7,258.94,221.73,258.73,219.76z"/>
</g>
<g>
	<path fill="#A2D5F7" d="M94.81,221.2c8.06-0.02,16.12-0.14,24.18,0.01c1.11,2.2,0.74,5.14,0.43,7.57c-0.03-2.07,0-4.14-0.02-6.21
		c-6.8,0.15-13.64-0.52-20.4,0.33c-1.74,1.53-1.19,4.04-1.2,6.08c0.71,8.75,0.79,17.53,1.21,26.3c-0.09,1.12-0.22,2.24-0.37,3.37
		c-1.3-1.25-2.67-2.66-2.51-4.61C95.47,243.11,94.65,232.15,94.81,221.2z"/>
	<path fill="#A2D5F7" d="M123.47,242.57c1.51-6.45,8.05-11.01,14.61-10.25c9.26,1.23,18.37,3.39,27.52,5.24
		c1.69,0.44,3.67,0.57,4.76,2.14c-1.19,0.07-2.37,0.06-3.54-0.02c-7.24-1.77-14.54-3.26-21.82-4.86c-4.22-0.92-8.8-1.63-12.88,0.21
		C128.4,236.4,125.96,239.68,123.47,242.57z"/>
	<path fill="#A2D5F7" d="M164.04,244.52c19.61-5.6,39.66-9.62,59.89-12.15c5.24-0.7,10.48,1.92,13.47,6.2
		c-3.76-3.16-8.52-5.09-13.49-4.26c-21.95,2.51-43.56,7.49-64.77,13.63C159.06,245.21,162.15,245.22,164.04,244.52z"/>
</g>
<g>
	<g>
		<path fill="#22A8F0" d="M97.8,228.98c0.01-2.04-0.54-4.55,1.2-6.08c6.76-0.85,13.6-0.18,20.4-0.33c0.02,2.07-0.01,4.14,0.02,6.21
			c-0.06,3.29,0.05,6.62-0.55,9.87c-1.13,6.17-3.57,12.56-8.98,16.22c-2.74,1.77-6.48,3.76-9.67,1.97
			c-0.98-4.57-0.48-9.28-0.71-13.91c-0.15,4.12-0.12,8.24-0.5,12.35C98.59,246.51,98.51,237.73,97.8,228.98z M102.3,233.26
			c-0.81,4.68-1.82,10.5,1.63,14.38c3.53-2.6,3.51-7.46,2.68-11.34C106.27,234.37,104.44,231.98,102.3,233.26z"/>
	</g>
</g>
<g>
	<path fill="#A64C4B" d="M57.07,223.73c2.9-0.09,5.8-0.14,8.71-0.11c0.04,0.9,0.12,2.7,0.17,3.6c-2.92,0.03-5.84-0.04-8.76-0.18
		C57.16,226.21,57.1,224.56,57.07,223.73z"/>
</g>
<g>
	<path fill="#D16342" d="M65.78,223.62c8.44,0.19,16.89-0.19,25.33,0.15c0.31,1.02,0.6,2.05,0.87,3.09
		c-8.66,0.71-17.36,0.17-26.03,0.36C65.9,226.32,65.82,224.52,65.78,223.62z"/>
</g>
<g>
	<path fill="#73657C" d="M249.22,241.83c4.05-8.89,12.34-15.82,21.99-17.67c0.51,4.28-2.39,7.83-3.39,11.81
		c-1.25,4.66-1.81,9.77-0.18,14.41c1.31,3.77,5.13,5.69,8.47,7.36c-3.86,0.15-7.72,0.13-11.58,0.11c1.63-5.23-1.72-10.55-6.05-13.29
		C255.76,242.68,252.4,242.28,249.22,241.83z"/>
</g>
<g>
	<g>
		<path fill="#888886" d="M271.21,224.16l0.03,0.01c4.58,1.39,9.6,1.28,13.91,3.55c5.86,2.9,11.25,7.52,13.3,13.92
			c-2.03-0.56-3.97-1.37-5.84-2.32c0.65,3.15,3.61,4.85,6.69,4.26c1.83,2.33,4.08,4.52,4.92,7.44c0.29,2.39-0.08,4.79-0.18,7.18
			c-9.28-0.83-18.64,0.11-27.93-0.46c-3.34-1.67-7.16-3.59-8.47-7.36c-1.63-4.64-1.07-9.75,0.18-14.41
			C268.82,231.99,271.72,228.44,271.21,224.16z M276.63,243.51c2.8,1.22,5.3-1.27,6.52-3.56c-1.71,0.48-3.4,1.04-5.14,1.38
			c-1.78-0.36-3.34-1.34-4.97-2.09C273.67,241.07,274.57,242.98,276.63,243.51z M285.81,246.77c-1.36,2.11,1.91,3.38,3.35,4.24
			c-0.01,1.36-0.01,2.73-0.01,4.1c0.93-3.04,4.47-5.57,3.73-8.79C290.53,246.07,288.09,246.06,285.81,246.77z"/>
	</g>
</g>
<g>
	<path fill="#B9ADC4" d="M271.24,224.17c12.01-1.51,24.7,5.02,29.7,16.19c-0.62,0.32-1.87,0.96-2.49,1.28
		c-2.05-6.4-7.44-11.02-13.3-13.92C280.84,225.45,275.82,225.56,271.24,224.17z"/>
	<path fill="#B9ADC4" d="M57.98,229.88c2.79,0,5.58,0.01,8.38,0.01c0.4,6.01,0.87,12.05,2.02,17.98c0.66,4.11,4.53,7.27,8.64,7.42
		c4.1,0.32,8.22,0.07,12.33,0.14c-1.62,1.03-3.15,2.57-5.21,2.5c-5.41,0.18-10.82,0.06-16.23,0.04c-3.66,0.3-7-2.8-7.46-6.33
		C59.41,244.41,58.8,237.13,57.98,229.88z"/>
	<path fill="#B9ADC4" d="M310.21,250.36c1.97-0.49,3.98-0.08,5.93,0.32c-1.52-0.05-3.03-0.09-4.53-0.1c0.3,1.93,0.52,3.9,1.12,5.78
		c2.66,1.05,5.59,0.9,8.4,0.91c0.11-0.59,0.32-1.79,0.43-2.38c0.08,1.18,0.14,2.37,0.21,3.57c-4.44-0.02-8.88-0.1-13.31,0.1
		C309.36,255.9,309.73,253.11,310.21,250.36z"/>
</g>
<g>
	<path fill="#4DB9F1" d="M102.3,233.26c2.14-1.28,3.97,1.11,4.31,3.04c0.83,3.88,0.85,8.74-2.68,11.34
		C100.48,243.76,101.49,237.94,102.3,233.26z"/>
</g>
<g>
	<path fill="#4B83FD" d="M132.12,235.03c4.08-1.84,8.66-1.13,12.88-0.21c7.28,1.6,14.58,3.09,21.82,4.86
		c-3.2,1.8-6.94,2.19-10.23,3.74c-0.3,0.53-0.92,1.57-1.23,2.1c-6.07-1.03-9.35,4.91-14.35,7.03l-0.64-0.11
		c-5.68-1.08-11.79-1-16.77-4.35c-0.13-1.71-0.28-3.42-0.46-5.13l0.33-0.39C125.96,239.68,128.4,236.4,132.12,235.03z"/>
</g>
<g>
	<path fill="#4B83FF" d="M159.14,247.94c21.21-6.14,42.82-11.12,64.77-13.63c4.97-0.83,9.73,1.1,13.49,4.26
		c-1.04,3.62-1.89,7.47-4.34,10.46c-2.81,3.7-7.48,5.7-12.08,5.62c-20.53,0.03-41.07-0.22-61.59,0.07
		C159.37,252.45,159.32,250.19,159.14,247.94z"/>
</g>
<g>
	<path fill="#3A7CC0" d="M109.89,254.87c5.41-3.66,7.85-10.05,8.98-16.22c-0.29,5.45-0.17,10.94-0.9,16.36
		c-0.11,2.07-1.98,3.68-4,3.73c-5.12,0.25-10.25,0.09-15.37,0.21l0.04-0.3c0.15-1.13,0.28-2.25,0.37-3.37
		c0.38-4.11,0.35-8.23,0.5-12.35c0.23,4.63-0.27,9.34,0.71,13.91C103.41,258.63,107.15,256.64,109.89,254.87z"/>
</g>
<g>
	<path fill="#4861CC" d="M237.4,238.57c4.6,8.06-1.29,19.26-10.56,19.88c-22.48,0.29-44.98-0.03-67.47,0.13c0-1.29,0-2.58,0.02-3.86
		c20.52-0.29,41.06-0.04,61.59-0.07c4.6,0.08,9.27-1.92,12.08-5.62C235.51,246.04,236.36,242.19,237.4,238.57z"/>
</g>
<g>
	<path fill="#4A295C" d="M276.63,243.51c-2.06-0.53-2.96-2.44-3.59-4.27c1.63,0.75,3.19,1.73,4.97,2.09
		c1.74-0.34,3.43-0.9,5.14-1.38C281.93,242.24,279.43,244.73,276.63,243.51z"/>
</g>
<g>
	<path fill="#B4B9B8" d="M299.3,243.58c0.53-0.38,1.58-1.15,2.11-1.53c0.89,1.83,2.25,3.36,3.6,4.88c2.81,3.11,2.76,8.9-0.97,11.27
		c0.1-2.39,0.47-4.79,0.18-7.18C303.38,248.1,301.13,245.91,299.3,243.58z"/>
</g>
<g>
	<path fill="#C7B8D0" d="M247.07,245.37c6.19-1.4,13.26,2.36,14.8,8.66c0.7,2.65-1.87,3.96-4.08,3.93c-0.37-1.81-1-3.54-1.64-5.26
		c-0.3,1.84-0.57,3.7-0.81,5.56c-5.5-0.5-11.06-0.49-16.55,0c-0.15-0.41-0.45-1.23-0.6-1.64c5.67,1.34,11.51,0.72,17.27,0.67
		c-0.5-3.29-0.39-7.12-2.97-9.59C251.08,246.19,248.97,245.82,247.07,245.37z"/>
</g>
<g>
	<path fill="#FEFDFE" d="M241.96,249.16c0.75-2.19,3.27-2.83,5.11-3.79c1.9,0.45,4.01,0.82,5.42,2.33c2.58,2.47,2.47,6.3,2.97,9.59
		c-5.76,0.05-11.6,0.67-17.27-0.67C239.76,254.29,240.99,251.78,241.96,249.16z"/>
</g>
<g>
	<path fill="#491762" d="M285.81,246.77c2.28-0.71,4.72-0.7,7.07-0.45c0.74,3.22-2.8,5.75-3.73,8.79c0-1.37,0-2.74,0.01-4.1
		C287.72,250.15,284.45,248.88,285.81,246.77z"/>
</g>
<g>
	<path fill="#4863CF" d="M123.6,248.09c4.98,3.35,11.09,3.27,16.77,4.35c-3.57,1.11-7.32,1.71-10.16,4.36
		C126.92,254.9,124.89,251.57,123.6,248.09z"/>
</g>
<g>
	<path fill="#FCFEFB" d="M148.41,251.35c1.67-1.71,3.78-2.83,6.12-3.34c-0.74,2.75-0.29,6.73-3.53,7.99
		c-3.62,1.45-7.66,0.76-11.39,0.16C142.81,255.14,145.98,253.75,148.41,251.35z"/>
</g>
<g>
	<path fill="#C7BAD0" d="M154.53,248.01c2.64,2.84,0.99,7.13,1.38,10.61c-7.39-0.16-14.79,0.12-22.18-0.16
		c1.2-1.59,3.17-2.04,5-2.46l0.88,0.16c3.73,0.6,7.77,1.29,11.39-0.16C154.24,254.74,153.79,250.76,154.53,248.01z"/>
</g>
<g>
	<path fill="#EAEFEF" d="M311.61,250.58c1.5,0.01,3.01,0.05,4.53,0.1c2.25,0.68,4.23,2.16,5.42,4.21c-0.11,0.59-0.32,1.79-0.43,2.38
		c-2.81-0.01-5.74,0.14-8.4-0.91C312.13,254.48,311.91,252.51,311.61,250.58z"/>
</g>
<g>
	<path fill="#17D1F9" d="M121.74,252.95c1.5,1.9,3.01,3.78,4.48,5.7c-1.92,0.01-3.84,0.03-5.76,0.05
		C120.9,256.79,121.33,254.87,121.74,252.95z"/>
</g>
<g>
	<path fill="#240E45" d="M238.79,258.26c5.49-0.49,11.05-0.5,16.55,0l0.96,0.12c-6.11,1.02-12.43,0.85-18.55,0.02L238.79,258.26z"/>
</g>
<g>
	<path fill="#28104A" d="M37.28,259.37c3.1-1.27,6.5-0.63,9.75-0.76c4.31,0.17,8.67-0.4,12.94,0.35l0.46,0.75
		C52.72,259.92,44.95,260.46,37.28,259.37z"/>
</g>
<g>
	<path fill="#C8B9D0" d="M26.78,261.74c3.52-0.47,7.15-1.14,10.67-0.27c4.48,0.85,9.05,0.46,13.58,0.49c90.66,0,181.33,0,272-0.01
		c6.44-0.03,12.9,0.16,19.34-0.23c4.13-0.34,8.2,0.79,11.91,2.53c-1.85,1.05-3.8,1.96-5.91,2.33c-14.68,2.4-29.57,2.7-44.38,3.76
		c-11,0.61-22,1.02-33.02,1.11c-4.88-0.27-9.03,2.9-13.85,3.13c-35.54,4.24-71.41,4.06-107.14,3.49
		c-17.33-1.01-34.78-1.15-51.95-3.98c-2.85-0.45-5.35-1.97-8.11-2.68c-19.99-1.17-40.04-1.7-59.94-4.04
		c-3.98-0.29-7.88-1.17-11.63-2.53C20.55,262.55,23.84,262.28,26.78,261.74z"/>
</g>
</svg>
